{"glyphs":{"0":{"ha":889,"x_min":0,"x_max":0,"o":"m 65 661 b 446 1007 65 874 207 1007 b 824 661 683 1007 824 874 l 824 328 b 446 -21 824 111 685 -21 b 65 328 207 -21 65 113 m 599 664 b 446 800 599 753 542 800 b 290 664 346 800 290 753 l 290 324 b 446 186 290 235 346 186 b 599 324 542 186 599 235 "},"1":{"ha":614,"x_min":0,"x_max":0,"o":"m 467 986 b 524 929 510 986 524 972 l 524 57 b 467 0 524 14 510 0 l 354 0 b 297 57 311 0 297 14 l 297 708 l 163 632 b 76 654 125 610 96 617 l 28 742 b 56 818 10 779 17 796 l 307 964 b 388 986 332 979 358 986 "},"2":{"ha":840,"x_min":0,"x_max":0,"o":"m 76 774 b 450 1007 139 929 263 1007 b 707 915 557 1007 643 976 b 801 689 769 853 801 778 b 722 457 801 588 775 511 b 431 292 669 403 572 347 b 335 256 404 282 357 268 b 303 215 313 244 303 232 l 303 204 l 725 204 b 782 147 768 204 782 190 l 782 57 b 725 0 782 14 768 0 l 124 0 b 68 57 81 0 68 14 l 68 163 b 156 369 68 253 97 321 b 335 472 214 418 253 439 b 507 557 422 507 479 535 b 568 679 547 590 567 631 b 442 800 568 747 518 800 b 290 699 371 800 319 767 b 218 663 269 656 257 650 l 111 701 b 76 774 74 714 63 739 "},"3":{"ha":863,"x_min":0,"x_max":0,"o":"m 799 722 b 694 517 799 629 764 561 b 829 285 785 471 829 393 b 461 -21 829 96 704 -21 b 71 213 258 -21 128 57 b 106 285 58 247 69 272 l 210 322 b 282 286 249 338 265 326 b 454 183 310 214 353 183 b 593 292 547 183 593 219 b 476 400 593 364 554 400 l 367 400 b 310 456 324 400 310 413 l 310 542 b 367 599 310 585 324 599 l 449 599 b 571 700 521 599 571 633 b 449 803 571 768 531 803 b 289 700 353 803 317 774 b 217 664 272 660 257 653 l 113 701 b 78 774 76 714 65 739 b 461 1007 135 929 254 1007 b 799 722 674 1007 799 899 "},"4":{"ha":896,"x_min":0,"x_max":0,"o":"m 808 399 b 865 342 851 399 865 385 l 865 264 b 808 207 865 221 851 207 l 731 207 l 731 57 b 674 0 731 14 717 0 l 576 0 b 519 57 533 0 519 14 l 519 207 l 83 207 b 26 264 40 207 26 221 l 26 333 b 50 407 26 372 29 383 l 489 946 b 571 986 515 978 532 986 l 674 986 b 731 929 717 986 731 972 l 731 399 m 519 692 l 279 399 l 519 399 "},"5":{"ha":839,"x_min":0,"x_max":0,"o":"m 703 986 b 760 929 746 986 760 972 l 760 838 b 703 781 760 794 746 781 l 338 781 l 324 635 l 451 635 b 713 544 567 635 653 604 b 800 313 771 485 800 407 b 704 75 800 218 768 139 b 440 -21 639 11 551 -21 b 51 208 238 -21 108 56 b 86 281 39 249 47 265 l 193 319 b 265 285 232 335 249 325 b 435 186 292 218 340 186 b 564 317 513 186 564 232 b 433 435 564 390 511 435 l 143 435 b 85 500 94 435 81 454 l 126 906 b 217 986 132 967 154 986 "},"6":{"ha":893,"x_min":0,"x_max":0,"o":"m 289 610 b 465 626 338 621 396 626 b 839 304 714 626 839 519 b 451 -21 839 103 694 -21 b 64 349 201 -21 64 115 l 64 638 b 451 1007 64 871 203 1007 b 822 785 643 1007 767 933 b 788 713 839 746 828 728 l 688 675 b 615 711 649 660 633 671 b 453 800 589 771 535 800 b 289 639 343 800 289 746 m 289 338 b 451 183 289 235 343 183 b 614 303 560 183 614 224 b 451 422 614 385 568 422 b 289 400 381 422 326 415 "},"7":{"ha":768,"x_min":0,"x_max":0,"o":"m 690 986 b 747 929 733 986 747 972 l 747 861 b 729 782 747 835 742 808 l 394 50 b 290 0 376 7 361 0 l 181 0 b 153 57 146 0 138 19 l 486 781 l 85 781 b 29 836 42 781 29 796 l 29 929 b 85 986 29 972 42 986 "},"8":{"ha":885,"x_min":0,"x_max":0,"o":"m 83 718 b 440 1007 83 900 218 1007 b 800 735 675 1007 800 908 b 688 522 800 646 763 575 b 833 281 785 471 833 390 b 440 -21 833 93 708 -21 b 51 256 181 -21 51 71 b 196 489 51 354 100 432 b 83 718 121 540 83 617 m 581 714 b 443 815 581 781 531 815 b 311 714 356 815 311 782 b 438 603 311 651 350 626 l 496 588 b 581 714 553 615 581 657 m 597 278 b 535 369 599 325 571 351 b 464 392 521 376 481 388 b 375 413 446 396 396 407 b 279 278 311 383 279 339 b 442 171 279 207 333 171 b 597 278 553 171 597 207 "},"9":{"ha":893,"x_min":0,"x_max":0,"o":"m 604 376 b 428 360 554 365 496 360 b 54 682 174 360 54 467 b 442 1007 54 883 199 1007 b 829 638 692 1007 829 871 l 829 349 b 442 -21 829 115 690 -21 b 69 201 251 -21 126 53 b 104 274 54 240 65 258 l 206 311 b 278 275 244 326 260 315 b 440 186 303 215 357 186 b 604 347 550 186 604 240 m 604 649 b 442 803 604 751 550 803 b 279 683 333 803 279 763 b 442 564 279 601 325 564 b 604 586 513 564 567 571 "}," ":{"ha":281,"x_min":0,"x_max":0,"o":""},"!":{"ha":367,"x_min":0,"x_max":0,"o":"m 240 1028 b 292 976 279 1028 293 1015 l 269 360 b 218 310 268 321 257 310 l 149 310 b 97 360 110 310 99 321 l 76 976 b 126 1028 75 1015 88 1028 m 197 222 b 301 118 276 222 301 197 l 301 93 b 197 -11 301 14 276 -11 l 168 -11 b 64 93 89 -11 64 14 l 64 118 b 168 222 64 197 89 222 "},"\"":{"ha":531,"x_min":0,"x_max":0,"o":"m 229 663 b 179 619 228 624 219 619 l 117 619 b 69 663 76 619 69 625 l 69 940 b 117 986 69 979 78 986 l 206 986 b 251 940 244 986 256 978 m 451 663 b 400 619 447 624 440 619 l 338 619 b 292 663 299 619 292 625 l 292 940 b 338 986 292 979 300 986 l 426 986 b 474 940 467 986 475 978 "},"#":{"ha":1022,"x_min":0,"x_max":0,"o":"m 954 721 b 993 672 994 721 1003 710 l 967 583 b 899 536 957 551 935 536 l 807 536 l 765 396 l 860 396 b 899 346 899 396 910 383 l 871 257 b 803 210 861 225 838 210 l 710 210 l 663 51 b 597 0 651 14 635 0 l 503 0 b 465 51 464 0 454 14 l 513 210 l 374 210 l 326 51 b 261 0 315 14 299 0 l 167 0 b 129 51 128 0 118 14 l 178 210 l 85 210 b 47 260 47 210 36 225 l 74 349 b 142 396 85 386 101 396 l 232 396 l 275 536 l 181 536 b 143 586 143 536 132 549 l 171 675 b 238 721 181 710 197 721 l 329 721 l 378 883 b 443 935 389 922 404 935 l 538 935 b 574 883 575 935 585 921 l 525 721 l 665 721 l 714 883 b 779 935 725 922 740 935 l 874 935 b 910 883 911 935 921 921 l 861 721 m 471 536 l 429 396 l 568 396 l 611 536 "},"$":{"ha":835,"x_min":0,"x_max":0,"o":"m 492 1065 b 543 1015 531 1065 543 1053 l 543 958 b 782 778 656 939 735 879 b 750 700 803 739 793 718 l 654 657 b 578 685 617 640 599 646 b 438 765 550 739 514 765 b 297 685 339 765 297 744 b 463 603 297 633 356 614 b 621 576 529 596 558 592 b 696 544 651 568 676 557 b 813 315 758 507 818 435 b 543 32 813 167 715 64 l 543 -28 b 492 -79 543 -67 531 -79 l 386 -79 b 335 -28 349 -79 335 -67 l 335 29 b 67 232 199 50 110 118 b 104 307 54 268 67 293 l 199 340 b 276 307 239 356 258 347 b 429 222 299 250 350 222 b 588 311 535 222 588 251 b 424 396 588 367 533 385 b 235 438 346 406 306 410 b 149 486 199 450 169 467 b 69 685 106 524 69 594 b 335 958 69 831 163 931 l 335 1015 b 386 1065 335 1053 349 1065 "},"%":{"ha":1176,"x_min":0,"x_max":0,"o":"m 39 797 b 278 1008 39 929 124 1008 b 517 797 432 1008 517 929 l 517 697 b 278 490 517 568 432 490 b 39 697 124 490 39 568 m 997 986 b 1024 932 1035 986 1046 961 l 376 50 b 333 8 360 28 346 14 b 265 0 321 3 299 0 l 183 0 b 154 57 143 0 132 25 l 804 939 b 908 986 833 979 847 986 m 350 789 b 278 849 350 829 326 849 b 206 789 229 849 206 829 l 206 710 b 278 647 206 668 229 647 b 350 710 326 647 350 668 m 658 286 b 897 496 658 418 743 496 b 1136 286 1051 496 1136 418 l 1136 186 b 897 -22 1136 54 1051 -22 b 658 186 743 -22 658 54 m 969 276 b 897 338 969 317 946 338 b 825 276 849 338 825 317 l 825 197 b 897 136 825 157 849 136 b 969 197 946 136 969 157 "},"&":{"ha":956,"x_min":0,"x_max":0,"o":"m 139 743 b 214 931 139 817 164 879 b 421 1007 263 982 332 1007 b 611 936 496 1007 560 983 b 689 757 663 888 689 828 b 526 508 689 649 635 565 l 514 501 l 636 369 l 714 444 b 782 444 736 468 758 468 l 857 369 b 853 310 875 350 874 331 l 769 226 l 935 50 b 911 0 965 17 957 0 l 775 0 b 700 29 744 0 719 10 l 636 97 b 358 -21 538 8 464 -21 b 132 64 265 -21 189 7 b 44 286 74 121 44 194 b 214 553 44 401 101 490 b 139 743 164 611 139 675 m 499 757 b 421 832 499 800 464 832 b 332 746 365 832 332 794 b 385 639 332 708 342 685 l 432 664 b 499 757 476 688 499 718 m 343 414 b 253 282 283 383 253 339 b 369 169 253 215 301 169 b 468 206 408 169 449 189 b 506 240 478 213 490 225 "},"'":{"ha":310,"x_min":0,"x_max":0,"o":"m 229 663 b 179 619 228 624 219 619 l 117 619 b 69 663 76 619 69 625 l 69 940 b 117 986 69 979 78 986 l 206 986 b 251 940 244 986 256 978 "},"(":{"ha":424,"x_min":0,"x_max":0,"o":"m 68 842 b 269 1196 68 1026 136 1135 b 339 1163 307 1211 321 1201 l 383 1074 b 356 1004 399 1036 393 1025 b 272 850 300 975 272 924 l 272 138 b 356 -18 272 63 300 11 b 383 -87 393 -39 400 -50 l 339 -176 b 269 -210 321 -215 307 -225 b 68 146 136 -149 68 -39 "},")":{"ha":424,"x_min":0,"x_max":0,"o":"m 89 1163 b 158 1196 110 1201 124 1208 b 361 842 293 1135 361 1026 l 361 146 b 158 -210 361 -42 293 -149 b 89 -176 124 -222 110 -215 l 44 -87 b 74 -18 29 -50 36 -39 b 156 138 128 10 156 61 l 156 850 b 74 1004 156 925 128 976 b 44 1074 36 1025 29 1036 "},"*":{"ha":492,"x_min":0,"x_max":0,"o":"m 283 938 b 311 904 307 938 317 926 l 294 799 l 390 849 b 432 831 411 858 425 853 l 450 779 b 425 740 456 757 447 744 l 318 725 l 394 650 b 392 604 411 635 410 619 l 349 574 b 303 585 328 560 313 564 l 257 676 l 210 585 b 165 572 199 564 183 560 l 121 604 b 118 650 100 619 100 635 l 194 725 l 89 740 b 64 781 65 744 57 757 l 82 831 b 124 849 89 853 103 858 l 218 799 l 201 904 b 229 938 196 926 206 938 "},"+":{"ha":749,"x_min":0,"x_max":0,"o":"m 651 551 b 708 494 694 551 708 538 l 708 415 b 651 358 708 372 694 358 l 469 358 l 469 176 b 414 121 469 133 454 121 l 335 121 b 278 176 292 121 278 133 l 278 358 l 97 358 b 40 415 57 358 40 372 l 40 494 b 97 551 40 535 57 551 l 278 551 l 278 732 b 335 788 278 775 292 788 l 414 788 b 469 732 454 788 469 775 l 469 551 "},",":{"ha":338,"x_min":0,"x_max":0,"o":"m 189 -118 b 124 -169 176 -157 161 -169 l 76 -169 b 40 -131 43 -169 36 -162 l 72 151 b 140 214 79 200 94 214 l 229 214 b 282 151 279 214 297 193 "},"-":{"ha":564,"x_min":0,"x_max":0,"o":"m 436 467 b 493 410 479 467 493 453 l 493 325 b 436 268 493 282 479 268 l 128 268 b 71 325 85 268 71 282 l 71 410 b 128 467 71 453 85 467 "},".":{"ha":347,"x_min":0,"x_max":0,"o":"m 185 225 b 290 119 264 225 290 199 l 290 93 b 185 -11 290 14 264 -11 l 161 -11 b 57 93 82 -11 57 14 l 57 119 b 161 225 57 199 82 225 "},"/":{"ha":646,"x_min":0,"x_max":0,"o":"m 254 -36 b 186 -83 242 -74 225 -83 l 75 -83 b 42 -36 38 -83 31 -69 l 406 940 b 474 988 418 978 435 988 l 585 988 b 618 940 622 988 631 974 "},":":{"ha":376,"x_min":0,"x_max":0,"o":"m 200 711 b 306 606 279 711 306 685 l 306 579 b 200 475 306 500 279 475 l 176 475 b 72 579 97 475 72 500 l 72 606 b 176 711 72 685 97 711 m 200 225 b 306 119 279 225 306 199 l 306 93 b 200 -11 306 14 279 -11 l 176 -11 b 72 93 97 -11 72 14 l 72 119 b 176 225 72 199 97 225 "},";":{"ha":382,"x_min":0,"x_max":0,"o":"m 217 711 b 321 606 296 711 321 685 l 321 579 b 217 475 321 500 296 475 l 193 475 b 88 579 114 475 88 500 l 88 606 b 193 711 88 685 114 711 m 203 -118 b 138 -169 190 -157 175 -169 l 89 -169 b 53 -131 57 -169 49 -162 l 86 151 b 153 214 92 197 108 214 l 243 214 b 294 151 293 214 310 193 "},"<":{"ha":669,"x_min":0,"x_max":0,"o":"m 542 808 b 600 765 585 831 600 817 l 600 678 b 550 586 600 618 590 607 l 293 460 l 293 453 l 549 328 b 600 236 592 307 600 296 l 600 140 b 542 97 600 89 585 75 l 81 349 b 35 418 46 369 35 381 l 35 488 b 81 558 35 525 46 538 "},"=":{"ha":817,"x_min":0,"x_max":0,"o":"m 685 696 b 742 639 728 696 742 682 l 742 553 b 685 496 742 510 728 496 l 131 496 b 74 553 88 496 74 510 l 74 639 b 131 696 74 679 90 696 m 685 411 b 742 354 728 411 742 397 l 742 268 b 685 211 742 225 728 211 l 131 211 b 74 268 90 211 74 225 l 74 354 b 131 411 74 397 88 411 "},">":{"ha":669,"x_min":0,"x_max":0,"o":"m 68 767 b 128 810 68 818 88 832 l 589 558 b 635 489 624 538 635 524 l 635 419 b 589 349 635 385 624 369 l 128 99 b 68 140 88 76 68 90 l 68 231 b 119 322 68 288 79 301 l 376 449 l 376 456 l 121 581 b 68 672 78 601 68 613 "},"?":{"ha":804,"x_min":0,"x_max":0,"o":"m 63 793 b 435 1026 124 949 247 1026 b 693 946 544 1026 631 1000 b 788 739 756 892 788 822 b 701 522 782 632 756 569 b 597 453 661 488 644 479 b 550 425 574 439 557 429 b 483 336 506 399 483 368 b 429 282 483 296 469 282 l 347 282 b 293 336 308 282 293 296 b 417 560 293 453 339 511 b 489 603 429 567 475 593 b 518 625 496 607 506 615 b 565 731 551 651 561 679 b 432 838 565 796 519 838 b 264 722 343 838 299 801 b 192 686 246 679 231 674 l 97 721 b 63 793 60 735 47 758 m 404 222 b 510 118 483 222 510 197 l 510 93 b 404 -11 510 14 483 -11 l 376 -11 b 271 93 297 -11 271 14 l 271 118 b 376 222 271 197 297 222 "},"@":{"ha":1254,"x_min":0,"x_max":0,"o":"m 54 460 b 201 860 54 628 103 761 b 624 1007 300 958 440 1007 b 1049 860 808 1007 950 958 b 1196 460 1147 761 1196 628 l 1196 353 b 956 54 1196 168 1094 54 b 863 76 911 54 878 65 b 828 104 856 82 843 92 b 585 71 758 82 678 71 b 333 310 417 71 333 150 l 333 501 b 585 740 333 661 417 740 b 850 699 690 740 779 726 b 896 632 888 683 896 671 l 896 251 b 957 199 896 217 917 199 b 1040 350 1013 199 1040 249 l 1040 463 b 624 868 1040 719 896 868 b 210 463 356 868 210 718 l 210 350 b 624 -44 210 94 353 -44 b 926 -12 694 -44 796 -33 b 960 -33 953 -7 960 -11 l 960 -106 b 926 -150 960 -133 953 -143 b 624 -183 838 -172 736 -183 b 54 353 256 -183 54 18 m 719 578 b 607 589 692 585 654 589 b 500 497 531 589 500 563 l 500 314 b 607 224 500 249 531 224 b 729 235 661 224 703 228 l 729 567 b 719 578 729 574 726 576 "},"A":{"ha":933,"x_min":0,"x_max":0,"o":"m 942 56 b 904 0 956 18 943 0 l 800 0 b 697 51 732 0 710 11 l 654 182 l 311 182 l 267 51 b 165 0 251 11 233 0 l 69 0 b 32 56 31 0 18 18 l 364 939 b 433 986 376 976 393 986 l 540 986 b 610 942 581 986 597 976 m 524 581 b 490 753 506 640 492 715 l 489 779 l 475 779 b 443 582 476 714 465 647 l 371 365 l 596 365 "},"B":{"ha":910,"x_min":0,"x_max":0,"o":"m 532 986 b 828 724 717 986 828 890 b 732 518 828 631 796 563 l 732 513 b 865 274 821 475 865 394 b 775 72 865 188 835 121 b 538 0 714 24 635 0 l 142 0 b 85 57 99 0 85 14 l 85 929 b 142 986 85 972 99 986 m 497 597 b 599 692 565 597 599 629 b 497 786 599 754 565 786 l 311 786 l 311 597 m 628 300 b 524 401 628 368 593 401 l 311 401 l 311 200 l 524 200 b 628 300 593 200 628 233 "},"C":{"ha":894,"x_min":0,"x_max":0,"o":"m 58 633 b 468 1007 58 867 208 1007 b 857 774 671 1007 800 929 b 822 701 871 739 860 714 l 715 664 b 643 699 675 651 658 658 b 468 800 617 767 558 800 b 285 635 346 800 285 744 l 285 351 b 468 186 285 242 346 186 b 643 288 558 186 617 219 b 715 322 658 328 676 338 l 822 285 b 857 213 860 272 871 247 b 468 -21 800 57 671 -21 b 58 353 208 -21 58 119 "},"D":{"ha":935,"x_min":0,"x_max":0,"o":"m 467 986 b 876 613 728 986 876 846 l 876 374 b 467 0 876 140 728 0 l 142 0 b 85 57 99 0 85 14 l 85 929 b 142 986 85 972 99 986 m 651 613 b 465 781 651 725 589 781 l 311 781 l 311 207 l 465 207 b 651 374 589 207 651 263 "},"E":{"ha":811,"x_min":0,"x_max":0,"o":"m 700 986 b 757 929 743 986 757 972 l 757 836 b 700 781 757 793 743 781 l 311 781 l 311 601 l 631 601 b 688 546 674 601 688 589 l 688 453 b 631 396 688 410 674 396 l 311 396 l 311 207 l 714 207 b 771 150 754 207 771 190 l 771 57 b 714 0 771 14 757 0 l 142 0 b 85 57 99 0 85 14 l 85 929 b 142 986 85 972 99 986 "},"F":{"ha":792,"x_min":0,"x_max":0,"o":"m 700 986 b 757 929 743 986 757 972 l 757 836 b 700 781 757 793 743 781 l 311 781 l 311 582 l 631 582 b 688 525 674 582 688 568 l 688 432 b 631 376 688 389 674 376 l 311 376 l 311 57 b 254 0 311 14 297 0 l 142 0 b 85 57 99 0 85 14 l 85 929 b 142 986 85 972 99 986 "},"G":{"ha":929,"x_min":0,"x_max":0,"o":"m 822 557 b 879 500 865 557 879 543 l 879 310 b 771 72 879 213 843 133 b 468 -21 697 10 597 -21 b 58 353 208 -21 58 119 l 58 633 b 468 1007 58 867 208 1007 b 857 774 671 1007 800 929 b 822 701 871 739 860 714 l 715 664 b 643 699 675 651 658 658 b 468 800 617 767 558 800 b 285 635 346 800 285 744 l 285 351 b 468 186 285 242 346 186 b 654 307 583 186 654 236 l 654 357 l 486 357 b 429 414 443 357 429 371 l 429 500 b 486 557 429 543 443 557 "},"H":{"ha":957,"x_min":0,"x_max":0,"o":"m 815 986 b 871 929 858 986 871 972 l 871 57 b 815 0 871 14 858 0 l 703 0 b 646 57 660 0 646 14 l 646 396 l 311 396 l 311 57 b 254 0 311 14 297 0 l 142 0 b 85 57 99 0 85 14 l 85 929 b 142 986 85 972 99 986 l 254 986 b 311 929 297 986 311 972 l 311 603 l 646 603 l 646 929 b 703 986 646 972 660 986 "},"I":{"ha":396,"x_min":0,"x_max":0,"o":"m 85 931 b 140 986 85 971 97 986 l 256 986 b 311 931 296 986 311 971 l 311 56 b 256 0 311 15 296 0 l 140 0 b 85 56 97 0 85 15 "},"J":{"ha":808,"x_min":0,"x_max":0,"o":"m 682 986 b 738 931 722 986 738 971 l 738 335 b 369 -21 738 111 608 -21 b 22 204 193 -21 78 54 b 58 276 10 243 18 264 l 164 314 b 238 279 204 329 219 319 b 371 185 265 214 303 185 b 511 333 464 185 511 235 l 511 931 b 567 986 511 971 524 986 "},"K":{"ha":890,"x_min":0,"x_max":0,"o":"m 868 60 b 838 0 889 26 878 0 l 726 0 b 613 51 654 0 633 8 l 482 315 b 347 399 450 381 425 399 l 311 399 l 311 57 b 254 0 311 14 297 0 l 142 0 b 85 57 99 0 85 14 l 85 929 b 142 986 85 972 99 986 l 254 986 b 311 929 297 986 311 972 l 311 601 l 333 601 l 346 601 l 592 939 b 703 986 621 979 636 986 l 824 986 b 851 931 863 986 874 960 l 564 544 b 690 399 611 518 653 469 "},"L":{"ha":742,"x_min":0,"x_max":0,"o":"m 254 986 b 311 929 297 986 311 972 l 311 207 l 669 207 b 726 150 710 207 726 190 l 726 57 b 669 0 726 14 713 0 l 142 0 b 85 57 99 0 85 14 l 85 929 b 142 986 85 972 99 986 "},"M":{"ha":1136,"x_min":0,"x_max":0,"o":"m 994 986 b 1051 931 1038 986 1051 974 l 1051 56 b 994 0 1051 13 1038 0 l 890 0 b 835 56 847 0 835 15 l 835 371 b 881 683 835 460 850 564 l 868 683 b 758 425 840 592 804 506 l 660 249 b 597 208 643 219 631 208 l 533 208 b 469 249 499 208 486 217 l 369 425 b 267 683 329 492 296 578 l 254 683 b 296 369 282 565 296 460 l 296 56 b 240 0 296 15 283 0 l 142 0 b 85 56 99 0 85 15 l 85 931 b 142 986 85 971 99 986 l 232 986 b 311 944 276 986 290 978 l 565 475 l 821 943 b 896 986 842 981 853 986 "},"N":{"ha":971,"x_min":0,"x_max":0,"o":"m 829 986 b 885 929 872 986 885 972 l 885 57 b 829 0 885 14 872 0 l 717 0 b 661 26 690 0 672 8 l 389 440 b 272 700 340 513 301 599 l 263 700 b 301 389 289 575 301 471 l 301 57 b 244 0 301 14 288 0 l 142 0 b 85 57 99 0 85 14 l 85 929 b 142 986 85 972 99 986 l 257 986 b 311 960 281 986 299 978 l 589 539 b 668 388 622 489 653 424 b 703 290 683 351 701 294 l 714 290 b 669 597 685 382 669 485 l 669 929 b 726 986 669 972 683 986 "},"O":{"ha":938,"x_min":0,"x_max":0,"o":"m 58 633 b 468 1007 58 867 208 1007 b 879 633 729 1007 879 867 l 879 353 b 468 -21 879 119 729 -21 b 58 353 208 -21 58 119 m 653 638 b 468 800 653 746 592 800 b 285 638 350 800 285 744 l 285 349 b 468 186 285 242 350 186 b 653 349 592 186 653 240 "},"P":{"ha":888,"x_min":0,"x_max":0,"o":"m 514 986 b 854 653 724 986 854 860 b 514 321 854 446 725 321 l 311 321 l 311 57 b 254 0 311 14 297 0 l 142 0 b 85 57 99 0 85 14 l 85 929 b 142 986 85 972 99 986 m 490 528 b 619 653 572 528 619 574 b 490 781 619 732 572 781 l 311 781 l 311 528 "},"Q":{"ha":957,"x_min":0,"x_max":0,"o":"m 890 35 b 883 -46 918 3 917 -17 l 811 -104 b 732 -97 779 -132 758 -131 l 644 6 b 468 -21 596 -12 536 -21 b 58 353 208 -21 58 119 l 58 633 b 468 1007 58 867 208 1007 b 879 633 729 1007 879 867 l 879 353 b 814 126 879 263 857 186 m 285 349 b 468 186 285 242 350 186 b 653 349 592 186 653 240 l 653 638 b 468 800 653 746 592 800 b 285 638 350 800 285 744 "},"R":{"ha":911,"x_min":0,"x_max":0,"o":"m 526 986 b 854 667 728 986 854 867 b 693 382 854 526 800 431 b 722 333 696 378 706 363 l 865 60 b 836 0 886 26 876 0 l 725 0 b 608 54 654 0 629 11 l 506 268 b 368 350 474 333 447 350 l 311 350 l 311 57 b 254 0 311 14 297 0 l 142 0 b 85 57 99 0 85 14 l 85 929 b 142 986 85 972 99 986 m 590 583 b 619 667 610 603 619 631 b 590 751 619 703 610 731 b 504 781 569 771 542 781 l 311 781 l 311 553 l 504 553 b 590 583 542 553 569 563 "},"S":{"ha":888,"x_min":0,"x_max":0,"o":"m 58 696 b 454 1007 58 881 203 1007 b 826 803 653 1007 761 942 b 796 728 844 764 836 744 l 690 682 b 618 710 653 665 639 672 b 454 801 588 771 533 801 b 290 706 339 801 290 772 b 354 631 290 671 310 646 b 499 603 397 615 431 610 b 694 558 576 593 624 586 b 781 506 729 543 758 526 b 858 297 824 464 858 392 b 747 67 858 201 821 124 b 446 -21 674 8 572 -21 b 56 204 242 -21 111 54 b 92 276 43 244 53 261 l 193 313 b 267 279 233 328 249 322 b 446 183 296 215 356 183 b 631 293 569 183 631 219 b 443 393 631 356 564 381 b 338 408 399 399 364 404 b 239 435 311 413 279 421 b 144 485 199 449 167 465 b 58 696 99 524 58 597 "},"T":{"ha":810,"x_min":0,"x_max":0,"o":"m 735 986 b 792 929 778 986 792 972 l 792 836 b 735 781 792 793 778 781 l 518 781 l 518 57 b 461 0 518 14 504 0 l 349 0 b 293 57 306 0 293 14 l 293 781 l 75 781 b 18 836 32 781 18 793 l 18 929 b 75 986 18 972 32 986 "},"U":{"ha":960,"x_min":0,"x_max":0,"o":"m 303 342 b 479 185 303 240 364 185 b 656 342 597 185 656 238 l 656 929 b 713 986 656 972 669 986 l 825 986 b 882 929 868 986 882 972 l 882 347 b 479 -21 882 119 739 -21 b 78 347 222 -21 78 119 l 78 929 b 135 986 78 972 92 986 l 247 986 b 303 929 290 986 303 972 "},"V":{"ha":913,"x_min":0,"x_max":0,"o":"m 885 986 b 921 931 922 986 935 968 l 604 47 b 535 0 592 10 574 0 l 422 0 b 353 44 382 0 365 10 l 35 931 b 72 986 21 968 33 986 l 176 986 b 279 935 247 986 267 975 l 442 417 b 474 275 454 372 468 308 l 476 250 l 488 250 b 522 415 494 310 507 364 l 682 935 b 783 986 694 975 715 986 "},"W":{"ha":1276,"x_min":0,"x_max":0,"o":"m 1221 986 b 1257 931 1260 986 1268 969 l 1036 47 b 967 0 1026 8 1010 0 l 856 0 b 786 44 815 0 793 15 l 674 493 b 651 683 661 556 653 618 l 640 683 b 617 493 640 626 632 563 l 503 47 b 433 0 492 8 474 0 l 322 0 b 253 44 282 0 263 10 l 33 931 b 69 986 22 969 31 986 l 200 986 b 276 936 250 986 267 976 l 357 508 b 371 394 361 482 367 444 b 378 294 375 344 378 311 l 388 294 b 396 396 388 315 390 349 b 415 508 401 443 408 481 l 526 936 b 600 986 536 975 556 986 l 707 986 b 782 936 753 986 772 975 l 890 508 b 918 294 908 432 918 361 l 929 294 b 951 508 929 351 936 424 l 1031 936 b 1106 986 1038 976 1056 986 "},"X":{"ha":906,"x_min":0,"x_max":0,"o":"m 892 57 b 864 0 914 28 903 0 l 731 0 b 658 8 696 0 671 3 b 619 50 646 13 632 26 l 451 325 l 293 50 b 253 8 278 28 265 14 b 182 0 240 3 217 0 l 57 0 b 29 57 18 0 7 25 l 319 503 l 42 932 b 68 986 19 960 31 986 l 196 986 b 306 939 263 986 276 979 l 461 682 l 615 939 b 718 986 643 982 657 986 l 851 986 b 878 932 889 986 900 960 l 597 504 "},"Y":{"ha":914,"x_min":0,"x_max":0,"o":"m 874 986 b 903 929 914 986 924 961 l 576 383 l 576 57 b 519 0 576 14 563 0 l 407 0 b 350 57 364 0 350 14 l 350 386 l 24 929 b 53 986 3 961 13 986 l 182 986 b 256 979 218 986 243 983 b 292 936 268 974 279 960 l 465 613 l 642 936 b 681 979 654 960 668 974 b 753 986 693 983 717 986 "},"Z":{"ha":835,"x_min":0,"x_max":0,"o":"m 726 986 b 783 929 769 986 783 972 l 783 849 b 764 792 783 828 776 810 l 333 207 l 733 207 b 790 150 774 207 790 190 l 790 57 b 733 0 790 14 776 0 l 101 0 b 44 57 58 0 44 14 l 44 138 b 63 194 44 158 50 176 l 494 781 l 108 781 b 51 836 65 781 51 793 l 51 929 b 108 986 51 972 65 986 "},"[":{"ha":454,"x_min":0,"x_max":0,"o":"m 374 1189 b 424 1139 417 1189 424 1182 l 424 1061 b 374 1011 424 1018 417 1011 l 279 1011 l 279 -25 l 374 -25 b 424 -74 417 -25 424 -31 l 424 -154 b 374 -203 424 -197 417 -203 l 131 -203 b 79 -153 88 -203 79 -196 l 79 1138 b 131 1189 79 1181 88 1189 "},"\\":{"ha":646,"x_min":0,"x_max":0,"o":"m 42 939 b 75 986 31 972 38 986 l 186 986 b 254 939 225 986 242 976 l 619 -36 b 585 -83 631 -69 624 -83 l 474 -83 b 406 -36 436 -83 421 -74 "},"]":{"ha":454,"x_min":0,"x_max":0,"o":"m 324 1189 b 375 1138 367 1189 375 1181 l 375 -153 b 324 -203 375 -196 367 -203 l 81 -203 b 31 -154 38 -203 31 -197 l 31 -74 b 81 -25 31 -31 38 -25 l 175 -25 l 175 1011 l 81 1011 b 31 1061 38 1011 31 1018 l 31 1139 b 81 1189 31 1182 38 1189 "},"^":{"ha":835,"x_min":0,"x_max":0,"o":"m 457 1125 b 531 1079 503 1119 501 1117 l 779 782 b 751 722 811 742 803 722 l 650 722 b 589 731 619 722 599 725 b 547 768 578 735 564 747 l 425 926 l 418 926 l 294 768 b 253 731 278 747 264 735 b 189 722 240 725 219 722 l 97 722 b 69 782 47 722 38 744 l 317 1079 b 393 1125 346 1114 358 1125 "},"_":{"ha":689,"x_min":0,"x_max":0,"o":"m 607 0 b 664 -57 650 0 664 -14 l 664 -142 b 607 -199 664 -185 650 -199 l 82 -199 b 25 -142 39 -199 25 -185 l 25 -57 b 82 0 25 -14 39 0 "},"`":{"ha":357,"x_min":0,"x_max":0,"o":"m 75 1015 b 167 1018 96 1039 126 1040 l 361 901 b 364 849 385 889 386 875 l 336 815 b 274 811 325 801 304 800 l 31 900 b 24 956 -3 911 0 926 "},"a":{"ha":728,"x_min":0,"x_max":0,"o":"m 63 599 b 360 743 114 694 213 743 b 669 450 567 743 669 646 l 669 97 b 618 17 669 49 658 33 b 356 -21 563 -8 475 -21 b 107 35 235 -21 153 -3 b 38 208 61 72 38 129 b 361 436 38 379 128 436 b 460 433 397 436 431 435 l 460 464 b 353 567 460 532 424 567 b 238 515 301 567 264 550 b 167 493 214 483 206 478 l 90 525 b 63 599 56 540 46 564 m 460 274 b 406 275 451 274 433 274 b 343 276 378 276 357 276 b 247 210 269 276 247 253 b 340 142 247 165 268 142 b 450 147 389 142 426 143 b 460 157 457 149 460 153 "},"b":{"ha":757,"x_min":0,"x_max":0,"o":"m 228 1028 b 278 976 265 1028 278 1015 l 278 729 b 408 743 321 739 365 743 b 708 456 608 743 708 640 l 708 282 b 382 -21 708 81 600 -21 b 119 25 274 -21 186 -6 b 68 103 75 47 68 58 l 68 976 b 119 1028 68 1015 81 1028 m 497 454 b 381 556 497 522 458 556 b 278 540 346 556 313 550 l 278 185 b 282 178 278 181 279 179 b 371 167 306 171 335 167 b 497 282 456 167 497 206 "},"c":{"ha":721,"x_min":0,"x_max":0,"o":"m 49 449 b 379 743 49 636 157 743 b 683 558 539 743 644 669 b 647 486 696 518 686 501 l 558 457 b 485 492 518 442 500 451 b 371 563 465 539 428 563 b 258 458 296 563 258 528 l 258 264 b 371 160 258 194 296 160 b 485 231 428 160 465 183 b 558 264 500 269 518 276 l 649 236 b 685 163 688 224 700 200 b 365 -21 633 40 526 -21 b 49 274 154 -21 49 78 "},"d":{"ha":757,"x_min":0,"x_max":0,"o":"m 50 442 b 351 743 50 638 153 743 b 479 735 389 743 431 740 l 479 976 b 531 1028 479 1015 492 1028 l 638 1028 b 689 976 676 1028 689 1015 l 689 103 b 633 26 689 57 679 44 b 360 -21 557 -6 467 -21 b 50 267 153 -21 50 75 m 479 547 b 386 556 444 553 413 556 b 260 442 301 556 260 518 l 260 268 b 376 167 260 203 303 167 b 475 176 417 167 449 169 b 479 183 478 178 479 179 "},"e":{"ha":754,"x_min":0,"x_max":0,"o":"m 47 435 b 381 743 47 635 165 743 b 715 450 601 743 715 621 l 715 365 b 643 296 715 319 692 296 l 257 296 l 257 261 b 382 151 257 188 299 151 b 514 207 442 151 486 169 b 594 225 538 240 554 246 l 663 190 b 685 108 699 172 706 144 b 379 -21 631 22 529 -21 b 47 288 151 -21 47 100 m 504 469 b 381 576 504 540 463 576 b 257 469 299 576 257 540 l 257 447 l 504 447 "},"f":{"ha":528,"x_min":0,"x_max":0,"o":"m 467 1028 b 519 975 506 1028 519 1015 l 519 894 b 467 842 519 854 506 842 b 340 726 376 842 340 808 l 340 722 l 468 722 b 519 671 506 722 519 710 l 519 588 b 468 536 519 549 506 536 l 340 536 l 340 51 b 288 0 340 13 328 0 l 182 0 b 131 51 143 0 131 13 l 131 536 l 69 536 b 19 588 32 536 19 549 l 19 671 b 69 722 19 710 32 722 l 131 722 l 131 726 b 449 1028 131 925 236 1025 "},"g":{"ha":756,"x_min":0,"x_max":0,"o":"m 58 442 b 383 743 58 643 167 743 b 646 697 496 743 583 728 b 697 619 690 676 697 665 l 697 -11 b 381 -319 697 -204 597 -319 b 82 -190 238 -319 138 -276 b 104 -108 60 -154 67 -126 l 182 -68 b 263 -86 221 -47 239 -53 b 376 -139 288 -121 325 -139 b 488 -26 450 -139 488 -101 l 488 33 b 358 19 444 24 401 19 b 58 307 158 19 58 115 m 482 546 b 394 556 453 553 424 556 b 268 442 310 556 268 518 l 268 308 b 385 207 268 243 311 207 b 488 217 419 207 453 210 l 488 538 b 482 546 488 542 486 544 "},"h":{"ha":774,"x_min":0,"x_max":0,"o":"m 229 1028 b 281 976 268 1028 281 1015 l 281 733 l 300 736 b 410 743 326 740 371 743 b 710 456 610 743 710 647 l 710 51 b 660 0 710 13 697 0 l 551 0 b 500 51 513 0 500 13 l 500 449 b 382 553 500 518 461 553 b 286 543 342 553 301 547 l 281 542 l 281 51 b 229 0 281 13 268 0 l 122 0 b 71 51 83 0 71 13 l 71 976 b 122 1028 71 1015 83 1028 "},"i":{"ha":350,"x_min":0,"x_max":0,"o":"m 189 999 b 288 900 263 999 288 974 l 288 886 b 189 788 288 813 263 788 l 160 788 b 61 886 83 788 61 813 l 61 900 b 160 999 61 974 83 999 m 229 722 b 279 671 267 722 279 710 l 279 51 b 229 0 279 13 267 0 l 121 0 b 69 51 82 0 69 13 l 69 671 b 121 722 69 710 82 722 "},"j":{"ha":351,"x_min":0,"x_max":0,"o":"m 190 999 b 289 900 267 999 289 974 l 289 886 b 190 788 289 813 267 788 l 161 788 b 63 886 88 788 63 813 l 63 900 b 161 999 63 974 88 999 m 228 722 b 281 671 268 722 281 710 l 281 -11 b -56 -319 281 -217 168 -319 b -108 -267 -96 -319 -108 -307 l -108 -181 b -56 -129 -108 -142 -96 -129 b 71 -1 29 -129 71 -86 l 71 671 b 124 722 71 710 83 722 "},"k":{"ha":744,"x_min":0,"x_max":0,"o":"m 714 63 b 679 0 738 18 729 0 l 583 0 b 492 47 524 0 510 7 l 418 218 b 329 274 403 256 372 274 l 281 274 l 281 53 b 228 0 281 13 268 0 l 124 0 b 71 53 83 0 71 13 l 71 975 b 124 1028 71 1015 83 1028 l 228 1028 b 281 975 268 1028 281 1015 l 281 460 l 310 460 l 318 460 l 475 681 b 574 722 499 718 514 722 l 667 722 b 701 661 718 722 731 701 l 515 407 b 593 307 543 388 569 354 "},"l":{"ha":356,"x_min":0,"x_max":0,"o":"m 283 51 b 232 0 283 13 271 0 l 124 0 b 74 51 86 0 74 13 l 74 976 b 124 1028 74 1015 86 1028 l 232 1028 b 283 976 271 1028 283 1015 "},"m":{"ha":1147,"x_min":0,"x_max":0,"o":"m 564 704 b 797 743 632 731 710 743 b 1083 456 988 743 1083 647 l 1083 51 b 1032 0 1083 13 1071 0 l 925 0 b 874 51 886 0 874 13 l 874 450 b 768 553 874 518 839 553 b 672 539 736 553 704 549 b 681 454 678 514 681 486 l 681 51 b 629 0 681 13 668 0 l 522 0 b 471 51 483 0 471 13 l 471 450 b 365 553 471 518 436 553 b 283 542 340 553 313 549 b 278 533 279 542 278 539 l 278 51 b 226 0 278 13 265 0 l 119 0 b 68 51 81 0 68 13 l 68 613 b 124 693 68 658 79 675 b 394 743 204 726 294 743 b 564 704 463 743 519 731 "},"n":{"ha":771,"x_min":0,"x_max":0,"o":"m 124 693 b 407 743 204 726 299 743 b 707 456 607 743 707 647 l 707 51 b 657 0 707 13 694 0 l 549 0 b 497 51 510 0 497 13 l 497 449 b 379 553 497 518 458 553 b 282 540 343 553 311 549 b 278 535 279 540 278 539 l 278 51 b 226 0 278 13 265 0 l 119 0 b 68 51 81 0 68 13 l 68 613 b 124 693 68 658 79 675 "},"o":{"ha":760,"x_min":0,"x_max":0,"o":"m 49 450 b 379 743 49 635 164 743 b 711 450 596 743 711 635 l 711 271 b 379 -21 711 86 596 -21 b 49 271 164 -21 49 88 m 501 453 b 379 557 501 522 461 557 b 258 453 299 557 258 522 l 258 269 b 379 165 258 200 299 165 b 501 269 461 165 501 200 "},"p":{"ha":757,"x_min":0,"x_max":0,"o":"m 124 700 b 406 743 199 729 293 743 b 708 456 610 743 708 640 l 708 281 b 388 -21 708 85 600 -21 b 278 -8 356 -21 319 -17 l 278 -254 b 228 -306 278 -293 265 -306 l 119 -306 b 68 -254 81 -306 68 -293 l 68 619 b 124 700 68 665 79 682 m 497 454 b 381 556 497 522 458 556 b 285 546 349 556 317 553 b 278 536 281 544 278 542 l 278 175 b 371 167 313 169 344 167 b 497 281 456 167 497 204 "},"q":{"ha":757,"x_min":0,"x_max":0,"o":"m 375 743 b 638 697 488 743 575 728 b 689 619 682 676 689 665 l 689 -254 b 638 -306 689 -293 676 -306 l 531 -306 b 479 -254 492 -306 479 -293 l 479 -7 b 350 -21 436 -17 393 -21 b 50 267 150 -21 50 75 l 50 442 b 375 743 50 643 158 743 m 260 268 b 376 167 260 203 303 167 b 479 176 411 167 444 169 l 479 535 b 471 546 479 542 476 544 b 386 556 446 553 418 556 b 260 442 301 556 260 518 "},"r":{"ha":497,"x_min":0,"x_max":0,"o":"m 390 743 l 436 743 b 488 692 474 743 488 731 l 488 606 b 436 556 488 568 474 556 l 385 556 b 286 546 347 556 315 553 b 278 536 281 544 278 542 l 278 51 b 228 0 278 13 265 0 l 119 0 b 68 51 81 0 68 13 l 68 619 b 124 700 68 665 79 682 b 390 743 186 725 275 739 "},"s":{"ha":708,"x_min":0,"x_max":0,"o":"m 63 511 b 361 743 63 651 168 743 b 669 594 514 743 617 693 b 642 521 688 561 678 536 l 560 486 b 489 508 519 471 513 475 b 368 561 464 543 424 561 b 265 511 300 561 265 544 b 400 449 265 471 299 458 b 694 221 601 428 694 376 b 382 -21 694 75 581 -21 b 63 144 214 -21 107 35 b 96 214 50 179 61 201 l 181 242 b 249 213 215 254 232 247 b 375 160 265 178 307 160 b 494 217 454 160 494 179 b 347 283 494 261 463 272 b 151 336 264 290 208 304 b 63 511 94 368 63 426 "},"t":{"ha":557,"x_min":0,"x_max":0,"o":"m 297 889 b 347 838 335 889 347 876 l 347 722 l 476 722 b 526 671 514 722 526 710 l 526 588 b 476 536 526 549 514 536 l 347 536 l 347 303 b 475 174 347 199 379 174 b 526 121 514 174 526 161 l 526 33 b 475 -19 526 -7 514 -18 b 215 44 354 -24 267 -1 b 138 294 164 90 138 174 l 138 536 l 64 536 b 13 588 25 536 13 549 l 13 671 b 64 722 13 710 25 722 l 138 722 l 138 838 b 189 889 138 876 151 889 "},"u":{"ha":771,"x_min":0,"x_max":0,"o":"m 653 722 b 703 671 690 722 703 710 l 703 110 b 649 29 703 64 693 47 b 364 -21 567 -4 471 -21 b 64 267 164 -21 64 75 l 64 671 b 115 722 64 710 76 722 l 222 722 b 274 671 261 722 274 710 l 274 274 b 392 169 274 204 313 169 b 483 179 424 169 454 172 b 493 194 490 182 493 188 l 493 671 b 544 722 493 710 506 722 "},"v":{"ha":733,"x_min":0,"x_max":0,"o":"m 682 722 b 725 663 732 722 742 708 l 485 46 b 415 0 472 11 454 0 l 333 0 b 263 46 294 0 275 11 l 26 663 b 69 722 10 708 19 722 l 153 722 b 242 671 213 722 229 714 l 336 400 b 367 261 351 357 363 294 l 371 236 l 381 236 b 414 400 386 296 397 351 l 507 669 b 594 722 522 714 535 722 "},"w":{"ha":1039,"x_min":0,"x_max":0,"o":"m 978 722 b 1021 663 1028 722 1036 708 l 847 46 b 778 0 838 11 818 0 l 699 0 b 628 46 660 0 636 15 l 554 322 b 533 464 543 368 535 432 l 531 489 l 522 489 b 496 322 518 429 508 374 l 422 46 b 353 0 413 11 393 0 l 278 0 b 208 46 240 0 217 15 l 35 663 b 76 722 19 708 28 722 l 160 722 b 250 671 222 722 243 714 l 301 432 b 319 274 308 393 315 318 l 321 240 l 329 240 b 356 432 335 321 343 385 l 421 669 b 506 722 432 714 444 722 l 557 722 b 642 671 618 722 631 714 l 708 432 b 733 271 721 386 729 311 l 735 240 l 744 240 b 764 432 746 311 751 375 l 813 669 b 903 722 822 714 840 722 "},"x":{"ha":732,"x_min":0,"x_max":0,"o":"m 671 722 b 707 661 722 722 733 701 l 511 372 l 719 61 b 682 0 749 21 739 0 l 586 0 b 493 44 529 0 517 6 l 379 226 l 271 44 b 178 0 249 6 233 0 l 83 0 b 46 61 22 0 14 21 l 253 369 l 54 661 b 93 722 28 701 40 722 l 186 722 b 281 678 243 722 258 715 l 383 518 l 483 678 b 572 722 510 717 518 722 "},"y":{"ha":774,"x_min":0,"x_max":0,"o":"m 663 722 b 713 671 700 722 713 710 l 713 -11 b 396 -319 713 -204 613 -319 b 99 -190 251 -319 153 -276 b 119 -108 75 -156 82 -128 l 199 -68 b 279 -86 238 -47 256 -53 b 392 -139 304 -121 342 -139 b 503 -26 465 -139 503 -101 l 503 31 b 374 21 469 24 426 21 b 74 308 174 21 74 117 l 74 671 b 125 722 74 710 86 722 l 232 722 b 283 671 271 722 283 710 l 283 315 b 401 211 283 246 322 211 b 503 221 433 211 467 214 l 503 671 b 554 722 503 710 515 722 "},"z":{"ha":671,"x_min":0,"x_max":0,"o":"m 579 186 b 631 135 618 186 631 172 l 631 51 b 579 0 631 13 618 0 l 90 0 b 40 51 53 0 40 13 l 40 133 b 57 185 40 154 46 172 l 353 536 l 97 536 b 47 588 60 536 47 550 l 47 671 b 97 722 47 710 60 722 l 572 722 b 624 671 611 722 624 710 l 624 589 b 603 533 624 569 617 551 l 303 186 "},"{":{"ha":521,"x_min":0,"x_max":0,"o":"m 442 1189 b 492 1138 479 1189 492 1176 l 492 1053 b 442 1003 492 1015 479 1003 l 375 1003 b 346 974 358 1003 346 989 l 346 669 b 243 489 346 590 311 531 b 346 307 311 460 346 400 l 346 11 b 374 -18 346 -4 358 -18 l 442 -18 b 492 -68 479 -18 492 -31 l 492 -153 b 442 -204 492 -192 479 -204 l 351 -204 b 147 -14 200 -204 147 -149 l 147 272 b 64 383 147 346 119 383 l 56 383 b 13 435 24 383 13 397 l 13 542 b 54 593 13 576 26 593 l 64 593 b 147 704 119 593 147 631 l 147 997 b 349 1189 147 1132 203 1189 "},"|":{"ha":360,"x_min":0,"x_max":0,"o":"m 229 1189 b 281 1138 268 1189 281 1176 l 281 -153 b 229 -204 281 -192 268 -204 l 131 -204 b 79 -153 92 -204 79 -192 l 79 1138 b 131 1189 79 1176 92 1189 "},"}":{"ha":521,"x_min":0,"x_max":0,"o":"m 172 1189 b 374 997 318 1189 374 1132 l 374 704 b 458 593 374 631 401 593 l 467 593 b 508 542 494 593 508 576 l 508 435 b 467 383 508 400 494 383 l 458 383 b 374 272 401 383 374 346 l 374 -14 b 169 -204 374 -149 321 -204 l 79 -204 b 29 -153 42 -204 29 -192 l 29 -68 b 79 -18 29 -31 42 -18 l 147 -18 b 176 11 163 -18 176 -4 l 176 307 b 278 489 176 400 210 461 b 176 669 210 531 176 590 l 176 974 b 146 1003 176 989 163 1003 l 79 1003 b 29 1053 42 1003 29 1015 l 29 1138 b 79 1189 29 1176 42 1189 "},"~":{"ha":776,"x_min":0,"x_max":0,"o":"m 128 500 b 304 568 178 546 236 568 b 429 546 344 568 386 561 b 524 522 472 531 503 522 b 599 550 553 522 578 532 b 672 547 631 576 643 575 l 735 488 b 735 408 764 461 764 435 b 558 340 683 363 624 340 b 435 364 518 340 478 349 b 339 386 392 379 360 386 b 264 360 311 386 286 378 b 190 363 231 332 218 335 l 128 421 b 128 500 99 449 99 475 "},"¡":{"ha":356,"x_min":0,"x_max":0,"o":"m 163 500 b 58 604 83 500 58 525 l 58 629 b 163 733 58 708 83 733 l 192 733 b 296 629 271 733 296 708 l 296 604 b 192 500 296 525 271 500 m 122 -306 b 71 -254 83 -306 69 -293 l 92 363 b 143 413 93 401 104 413 l 213 413 b 264 363 251 413 263 401 l 286 -254 b 235 -306 288 -293 274 -306 "},"¢":{"ha":749,"x_min":0,"x_max":0,"o":"m 661 236 b 696 163 699 224 711 199 b 488 -10 658 72 589 14 l 488 -65 b 438 -117 488 -104 475 -117 l 336 -117 b 286 -65 299 -117 286 -104 l 286 -12 b 60 274 135 13 60 108 l 60 449 b 286 733 60 608 135 704 l 286 796 b 336 847 286 835 299 847 l 438 847 b 488 796 475 847 488 835 l 488 733 b 694 558 593 710 665 643 b 660 486 707 518 699 501 l 569 457 b 496 492 531 442 513 451 b 382 563 476 539 439 563 b 269 458 307 563 269 528 l 269 264 b 382 160 269 194 307 160 b 496 231 439 160 476 183 b 569 264 513 269 529 276 "},"£":{"ha":913,"x_min":0,"x_max":0,"o":"m 158 701 b 250 918 158 786 189 858 b 499 1007 311 978 394 1007 b 861 790 681 1007 801 935 b 825 718 876 750 865 733 l 719 679 b 647 714 679 667 669 674 b 507 800 614 775 575 800 b 392 690 436 800 392 753 l 392 556 l 658 556 b 715 500 701 556 715 543 l 715 428 b 658 372 715 385 701 372 l 390 372 l 390 324 b 324 189 389 264 367 219 l 324 181 b 549 204 396 196 471 204 l 796 204 b 851 147 836 204 851 190 l 851 57 b 796 0 851 14 839 0 l 110 0 b 54 57 67 0 54 14 l 54 149 b 85 196 54 179 64 194 l 90 196 b 157 319 139 213 156 251 l 157 372 l 113 372 b 56 428 69 372 56 385 l 56 500 b 113 556 56 543 69 556 l 158 556 "},"¤":{"ha":869,"x_min":0,"x_max":0,"o":"m 826 258 b 826 186 854 232 854 213 l 753 113 b 681 113 726 86 708 86 l 613 181 b 329 181 529 136 417 136 l 261 113 b 189 113 235 86 217 86 l 115 186 b 115 258 92 210 92 235 l 185 328 b 185 608 140 411 140 525 l 115 678 b 115 750 92 701 92 726 l 189 824 b 261 824 217 850 235 850 l 329 756 b 472 789 372 778 419 789 b 613 756 524 789 571 778 l 681 824 b 753 824 708 850 726 850 l 826 750 b 826 678 854 724 854 704 l 760 611 b 760 325 804 526 804 410 m 569 565 b 335 468 490 651 329 586 b 569 372 329 350 490 285 b 569 565 622 425 622 513 "},"¥":{"ha":938,"x_min":0,"x_max":0,"o":"m 875 986 b 904 929 915 986 925 961 l 660 533 l 739 533 b 789 483 776 533 789 521 l 789 429 b 739 381 789 392 776 381 l 586 381 l 586 321 l 739 321 b 789 272 776 321 789 310 l 789 218 b 739 168 789 181 776 168 l 589 168 l 589 57 b 532 0 589 14 575 0 l 419 0 b 364 57 376 0 364 14 l 364 168 l 213 168 b 163 218 175 168 163 181 l 163 272 b 213 321 163 307 175 321 l 365 321 l 365 381 l 213 381 b 163 429 175 381 163 394 l 163 483 b 213 533 163 521 175 533 l 293 533 l 49 929 b 76 986 28 961 38 986 l 194 986 b 268 979 231 986 256 983 b 306 936 281 974 293 960 l 481 613 l 656 936 b 693 979 668 960 681 974 b 765 986 706 983 729 986 "},"¦":{"ha":369,"x_min":0,"x_max":0,"o":"m 235 1189 b 286 1138 274 1189 286 1176 l 286 642 b 235 592 286 604 274 592 l 135 592 b 85 642 97 592 85 604 l 85 1138 b 135 1189 85 1176 97 1189 m 235 394 b 286 344 274 394 286 382 l 286 -151 b 235 -203 286 -190 274 -203 l 135 -203 b 85 -151 97 -203 85 -190 l 85 344 b 135 394 85 382 97 394 "},"§":{"ha":854,"x_min":0,"x_max":0,"o":"m 94 718 b 453 1007 94 894 219 1007 b 792 814 626 1007 731 943 b 758 733 813 774 803 751 l 669 694 b 592 724 631 676 613 683 b 453 804 565 778 518 804 b 322 717 365 804 322 775 b 467 635 322 668 368 651 b 667 586 564 618 631 601 b 807 365 760 546 807 472 b 726 190 807 292 781 233 b 814 -15 785 147 814 79 b 442 -303 814 -187 679 -303 b 78 -93 257 -303 128 -228 b 115 -17 64 -56 76 -31 l 207 17 b 283 -19 250 33 267 24 b 440 -104 304 -76 357 -104 b 588 -14 539 -104 588 -74 b 447 61 588 32 540 50 b 414 65 440 63 429 64 b 300 82 364 71 349 72 b 190 119 250 92 229 101 b 108 194 150 138 131 161 b 75 325 85 226 75 271 b 182 515 75 406 111 469 b 94 718 124 560 94 628 m 422 436 b 361 447 410 440 374 446 b 306 351 324 421 304 389 b 472 257 306 283 361 268 b 533 251 485 256 506 253 b 582 346 565 274 582 306 b 422 436 581 401 529 419 "},"¨":{"ha":610,"x_min":0,"x_max":0,"o":"m 163 1004 b 253 915 231 1004 253 982 l 253 900 b 163 813 253 835 231 813 l 153 813 b 64 900 86 813 64 833 l 64 915 b 153 1004 64 982 85 1004 m 450 1004 b 539 915 518 1004 539 982 l 539 900 b 450 813 539 833 517 813 l 440 813 b 350 900 372 813 350 835 l 350 915 b 440 1004 350 982 372 1004 "},"©":{"ha":1097,"x_min":0,"x_max":0,"o":"m 50 488 b 196 842 50 626 99 744 b 550 986 292 938 410 986 b 903 842 689 986 807 938 b 1047 488 999 744 1047 626 b 903 133 1047 347 999 229 b 550 -11 807 38 689 -11 b 196 135 411 -11 293 38 b 50 488 99 232 50 350 m 910 488 b 807 746 910 590 875 676 b 550 849 738 814 651 849 b 292 746 447 849 361 814 b 188 488 222 676 188 590 b 292 231 188 386 222 300 b 550 125 361 160 447 125 b 806 231 651 125 736 160 b 910 488 875 300 910 386 m 338 556 b 549 751 338 678 415 751 b 750 626 653 751 721 710 b 725 571 763 593 757 581 l 675 553 b 624 581 646 543 635 549 b 549 621 613 607 588 621 b 472 557 497 621 472 600 l 472 414 b 549 349 472 371 497 349 b 622 390 586 349 610 363 b 676 418 638 422 647 428 l 725 399 b 750 344 757 388 763 376 b 549 221 718 263 650 221 b 338 414 415 221 338 296 "},"ª":{"ha":493,"x_min":0,"x_max":0,"o":"m 72 858 b 247 932 110 907 168 932 b 431 758 369 932 431 874 l 431 579 b 386 513 431 540 421 528 b 244 492 354 499 307 492 b 56 624 104 492 56 536 b 247 757 56 713 107 757 b 278 756 260 757 271 757 l 278 774 b 193 785 279 807 253 828 b 139 776 178 771 160 768 l 96 797 b 72 858 58 815 51 831 m 278 653 b 239 654 268 654 256 654 b 206 629 217 654 206 646 b 239 603 206 608 213 603 l 275 606 b 278 608 276 606 278 607 "},"«":{"ha":850,"x_min":0,"x_max":0,"o":"m 433 206 b 433 143 454 185 454 164 l 368 76 b 304 76 344 54 328 54 l 47 332 b 47 396 25 356 25 372 l 311 661 b 375 661 333 682 354 682 l 436 597 b 436 536 460 571 460 560 l 271 368 m 776 206 b 776 143 797 185 797 164 l 711 76 b 647 76 689 56 668 56 l 392 332 b 392 396 365 356 365 372 l 654 661 b 718 661 675 682 697 682 l 779 597 b 779 536 803 571 803 560 l 613 368 "},"¬":{"ha":824,"x_min":0,"x_max":0,"o":"m 696 585 b 746 535 733 585 746 572 l 746 239 b 696 188 746 200 733 188 l 589 188 b 538 239 551 188 538 200 l 538 393 l 111 393 b 61 444 74 393 61 406 l 61 535 b 111 585 61 572 74 585 "},"®":{"ha":639,"x_min":0,"x_max":0,"o":"m 47 717 b 128 908 47 790 74 854 b 321 989 182 963 246 989 b 513 908 394 989 458 963 b 592 717 565 854 592 790 b 513 525 592 642 565 578 b 321 444 458 471 394 444 b 128 525 246 444 182 471 b 47 717 74 578 47 642 m 186 851 b 131 717 149 814 131 769 b 186 582 131 664 149 619 b 322 525 224 544 268 525 b 456 582 374 525 418 544 b 511 717 493 619 511 664 b 456 851 511 769 493 814 b 322 907 418 889 374 907 b 186 851 268 907 224 889 m 346 851 b 443 757 406 851 443 814 b 393 675 443 715 426 688 l 432 614 b 417 582 446 593 440 582 l 381 582 b 347 600 367 582 356 588 l 308 665 l 289 665 l 289 601 b 271 582 289 586 286 582 l 235 582 b 214 601 218 582 214 586 l 214 832 b 235 851 214 849 218 851 m 289 733 l 340 733 b 364 757 356 733 364 742 b 340 779 364 772 356 779 l 289 779 "},"¯":{"ha":489,"x_min":0,"x_max":0,"o":"m 410 981 b 458 933 449 981 458 971 l 458 888 b 410 839 458 849 449 839 l 85 839 b 36 888 46 839 36 849 l 36 933 b 85 981 36 971 50 981 "},"°":{"ha":565,"x_min":0,"x_max":0,"o":"m 525 771 b 454 600 525 704 501 647 b 283 528 407 551 350 528 b 110 599 215 528 157 551 b 39 771 63 646 39 703 b 110 943 39 839 63 897 b 283 1013 157 989 215 1013 b 456 943 351 1013 408 989 b 525 771 501 897 525 839 m 225 829 b 224 711 190 794 190 744 b 343 711 257 678 310 678 b 342 829 375 744 375 794 b 225 829 308 864 258 864 "},"±":{"ha":807,"x_min":0,"x_max":0,"o":"m 681 650 b 738 593 724 650 738 636 l 738 528 b 681 471 738 485 724 471 l 496 471 l 496 386 b 439 329 496 343 482 329 l 365 329 b 308 386 322 329 308 343 l 308 471 l 126 471 b 69 528 83 471 69 485 l 69 593 b 126 650 69 636 83 650 l 308 650 l 308 740 b 365 797 308 783 322 797 l 439 797 b 496 740 482 797 496 783 l 496 650 m 681 296 b 738 239 724 296 738 282 l 738 171 b 681 114 738 128 724 114 l 126 114 b 69 171 83 114 69 128 l 69 239 b 126 296 69 282 83 296 "},"²":{"ha":514,"x_min":0,"x_max":0,"o":"m 56 1003 b 271 1133 89 1090 161 1133 b 476 951 399 1133 476 1058 b 332 761 476 847 442 794 l 263 743 b 225 726 238 736 225 731 l 225 724 l 418 724 b 467 675 456 724 467 710 l 467 621 b 419 574 467 588 454 574 l 100 574 b 50 621 63 574 50 586 l 50 661 b 172 849 50 765 78 814 l 246 876 b 304 940 292 894 304 906 b 265 978 304 963 289 978 b 211 946 239 978 221 967 b 140 911 193 906 183 899 l 89 931 b 56 1003 50 946 40 963 "},"³":{"ha":518,"x_min":0,"x_max":0,"o":"m 60 1003 b 281 1136 92 1092 165 1136 b 481 976 407 1136 481 1076 b 425 864 481 919 468 892 b 497 725 474 838 497 792 b 281 565 497 624 424 565 b 57 694 161 565 86 608 b 82 763 44 729 53 753 l 132 779 b 203 747 171 792 186 786 b 278 710 215 722 240 710 b 331 743 313 710 331 721 b 289 779 331 767 317 779 l 249 779 b 203 826 210 779 203 786 l 203 875 b 253 925 203 918 208 925 l 279 925 b 322 958 308 925 322 936 b 279 993 322 982 308 993 b 207 954 243 993 219 981 b 126 919 190 911 175 903 l 90 933 b 60 1003 58 946 47 969 "},"´":{"ha":357,"x_min":0,"x_max":0,"o":"m 217 1018 b 308 1015 257 1040 288 1039 l 360 956 b 353 900 383 926 385 913 l 110 811 b 47 815 78 800 57 801 l 19 849 b 22 901 -3 875 -1 889 "},"µ":{"ha":786,"x_min":0,"x_max":0,"o":"m 664 722 b 714 671 701 722 714 710 l 714 110 b 663 31 714 67 703 49 b 432 -21 588 -4 511 -21 b 285 10 371 -21 322 -11 l 285 -254 b 233 -306 285 -293 272 -306 l 126 -306 b 75 -254 88 -306 75 -293 l 75 671 b 126 722 75 710 88 722 l 233 722 b 285 671 272 722 285 710 l 285 274 b 403 169 285 204 324 169 b 494 181 432 169 463 174 b 504 193 501 182 504 186 l 504 671 b 556 722 504 710 517 722 "},"¶":{"ha":906,"x_min":0,"x_max":0,"o":"m 768 986 b 819 935 807 986 819 974 l 819 -72 b 768 -124 819 -111 807 -124 l 679 -124 b 629 -72 642 -124 629 -111 l 629 781 l 550 781 l 550 -72 b 500 -124 550 -111 538 -124 l 411 -124 b 360 -72 372 -124 360 -111 l 360 317 b 126 413 264 319 186 351 b 36 651 67 474 36 553 b 129 894 36 751 67 832 b 369 986 190 956 271 986 "},"·":{"ha":378,"x_min":0,"x_max":0,"o":"m 200 528 b 306 422 282 528 306 504 l 306 396 b 200 292 306 317 279 292 l 176 292 b 72 396 97 292 72 317 l 72 422 b 176 528 72 501 97 528 "},"¸":{"ha":349,"x_min":0,"x_max":0,"o":"m 217 -69 l 229 -69 b 343 -203 303 -69 353 -126 b 144 -340 333 -294 267 -340 b 46 -325 101 -340 68 -335 b 17 -282 26 -317 17 -303 l 15 -231 b 46 -210 15 -207 25 -200 b 121 -229 69 -222 94 -229 b 175 -192 157 -229 175 -217 b 122 -161 175 -172 157 -162 l 94 -161 b 74 -122 69 -161 63 -149 l 128 0 l 244 0 "},"¹":{"ha":401,"x_min":0,"x_max":0,"o":"m 308 1125 b 367 1068 353 1125 367 1111 l 367 632 b 310 576 367 589 353 576 l 254 576 b 197 632 211 576 197 589 l 197 917 l 154 893 b 74 913 121 875 94 881 l 49 954 b 72 1031 31 986 39 1011 l 208 1108 b 274 1125 226 1119 249 1125 "},"º":{"ha":497,"x_min":0,"x_max":0,"o":"m 54 758 b 249 932 54 868 125 932 b 443 758 375 932 443 868 l 443 665 b 249 493 443 556 375 493 b 54 665 122 493 54 558 m 288 764 b 249 794 288 785 275 794 b 211 764 224 794 211 785 l 211 661 b 249 631 211 640 224 631 b 288 661 275 631 288 640 "},"»":{"ha":850,"x_min":0,"x_max":0,"o":"m 424 536 b 424 597 400 560 400 571 l 485 661 b 549 661 507 683 528 683 l 813 396 b 813 332 835 372 835 358 l 556 76 b 493 76 532 54 517 54 l 426 143 b 426 206 406 164 406 185 l 589 368 m 81 536 b 81 597 57 560 57 574 l 142 661 b 206 661 163 682 185 682 l 468 396 b 468 332 494 372 494 356 l 213 76 b 149 76 192 56 171 56 l 83 143 b 83 206 63 164 63 185 l 247 368 "},"¼":{"ha":1146,"x_min":0,"x_max":0,"o":"m 1004 986 b 1031 932 1043 986 1053 961 l 382 50 b 340 8 367 28 353 14 b 272 0 328 3 306 0 l 200 0 b 171 57 160 0 149 25 l 821 939 b 925 986 850 979 864 986 m 329 982 b 388 925 375 982 388 969 l 388 489 b 331 433 388 446 374 433 l 275 433 b 219 489 232 433 219 449 l 219 775 l 175 750 b 96 769 142 731 115 738 l 71 813 b 94 888 53 843 61 868 l 231 967 b 294 982 247 976 268 982 m 1017 549 b 1067 499 1060 549 1067 542 l 1067 239 l 1082 239 b 1128 196 1121 239 1128 231 l 1128 144 b 1082 101 1128 110 1121 101 l 1067 101 l 1067 46 b 1022 0 1067 11 1057 0 l 953 0 b 910 46 919 0 910 11 l 910 101 l 688 101 b 639 150 649 101 639 113 l 639 190 b 656 243 639 213 644 231 l 879 519 b 949 549 900 543 911 549 m 821 239 l 910 239 l 910 347 "},"½":{"ha":1174,"x_min":0,"x_max":0,"o":"m 329 992 b 388 935 374 992 388 978 l 388 499 b 331 443 388 456 374 443 l 275 443 b 219 499 232 443 219 456 l 219 783 l 175 760 b 96 779 142 740 115 747 l 71 821 b 94 897 53 853 61 878 l 231 975 b 294 992 249 986 271 992 m 988 986 b 1015 932 1025 986 1036 961 l 367 50 b 324 8 350 28 336 14 b 256 0 311 3 289 0 l 183 0 b 156 57 144 0 133 25 l 806 939 b 908 986 835 979 847 986 m 729 429 b 944 560 764 517 836 560 b 1150 378 1072 560 1150 485 b 1007 188 1150 274 1117 221 l 938 169 b 900 151 913 163 900 157 l 900 150 l 1093 150 b 1140 101 1128 150 1140 136 l 1140 47 b 1093 0 1140 13 1131 0 l 774 0 b 724 47 739 0 724 13 l 724 88 b 847 275 724 192 751 238 l 921 303 b 978 367 964 319 978 332 b 940 404 978 389 963 404 b 885 372 914 404 896 393 b 815 338 867 332 856 325 l 763 357 b 729 429 725 372 714 389 "},"¾":{"ha":1182,"x_min":0,"x_max":0,"o":"m 60 872 b 281 1006 92 961 165 1006 b 479 846 407 1006 479 946 b 425 733 479 789 468 761 b 496 593 472 707 496 661 b 281 435 496 492 424 435 b 57 565 163 435 88 478 b 82 632 44 603 50 621 l 132 650 b 203 618 171 663 186 657 b 278 579 215 592 240 579 b 331 613 313 579 331 590 b 288 650 331 638 317 650 l 249 650 b 203 696 210 650 203 657 l 203 744 b 253 794 203 789 208 794 l 279 794 b 322 829 308 794 322 806 b 279 864 322 853 308 864 b 207 824 243 864 219 850 b 126 789 190 781 175 772 l 90 804 b 60 872 58 817 47 840 m 1033 986 b 1060 932 1072 986 1082 961 l 411 50 b 369 8 396 28 382 14 b 301 0 357 3 335 0 l 228 0 b 200 57 189 0 178 25 l 850 939 b 954 986 879 979 893 986 m 1042 549 b 1092 499 1085 549 1092 542 l 1092 239 l 1107 239 b 1153 196 1146 239 1153 231 l 1153 144 b 1107 101 1153 110 1146 101 l 1092 101 l 1092 46 b 1047 0 1092 11 1082 0 l 978 0 b 935 46 944 0 935 11 l 935 101 l 713 101 b 664 150 674 101 664 113 l 664 190 b 681 243 664 213 669 231 l 904 519 b 974 549 925 543 936 549 m 935 239 l 935 347 l 846 239 "},"¿":{"ha":797,"x_min":0,"x_max":0,"o":"m 419 499 b 315 603 340 499 315 524 l 315 626 b 419 732 315 706 340 732 l 449 732 b 553 626 528 732 553 706 l 553 603 b 449 499 553 524 528 499 m 763 -72 b 389 -306 700 -228 576 -306 b 131 -225 279 -306 193 -279 b 36 -18 68 -171 36 -101 b 124 197 42 88 68 150 b 226 268 163 232 181 242 b 274 296 250 281 265 290 b 340 385 318 322 340 353 b 394 439 340 425 354 439 l 476 439 b 531 385 517 439 531 425 b 407 161 531 268 485 210 b 336 118 403 158 343 122 b 307 97 329 114 319 107 b 260 -10 272 67 265 42 b 392 -117 260 -75 304 -117 b 560 -1 481 -117 525 -81 b 632 33 581 39 593 46 l 726 0 b 763 -72 767 -15 778 -33 "},"À":{"ha":933,"x_min":0,"x_max":0,"o":"m 374 1260 b 465 1263 394 1285 425 1286 l 661 1147 b 664 1094 685 1135 686 1121 l 638 1060 b 575 1057 628 1047 607 1046 l 331 1143 b 324 1199 299 1156 300 1169 m 942 56 b 904 0 956 18 943 0 l 800 0 b 697 51 732 0 710 11 l 654 182 l 311 182 l 267 51 b 165 0 251 11 233 0 l 69 0 b 32 56 31 0 18 18 l 364 939 b 433 986 376 976 393 986 l 540 986 b 610 942 581 986 597 976 m 524 581 b 490 753 506 640 492 715 l 489 779 l 475 779 b 443 582 476 714 465 647 l 371 365 l 596 365 "},"Á":{"ha":933,"x_min":0,"x_max":0,"o":"m 514 1263 b 606 1258 554 1285 585 1283 l 657 1199 b 650 1143 681 1169 682 1156 l 406 1057 b 343 1060 374 1046 353 1047 l 315 1094 b 318 1147 294 1121 294 1135 m 942 56 b 904 0 956 18 943 0 l 800 0 b 697 51 732 0 710 11 l 654 182 l 311 182 l 267 51 b 165 0 251 11 233 0 l 69 0 b 32 56 31 0 18 18 l 364 939 b 433 986 376 976 393 986 l 540 986 b 610 942 581 986 597 976 m 524 581 b 490 753 506 640 492 715 l 489 779 l 475 779 b 443 582 476 714 465 647 l 371 365 l 596 365 "},"Â":{"ha":933,"x_min":0,"x_max":0,"o":"m 506 1269 b 599 1228 550 1269 560 1267 l 732 1093 b 708 1051 754 1072 749 1051 l 624 1051 b 540 1079 575 1051 561 1056 l 488 1140 l 431 1079 b 350 1051 407 1053 396 1051 l 271 1051 b 247 1093 231 1051 225 1072 l 381 1228 b 479 1269 418 1265 428 1269 m 942 56 b 904 0 956 18 943 0 l 800 0 b 697 51 732 0 710 11 l 654 182 l 311 182 l 267 51 b 165 0 251 11 233 0 l 69 0 b 32 56 31 0 18 18 l 364 939 b 433 986 376 976 393 986 l 540 986 b 610 942 581 986 597 976 m 524 581 b 490 753 506 640 492 715 l 489 779 l 475 779 b 443 582 476 714 465 647 l 371 365 l 596 365 "},"Ã":{"ha":933,"x_min":0,"x_max":0,"o":"m 671 1256 b 701 1224 692 1256 701 1244 b 576 1060 701 1103 664 1060 b 474 1094 542 1060 508 1071 b 403 1129 439 1118 415 1129 b 379 1089 388 1129 379 1115 b 351 1060 379 1069 369 1060 l 289 1060 b 257 1090 268 1060 257 1069 b 381 1256 257 1211 299 1256 b 488 1221 417 1256 453 1244 b 558 1186 522 1197 546 1186 b 581 1225 574 1186 581 1199 b 610 1256 581 1246 590 1256 m 942 56 b 904 0 956 18 943 0 l 800 0 b 697 51 732 0 710 11 l 654 182 l 311 182 l 267 51 b 165 0 251 11 233 0 l 69 0 b 32 56 31 0 18 18 l 364 939 b 433 986 376 976 393 986 l 540 986 b 610 942 581 986 597 976 m 524 581 b 490 753 506 640 492 715 l 489 779 l 475 779 b 443 582 476 714 465 647 l 371 365 l 596 365 "},"Ä":{"ha":933,"x_min":0,"x_max":0,"o":"m 349 1253 b 439 1165 417 1253 439 1232 l 439 1150 b 349 1061 439 1083 415 1061 l 339 1061 b 250 1150 272 1061 250 1083 l 250 1165 b 339 1253 250 1232 271 1253 m 635 1253 b 724 1165 703 1253 724 1232 l 724 1150 b 635 1061 724 1083 701 1061 l 625 1061 b 536 1150 558 1061 536 1085 l 536 1165 b 625 1253 536 1232 558 1253 m 942 56 b 904 0 956 18 943 0 l 800 0 b 697 51 732 0 710 11 l 654 182 l 311 182 l 267 51 b 165 0 251 11 233 0 l 69 0 b 32 56 31 0 18 18 l 364 939 b 433 986 376 976 393 986 l 540 986 b 610 942 581 986 597 976 m 524 581 b 490 753 506 640 492 715 l 489 779 l 475 779 b 443 582 476 714 465 647 l 371 365 l 596 365 "},"Å":{"ha":933,"x_min":0,"x_max":0,"o":"m 303 1056 b 490 1235 303 1161 379 1235 b 674 1056 597 1235 674 1161 b 615 924 674 999 654 956 l 942 56 b 904 0 956 18 943 0 l 800 0 b 697 51 732 0 710 11 l 654 182 l 311 182 l 267 51 b 165 0 251 11 233 0 l 69 0 b 32 56 31 0 18 18 l 360 926 b 303 1056 322 958 303 1001 m 553 1054 b 490 1119 553 1093 528 1119 b 422 1054 450 1119 422 1093 b 490 992 422 1017 450 992 b 553 1054 528 992 553 1019 m 524 581 b 490 750 506 640 492 715 l 489 778 l 475 778 b 443 582 475 713 464 647 l 371 365 l 596 365 "},"Æ":{"ha":1222,"x_min":0,"x_max":0,"o":"m 1150 207 b 1206 150 1190 207 1206 193 l 1206 57 b 1150 0 1206 14 1193 0 l 675 0 b 618 57 632 0 618 14 l 618 179 l 346 179 l 268 50 b 164 0 246 11 231 0 l 60 0 b 24 56 19 0 8 18 l 589 939 b 658 986 613 978 624 986 l 1136 986 b 1193 929 1179 986 1193 972 l 1193 836 b 1136 781 1193 793 1179 781 l 833 781 l 833 601 l 1067 601 b 1124 546 1110 601 1124 589 l 1124 453 b 1067 396 1124 410 1110 396 l 833 396 l 833 207 m 618 624 l 457 358 l 618 358 "},"Ç":{"ha":894,"x_min":0,"x_max":0,"o":"m 822 285 b 857 213 860 272 871 247 b 522 -19 806 72 693 -6 l 503 -69 l 514 -69 b 629 -203 588 -69 639 -126 b 431 -340 619 -294 553 -340 b 331 -325 386 -340 353 -335 b 301 -282 311 -317 301 -303 l 300 -231 b 331 -210 300 -207 310 -200 b 407 -229 354 -222 381 -229 b 461 -192 443 -229 461 -217 b 408 -161 461 -172 443 -162 l 379 -161 b 358 -122 354 -161 347 -149 l 404 -18 b 58 353 183 4 58 140 l 58 633 b 468 1007 58 867 208 1007 b 857 774 671 1007 800 929 b 822 701 871 739 860 714 l 715 664 b 643 699 675 651 658 658 b 468 800 617 767 558 800 b 285 635 346 800 285 744 l 285 351 b 468 186 285 242 346 186 b 643 288 558 186 617 219 b 715 322 658 328 676 338 "},"È":{"ha":811,"x_min":0,"x_max":0,"o":"m 308 1260 b 400 1263 329 1285 360 1286 l 596 1147 b 599 1094 619 1135 621 1121 l 572 1060 b 510 1057 563 1047 542 1046 l 265 1143 b 258 1199 233 1156 235 1169 m 700 986 b 757 929 743 986 757 972 l 757 836 b 700 781 757 793 743 781 l 311 781 l 311 601 l 631 601 b 688 546 674 601 688 589 l 688 453 b 631 396 688 410 674 396 l 311 396 l 311 207 l 714 207 b 771 150 754 207 771 190 l 771 57 b 714 0 771 14 757 0 l 142 0 b 85 57 99 0 85 14 l 85 929 b 142 986 85 972 99 986 "},"É":{"ha":811,"x_min":0,"x_max":0,"o":"m 450 1263 b 542 1258 490 1285 521 1283 l 592 1199 b 585 1143 615 1169 617 1156 l 340 1057 b 278 1060 308 1046 288 1047 l 250 1094 b 254 1147 229 1121 231 1135 m 700 986 b 757 929 743 986 757 972 l 757 836 b 700 781 757 793 743 781 l 311 781 l 311 601 l 631 601 b 688 546 674 601 688 589 l 688 453 b 631 396 688 410 674 396 l 311 396 l 311 207 l 714 207 b 771 150 754 207 771 190 l 771 57 b 714 0 771 14 757 0 l 142 0 b 85 57 99 0 85 14 l 85 929 b 142 986 85 972 99 986 "},"Ê":{"ha":811,"x_min":0,"x_max":0,"o":"m 442 1269 b 533 1228 485 1269 494 1267 l 667 1093 b 643 1051 689 1072 683 1051 l 558 1051 b 475 1079 510 1051 496 1056 l 422 1140 l 365 1079 b 285 1051 342 1053 331 1051 l 206 1051 b 182 1093 165 1051 160 1072 l 315 1228 b 414 1269 353 1265 363 1269 m 700 986 b 757 929 743 986 757 972 l 757 836 b 700 781 757 793 743 781 l 311 781 l 311 601 l 631 601 b 688 546 674 601 688 589 l 688 453 b 631 396 688 410 674 396 l 311 396 l 311 207 l 714 207 b 771 150 754 207 771 190 l 771 57 b 714 0 771 14 757 0 l 142 0 b 85 57 99 0 85 14 l 85 929 b 142 986 85 972 99 986 "},"Ë":{"ha":811,"x_min":0,"x_max":0,"o":"m 283 1253 b 374 1165 351 1253 374 1232 l 374 1150 b 283 1061 374 1083 350 1061 l 274 1061 b 185 1150 207 1061 185 1083 l 185 1165 b 274 1253 185 1232 206 1253 m 569 1253 b 658 1165 638 1253 658 1232 l 658 1150 b 569 1061 658 1083 636 1061 l 560 1061 b 471 1150 493 1061 471 1085 l 471 1165 b 560 1253 471 1232 493 1253 m 700 986 b 757 929 743 986 757 972 l 757 836 b 700 781 757 793 743 781 l 311 781 l 311 601 l 631 601 b 688 546 674 601 688 589 l 688 453 b 631 396 688 410 674 396 l 311 396 l 311 207 l 714 207 b 771 150 754 207 771 190 l 771 57 b 714 0 771 14 757 0 l 142 0 b 85 57 99 0 85 14 l 85 929 b 142 986 85 972 99 986 "},"Ì":{"ha":396,"x_min":0,"x_max":0,"o":"m 85 1260 b 176 1263 106 1285 136 1286 l 372 1147 b 376 1094 396 1135 397 1121 l 349 1060 b 286 1057 339 1047 318 1046 l 42 1143 b 35 1199 10 1156 11 1169 m 85 931 b 140 986 85 971 97 986 l 256 986 b 311 931 296 986 311 971 l 311 56 b 256 0 311 15 296 0 l 140 0 b 85 56 97 0 85 15 "},"Í":{"ha":396,"x_min":0,"x_max":0,"o":"m 226 1263 b 318 1258 267 1285 297 1283 l 368 1199 b 361 1143 392 1169 393 1156 l 117 1057 b 54 1060 85 1046 64 1047 l 28 1094 b 31 1147 6 1121 7 1135 m 85 931 b 140 986 85 971 97 986 l 256 986 b 311 931 296 986 311 971 l 311 56 b 256 0 311 15 296 0 l 140 0 b 85 56 97 0 85 15 "},"Î":{"ha":396,"x_min":0,"x_max":0,"o":"m 224 1269 b 315 1228 267 1269 276 1267 l 449 1093 b 425 1051 471 1072 465 1051 l 340 1051 b 257 1079 294 1051 278 1056 l 204 1140 l 147 1079 b 67 1051 124 1053 113 1051 l -12 1051 b -36 1093 -53 1051 -58 1072 l 97 1228 b 142 1264 117 1247 132 1260 b 196 1269 151 1268 169 1269 m 90 931 b 146 986 90 971 103 986 l 261 986 b 317 931 301 986 317 971 l 317 56 b 261 0 317 15 301 0 l 146 0 b 90 56 103 0 90 15 "},"Ï":{"ha":396,"x_min":0,"x_max":0,"o":"m 60 1253 b 150 1165 128 1253 150 1232 l 150 1150 b 60 1061 150 1083 128 1061 l 50 1061 b -39 1150 -17 1061 -39 1083 l -39 1165 b 50 1253 -39 1232 -18 1253 m 347 1253 b 435 1165 415 1253 435 1232 l 435 1150 b 347 1061 435 1083 414 1061 l 338 1061 b 247 1150 269 1061 247 1083 l 247 1165 b 338 1253 247 1232 269 1253 m 85 931 b 140 986 85 971 97 986 l 256 986 b 311 931 296 986 311 971 l 311 56 b 256 0 311 15 296 0 l 140 0 b 85 56 97 0 85 15 "},"Ð":{"ha":964,"x_min":0,"x_max":0,"o":"m 496 986 b 906 613 756 986 906 846 l 906 374 b 496 0 906 140 756 0 l 171 0 b 114 57 128 0 114 14 l 114 436 l 43 436 b 11 472 17 436 11 443 l 11 546 b 43 581 11 569 22 581 l 114 581 l 114 929 b 171 986 114 972 128 986 m 681 613 b 494 781 681 725 618 781 l 339 781 l 339 581 l 488 581 b 519 546 511 581 519 572 l 519 472 b 488 436 519 443 514 436 l 339 436 l 339 207 l 494 207 b 681 374 618 207 681 263 "},"Ñ":{"ha":971,"x_min":0,"x_max":0,"o":"m 671 1256 b 701 1224 692 1256 701 1244 b 576 1060 701 1103 664 1060 b 475 1094 543 1060 510 1071 b 403 1129 440 1118 415 1129 b 381 1089 388 1129 381 1115 b 351 1060 381 1069 371 1060 l 289 1060 b 258 1090 268 1060 258 1069 b 381 1256 258 1211 299 1256 b 489 1221 418 1256 454 1244 b 558 1186 524 1197 546 1186 b 582 1225 574 1186 582 1199 b 610 1256 582 1246 592 1256 m 829 986 b 885 929 872 986 885 972 l 885 57 b 829 0 885 14 872 0 l 717 0 b 661 26 690 0 672 8 l 389 440 b 272 700 340 513 301 599 l 263 700 b 301 389 289 575 301 471 l 301 57 b 244 0 301 14 288 0 l 142 0 b 85 57 99 0 85 14 l 85 929 b 142 986 85 972 99 986 l 257 986 b 311 960 281 986 299 978 l 589 539 b 668 388 622 489 653 424 b 703 290 683 351 701 294 l 714 290 b 669 597 685 382 669 485 l 669 929 b 726 986 669 972 683 986 "},"Ò":{"ha":938,"x_min":0,"x_max":0,"o":"m 356 1274 b 447 1276 376 1299 407 1300 l 643 1161 b 646 1108 667 1149 668 1135 l 619 1074 b 556 1071 610 1061 588 1060 l 313 1157 b 306 1213 281 1169 282 1183 m 58 633 b 468 1007 58 867 208 1007 b 879 633 729 1007 879 867 l 879 353 b 468 -21 879 119 729 -21 b 58 353 208 -21 58 119 m 653 638 b 468 800 653 746 592 800 b 285 638 350 800 285 744 l 285 349 b 468 186 285 242 350 186 b 653 349 592 186 653 240 "},"Ó":{"ha":938,"x_min":0,"x_max":0,"o":"m 496 1276 b 588 1272 536 1299 567 1297 l 639 1213 b 631 1157 663 1183 664 1168 l 388 1071 b 325 1074 356 1060 335 1061 l 297 1108 b 300 1161 275 1135 276 1149 m 58 633 b 468 1007 58 867 208 1007 b 879 633 729 1007 879 867 l 879 353 b 468 -21 879 119 729 -21 b 58 353 208 -21 58 119 m 653 638 b 468 800 653 746 592 800 b 285 638 350 800 285 744 l 285 349 b 468 186 285 242 350 186 b 653 349 592 186 653 240 "},"Ô":{"ha":938,"x_min":0,"x_max":0,"o":"m 488 1283 b 579 1242 532 1283 542 1281 l 713 1107 b 690 1065 736 1086 731 1065 l 604 1065 b 521 1093 558 1065 542 1069 l 468 1154 l 413 1093 b 332 1065 389 1067 378 1065 l 251 1065 b 229 1107 213 1065 207 1086 l 363 1242 b 461 1283 401 1282 407 1283 m 58 633 b 468 1007 58 867 208 1007 b 879 633 729 1007 879 867 l 879 353 b 468 -21 879 119 729 -21 b 58 353 208 -21 58 119 m 653 638 b 468 800 653 746 592 800 b 285 638 350 800 285 744 l 285 349 b 468 186 285 242 350 186 b 653 349 592 186 653 240 "},"Õ":{"ha":938,"x_min":0,"x_max":0,"o":"m 653 1269 b 683 1238 674 1269 683 1258 b 558 1074 683 1117 646 1074 b 456 1108 524 1074 490 1085 b 383 1143 421 1132 397 1143 b 361 1103 368 1143 361 1129 b 333 1074 361 1083 351 1074 l 271 1074 b 239 1104 250 1074 239 1083 b 363 1269 239 1225 281 1269 b 469 1235 399 1269 435 1258 b 540 1200 504 1211 528 1200 b 563 1239 556 1200 563 1213 b 592 1269 563 1260 572 1269 m 58 633 b 468 1007 58 867 208 1007 b 879 633 729 1007 879 867 l 879 353 b 468 -21 879 119 729 -21 b 58 353 208 -21 58 119 m 653 638 b 468 800 653 746 592 800 b 285 638 350 800 285 744 l 285 349 b 468 186 285 242 350 186 b 653 349 592 186 653 240 "},"Ö":{"ha":938,"x_min":0,"x_max":0,"o":"m 331 1267 b 419 1179 399 1267 419 1246 l 419 1164 b 331 1075 419 1097 397 1075 l 319 1075 b 232 1164 253 1075 232 1097 l 232 1179 b 319 1267 232 1246 253 1267 m 617 1267 b 706 1179 685 1267 706 1246 l 706 1164 b 617 1075 706 1097 683 1075 l 607 1075 b 517 1164 539 1075 517 1097 l 517 1179 b 607 1267 517 1246 539 1267 m 58 633 b 468 1007 58 867 208 1007 b 879 633 729 1007 879 867 l 879 353 b 468 -21 879 119 729 -21 b 58 353 208 -21 58 119 m 653 638 b 468 800 653 746 592 800 b 285 638 350 800 285 744 l 285 349 b 468 186 285 242 350 186 b 653 349 592 186 653 240 "},"×":{"ha":724,"x_min":0,"x_max":0,"o":"m 663 300 b 663 224 692 271 692 251 l 607 168 b 531 168 579 139 563 139 l 379 319 l 229 169 b 153 169 200 140 181 140 l 97 225 b 97 301 69 251 69 269 l 247 451 l 97 601 b 97 678 71 628 71 654 l 153 733 b 229 733 181 763 200 763 l 379 583 l 531 735 b 607 735 563 764 579 764 l 663 679 b 663 603 692 651 692 632 l 511 451 "},"Ø":{"ha":938,"x_min":0,"x_max":0,"o":"m 903 1047 b 913 1028 918 1047 921 1040 l 815 878 b 894 633 868 814 894 732 l 894 353 b 483 -21 894 121 746 -19 b 265 21 399 -22 326 -8 l 228 -37 b 189 -54 217 -53 213 -54 l 75 -54 b 67 -33 60 -54 57 -47 l 154 104 b 74 353 100 168 74 251 l 74 633 b 483 1007 74 867 224 1007 b 707 961 571 1007 646 992 l 750 1029 b 786 1047 761 1046 765 1047 m 592 778 b 483 800 563 793 526 800 b 300 638 365 800 300 744 l 300 369 b 303 328 300 351 301 338 m 381 206 b 483 186 407 193 440 186 b 668 349 607 186 668 240 l 668 615 b 667 650 668 631 668 643 "},"Ù":{"ha":960,"x_min":0,"x_max":0,"o":"m 367 1260 b 458 1263 388 1285 418 1286 l 654 1147 b 657 1094 678 1135 679 1121 l 631 1060 b 567 1057 621 1047 599 1046 l 324 1143 b 317 1199 290 1154 293 1169 m 303 342 b 479 185 303 240 364 185 b 656 342 597 185 656 238 l 656 929 b 713 986 656 972 669 986 l 825 986 b 882 929 868 986 882 972 l 882 347 b 479 -21 882 119 739 -21 b 78 347 222 -21 78 119 l 78 929 b 135 986 78 972 92 986 l 247 986 b 303 929 290 986 303 972 "},"Ú":{"ha":960,"x_min":0,"x_max":0,"o":"m 507 1263 b 599 1258 547 1285 578 1283 l 650 1199 b 642 1143 674 1169 675 1154 l 399 1057 b 335 1060 367 1046 346 1047 l 308 1094 b 311 1147 286 1121 288 1135 m 303 342 b 479 185 303 240 364 185 b 656 342 597 185 656 238 l 656 929 b 713 986 656 972 669 986 l 825 986 b 882 929 868 986 882 972 l 882 347 b 479 -21 882 119 739 -21 b 78 347 222 -21 78 119 l 78 929 b 135 986 78 972 92 986 l 247 986 b 303 929 290 986 303 972 "},"Û":{"ha":960,"x_min":0,"x_max":0,"o":"m 499 1269 b 590 1228 543 1269 553 1267 l 724 1093 b 701 1051 747 1072 742 1051 l 615 1051 b 532 1079 569 1051 553 1056 l 479 1140 l 424 1079 b 342 1051 400 1053 388 1051 l 263 1051 b 240 1093 224 1051 218 1072 l 374 1228 b 472 1269 413 1268 418 1269 m 303 342 b 479 185 303 240 364 185 b 656 342 597 185 656 238 l 656 929 b 713 986 656 972 669 986 l 825 986 b 882 929 868 986 882 972 l 882 347 b 479 -21 882 119 739 -21 b 78 347 222 -21 78 119 l 78 929 b 135 986 78 972 92 986 l 247 986 b 303 929 290 986 303 972 "},"Ü":{"ha":960,"x_min":0,"x_max":0,"o":"m 342 1253 b 431 1165 408 1253 431 1232 l 431 1150 b 342 1061 431 1085 408 1061 l 331 1061 b 243 1150 264 1061 243 1083 l 243 1165 b 331 1253 243 1232 264 1253 m 628 1253 b 717 1165 696 1253 717 1232 l 717 1150 b 628 1061 717 1083 694 1061 l 618 1061 b 528 1150 550 1061 528 1083 l 528 1165 b 618 1253 528 1232 550 1253 m 303 342 b 479 185 303 240 364 185 b 656 342 597 185 656 238 l 656 929 b 713 986 656 972 669 986 l 825 986 b 882 929 868 986 882 972 l 882 347 b 479 -21 882 119 739 -21 b 78 347 222 -21 78 119 l 78 929 b 135 986 78 972 92 986 l 247 986 b 303 929 290 986 303 972 "},"Ý":{"ha":914,"x_min":0,"x_max":0,"o":"m 496 1263 b 588 1258 536 1285 567 1283 l 638 1199 b 631 1143 661 1169 663 1156 l 386 1057 b 324 1060 354 1046 333 1047 l 296 1094 b 300 1147 275 1121 276 1135 m 874 986 b 903 929 914 986 924 961 l 576 383 l 576 57 b 519 0 576 14 563 0 l 407 0 b 350 57 364 0 350 14 l 350 386 l 24 929 b 53 986 3 961 13 986 l 182 986 b 256 979 218 986 243 983 b 292 936 268 974 279 960 l 465 613 l 642 936 b 681 979 654 960 668 974 b 753 986 693 983 717 986 "},"Þ":{"ha":882,"x_min":0,"x_max":0,"o":"m 499 847 b 756 754 606 847 692 817 b 851 499 819 692 851 606 b 756 246 851 392 819 307 b 499 153 692 183 606 153 l 310 153 l 310 57 b 254 0 310 14 297 0 l 142 0 b 85 57 99 0 85 14 l 85 929 b 142 986 85 972 99 986 l 254 986 b 310 929 297 986 310 972 l 310 847 m 474 358 b 617 499 561 358 617 417 b 474 640 617 581 561 640 l 310 640 l 310 358 "},"ß":{"ha":783,"x_min":0,"x_max":0,"o":"m 71 733 b 383 1042 71 918 185 1042 b 706 756 593 1042 706 935 b 610 546 706 660 674 590 l 610 540 b 743 288 699 503 743 418 b 436 0 743 103 629 0 l 379 0 b 324 57 336 0 324 14 l 324 150 b 379 207 324 193 339 207 l 410 207 b 514 315 479 207 514 243 b 410 426 514 386 476 426 l 379 426 b 324 483 339 426 324 440 l 324 571 b 378 628 324 614 338 628 l 392 628 b 485 731 449 628 485 665 b 382 836 485 799 447 836 b 281 731 317 836 281 793 l 281 57 b 224 0 281 14 267 0 l 128 0 b 71 57 85 0 71 14 "},"à":{"ha":728,"x_min":0,"x_max":0,"o":"m 247 1015 b 339 1018 268 1039 299 1040 l 533 901 b 536 849 557 889 558 875 l 510 815 b 446 811 499 801 478 800 l 203 900 b 196 956 171 913 172 926 m 63 599 b 360 743 114 694 213 743 b 669 450 567 743 669 646 l 669 97 b 618 17 669 49 658 33 b 356 -21 563 -8 475 -21 b 107 35 235 -21 153 -3 b 38 208 61 72 38 129 b 361 436 38 379 128 436 b 460 433 397 436 431 435 l 460 464 b 353 567 460 532 424 567 b 238 515 301 567 264 550 b 167 493 214 483 206 478 l 90 525 b 63 599 56 540 46 564 m 460 274 b 406 275 451 274 433 274 b 343 276 378 276 357 276 b 247 210 269 276 247 253 b 340 142 247 165 268 142 b 450 147 389 142 426 143 b 460 157 457 149 460 153 "},"á":{"ha":728,"x_min":0,"x_max":0,"o":"m 386 1018 b 478 1015 426 1040 457 1039 l 529 956 b 522 900 553 926 554 913 l 279 811 b 215 815 247 800 226 801 l 188 849 b 190 901 167 875 167 889 m 63 599 b 360 743 114 694 213 743 b 669 450 567 743 669 646 l 669 97 b 618 17 669 49 658 33 b 356 -21 563 -8 475 -21 b 107 35 235 -21 153 -3 b 38 208 61 72 38 129 b 361 436 38 379 128 436 b 460 433 397 436 431 435 l 460 464 b 353 567 460 532 424 567 b 238 515 301 567 264 550 b 167 493 214 483 206 478 l 90 525 b 63 599 56 540 46 564 m 460 274 b 406 275 451 274 433 274 b 343 276 378 276 357 276 b 247 210 269 276 247 253 b 340 142 247 165 268 142 b 450 147 389 142 426 143 b 460 157 457 149 460 153 "},"â":{"ha":728,"x_min":0,"x_max":0,"o":"m 379 1026 b 471 983 422 1026 432 1022 l 604 850 b 581 807 626 828 621 807 l 496 807 b 413 835 447 807 433 811 l 360 896 l 303 836 b 222 807 279 810 268 807 l 144 807 b 122 850 104 807 99 828 l 254 983 b 354 1026 294 1024 300 1026 m 63 599 b 360 743 114 694 213 743 b 669 450 567 743 669 646 l 669 97 b 618 17 669 49 658 33 b 356 -21 563 -8 475 -21 b 107 35 235 -21 153 -3 b 38 208 61 72 38 129 b 361 436 38 379 128 436 b 460 433 397 436 431 435 l 460 464 b 353 567 460 532 424 567 b 238 515 301 567 264 550 b 167 493 214 483 206 478 l 90 525 b 63 599 56 540 46 564 m 460 274 b 406 275 451 274 433 274 b 343 276 378 276 357 276 b 247 210 269 276 247 253 b 340 142 247 165 268 142 b 450 147 389 142 426 143 b 460 157 457 149 460 153 "},"ã":{"ha":728,"x_min":0,"x_max":0,"o":"m 543 1015 b 574 985 564 1015 574 1006 b 449 819 574 863 536 819 b 346 854 414 819 381 831 b 275 889 311 878 288 889 b 251 850 260 889 251 876 b 224 819 251 829 242 819 l 161 819 b 131 851 140 819 131 831 b 253 1015 131 972 171 1015 b 360 981 289 1015 325 1004 b 431 946 394 957 418 946 b 453 986 446 946 453 960 b 482 1015 453 1006 463 1015 m 63 599 b 360 743 114 694 213 743 b 669 450 567 743 669 646 l 669 97 b 618 17 669 49 658 33 b 356 -21 563 -8 475 -21 b 107 35 235 -21 153 -3 b 38 208 61 72 38 129 b 361 436 38 379 128 436 b 460 433 397 436 431 435 l 460 464 b 353 567 460 532 424 567 b 238 515 301 567 264 550 b 167 493 214 483 206 478 l 90 525 b 63 599 56 540 46 564 m 460 274 b 406 275 451 274 433 274 b 343 276 378 276 357 276 b 247 210 269 276 247 253 b 340 142 247 165 268 142 b 450 147 389 142 426 143 b 460 157 457 149 460 153 "},"ä":{"ha":728,"x_min":0,"x_max":0,"o":"m 221 1004 b 311 915 289 1004 311 982 l 311 900 b 221 813 311 835 289 813 l 211 813 b 122 900 144 813 122 833 l 122 915 b 211 1004 122 982 143 1004 m 507 1004 b 596 915 575 1004 596 982 l 596 900 b 507 813 596 833 575 813 l 497 813 b 408 900 431 813 408 835 l 408 915 b 497 1004 408 982 431 1004 m 63 599 b 360 743 114 694 213 743 b 669 450 567 743 669 646 l 669 97 b 618 17 669 49 658 33 b 356 -21 563 -8 475 -21 b 107 35 235 -21 153 -3 b 38 208 61 72 38 129 b 361 436 38 379 128 436 b 460 433 397 436 431 435 l 460 464 b 353 567 460 532 424 567 b 238 515 301 567 264 550 b 167 493 214 483 206 478 l 90 525 b 63 599 56 540 46 564 m 460 274 b 406 275 451 274 433 274 b 343 276 378 276 357 276 b 247 210 269 276 247 253 b 340 142 247 165 268 142 b 450 147 389 142 426 143 b 460 157 457 149 460 153 "},"å":{"ha":728,"x_min":0,"x_max":0,"o":"m 201 943 b 365 1100 201 1036 269 1100 b 525 943 458 1100 525 1036 b 365 790 525 853 458 790 b 201 943 269 790 201 853 m 421 943 b 365 1001 421 978 397 1001 b 304 943 328 1001 304 978 b 365 888 304 911 331 888 b 421 943 397 888 421 910 m 63 599 b 360 743 114 694 213 743 b 669 450 567 743 669 646 l 669 97 b 618 17 669 49 658 33 b 356 -21 563 -8 475 -21 b 107 35 235 -21 153 -3 b 38 208 61 72 38 129 b 361 436 38 379 128 436 b 460 433 397 436 431 435 l 460 464 b 353 567 460 532 424 567 b 238 515 301 567 264 550 b 167 493 214 483 206 478 l 90 525 b 63 599 56 540 46 564 m 460 274 b 406 275 451 274 433 274 b 343 276 378 276 357 276 b 247 210 269 276 247 253 b 340 142 247 165 268 142 b 450 147 389 142 426 143 b 460 157 457 149 460 153 "},"æ":{"ha":1107,"x_min":0,"x_max":0,"o":"m 63 599 b 344 743 114 694 207 743 b 543 686 429 743 494 724 b 747 743 594 724 663 743 b 1068 450 960 743 1068 622 l 1068 365 b 996 296 1068 319 1044 296 l 638 296 l 638 258 b 749 151 638 188 675 151 b 867 207 800 151 840 169 b 947 225 890 240 907 246 l 1015 190 b 1038 108 1051 172 1058 144 b 746 -21 985 22 888 -21 b 569 18 678 -21 619 -8 b 340 -21 504 -8 428 -21 b 101 35 224 -21 144 -3 b 38 208 58 71 38 129 b 107 386 38 293 61 353 b 346 436 153 419 233 436 b 432 433 378 436 406 435 l 432 482 b 339 567 432 538 407 567 b 238 514 296 567 261 549 b 168 493 215 482 207 478 l 92 525 b 63 599 53 540 44 560 m 858 469 b 747 576 858 540 821 576 b 638 469 674 576 638 540 l 638 447 l 858 447 m 433 274 b 329 276 424 274 344 276 b 247 210 264 276 247 254 b 326 142 247 164 261 142 b 424 147 371 142 411 146 l 433 150 l 433 206 "},"ç":{"ha":721,"x_min":0,"x_max":0,"o":"m 649 236 b 685 163 688 224 700 200 b 439 -17 642 61 560 1 l 419 -69 l 431 -69 b 546 -203 504 -69 556 -126 b 347 -340 536 -294 469 -340 b 247 -325 303 -340 269 -335 b 218 -282 228 -317 218 -303 l 217 -231 b 247 -210 217 -207 226 -200 b 324 -229 274 -222 299 -229 b 378 -192 360 -229 378 -217 b 325 -161 378 -172 360 -162 l 296 -161 b 275 -122 271 -161 264 -149 l 321 -19 b 49 274 139 -4 49 93 l 49 449 b 379 743 49 636 157 743 b 683 558 539 743 644 669 b 647 486 696 518 686 501 l 558 457 b 485 492 518 442 500 451 b 371 563 465 539 428 563 b 258 458 296 563 258 528 l 258 264 b 371 160 258 194 296 160 b 485 231 428 160 465 183 b 558 264 500 269 518 276 "},"è":{"ha":754,"x_min":0,"x_max":0,"o":"m 269 1015 b 361 1018 290 1039 321 1040 l 556 901 b 558 849 579 889 581 875 l 531 815 b 468 811 519 801 499 800 l 225 900 b 218 956 192 911 194 926 m 47 435 b 381 743 47 635 165 743 b 715 450 601 743 715 621 l 715 365 b 643 296 715 319 692 296 l 257 296 l 257 261 b 382 151 257 188 299 151 b 514 207 442 151 486 169 b 594 225 538 240 554 246 l 663 190 b 685 108 699 172 706 144 b 379 -21 631 22 529 -21 b 47 288 151 -21 47 100 m 504 469 b 381 576 504 540 463 576 b 257 469 299 576 257 540 l 257 447 l 504 447 "},"é":{"ha":754,"x_min":0,"x_max":0,"o":"m 408 1018 b 500 1015 447 1040 478 1039 l 550 956 b 543 900 574 926 578 911 l 300 811 b 238 815 269 800 249 801 l 210 849 b 213 901 188 875 189 889 m 47 435 b 381 743 47 635 165 743 b 715 450 601 743 715 621 l 715 365 b 643 296 715 319 692 296 l 257 296 l 257 261 b 382 151 257 188 299 151 b 514 207 442 151 486 169 b 594 225 538 240 554 246 l 663 190 b 685 108 699 172 706 144 b 379 -21 631 22 529 -21 b 47 288 151 -21 47 100 m 504 469 b 381 576 504 540 463 576 b 257 469 299 576 257 540 l 257 447 l 504 447 "},"ê":{"ha":754,"x_min":0,"x_max":0,"o":"m 400 1019 b 489 978 440 1019 451 1015 l 619 847 b 597 806 642 826 636 806 l 514 806 b 432 833 468 806 453 810 l 381 892 l 325 833 b 246 806 303 807 292 806 l 171 806 b 149 847 132 806 126 826 l 278 978 b 375 1019 315 1015 325 1019 m 47 435 b 381 743 47 635 165 743 b 715 450 601 743 715 621 l 715 365 b 643 296 715 319 692 296 l 257 296 l 257 261 b 382 151 257 188 299 151 b 514 207 442 151 486 169 b 594 225 538 240 554 246 l 663 190 b 685 108 699 172 706 144 b 379 -21 631 22 529 -21 b 47 288 151 -21 47 100 m 504 469 b 381 576 504 540 463 576 b 257 469 299 576 257 540 l 257 447 l 504 447 "},"ë":{"ha":754,"x_min":0,"x_max":0,"o":"m 242 1004 b 332 915 310 1004 332 982 l 332 900 b 242 813 332 835 310 813 l 232 813 b 144 900 165 813 144 833 l 144 915 b 232 1004 144 982 165 1004 m 529 1004 b 618 915 597 1004 618 982 l 618 900 b 529 813 618 833 597 813 l 519 813 b 429 900 451 813 429 835 l 429 915 b 519 1004 429 982 451 1004 m 47 435 b 381 743 47 635 165 743 b 715 450 601 743 715 621 l 715 365 b 643 296 715 319 692 296 l 257 296 l 257 261 b 382 151 257 188 299 151 b 514 207 442 151 486 169 b 594 225 538 240 554 246 l 663 190 b 685 108 699 172 706 144 b 379 -21 631 22 529 -21 b 47 288 151 -21 47 100 m 504 469 b 381 576 504 540 463 576 b 257 469 299 576 257 540 l 257 447 l 504 447 "},"ì":{"ha":350,"x_min":0,"x_max":0,"o":"m 76 1017 b 168 1018 100 1043 131 1044 l 338 899 b 340 846 361 883 361 872 l 311 813 b 249 811 299 797 278 797 l 29 903 b 24 958 -3 915 -3 931 m 229 722 b 279 671 267 722 279 710 l 279 51 b 229 0 279 13 267 0 l 121 0 b 69 51 82 0 69 13 l 69 671 b 121 722 69 710 82 722 "},"í":{"ha":350,"x_min":0,"x_max":0,"o":"m 185 1018 b 276 1017 222 1044 253 1043 l 329 958 b 324 903 356 931 356 915 l 104 811 b 42 813 75 797 54 797 l 13 846 b 15 899 -8 872 -8 883 m 229 722 b 279 671 267 722 279 710 l 279 51 b 229 0 279 13 267 0 l 121 0 b 69 51 82 0 69 13 l 69 671 b 121 722 69 710 82 722 "},"î":{"ha":350,"x_min":0,"x_max":0,"o":"m 428 847 b 406 806 451 819 444 806 l 326 806 b 244 832 276 806 260 808 l 207 892 l 165 833 b 86 806 147 807 135 806 l 14 806 b -10 847 -24 806 -32 819 l 104 978 b 201 1019 138 1017 147 1019 l 225 1019 b 315 978 269 1019 282 1015 m 263 722 b 313 671 300 722 313 710 l 313 51 b 263 0 313 13 300 0 l 154 0 b 103 51 115 0 103 13 l 103 671 b 154 722 103 710 115 722 "},"ï":{"ha":350,"x_min":0,"x_max":0,"o":"m 49 1004 b 139 915 117 1004 139 982 l 139 900 b 49 813 139 835 117 813 l 39 813 b -50 900 -28 813 -50 833 l -50 915 b 39 1004 -50 982 -29 1004 m 311 1004 b 399 915 378 1004 399 982 l 399 900 b 311 813 399 835 378 813 l 301 813 b 211 900 233 813 211 835 l 211 915 b 301 1004 211 982 233 1004 m 229 722 b 279 671 267 722 279 710 l 279 51 b 229 0 279 13 267 0 l 121 0 b 69 51 82 0 69 13 l 69 671 b 121 722 69 710 82 722 "},"ð":{"ha":772,"x_min":0,"x_max":0,"o":"m 539 1043 b 574 1044 549 1054 561 1054 l 626 1007 b 629 969 640 997 642 985 l 592 928 b 710 546 671 854 710 728 l 710 271 b 379 -21 710 88 594 -21 b 47 268 163 -21 47 85 l 47 411 b 339 696 47 588 165 696 b 518 642 422 696 482 678 b 460 781 513 701 493 747 l 415 729 b 378 726 400 714 394 715 l 332 758 b 329 794 318 768 317 781 l 361 833 b 206 849 322 843 271 849 b 150 900 163 849 151 860 l 149 981 b 200 1033 149 1019 161 1033 b 494 990 322 1033 421 1019 m 499 411 b 379 515 499 481 458 515 b 258 411 299 515 258 481 l 258 269 b 379 165 258 200 299 165 b 499 269 458 165 499 200 "},"ñ":{"ha":771,"x_min":0,"x_max":0,"o":"m 571 1015 b 603 985 592 1015 603 1006 b 478 819 603 863 565 819 b 375 854 443 819 410 831 b 303 889 340 878 317 889 b 281 850 288 889 281 876 b 253 819 281 829 271 819 l 190 819 b 158 851 169 819 158 831 b 281 1015 158 972 199 1015 b 389 981 318 1015 354 1004 b 460 946 424 957 447 946 b 482 986 475 946 482 960 b 510 1015 482 1006 492 1015 m 124 693 b 407 743 204 726 299 743 b 707 456 607 743 707 647 l 707 51 b 657 0 707 13 694 0 l 549 0 b 497 51 510 0 497 13 l 497 449 b 379 553 497 518 458 553 b 282 540 343 553 311 549 b 278 535 279 540 278 539 l 278 51 b 226 0 278 13 265 0 l 119 0 b 68 51 81 0 68 13 l 68 613 b 124 693 68 658 79 675 "},"ò":{"ha":760,"x_min":0,"x_max":0,"o":"m 267 1015 b 358 1018 289 1039 319 1040 l 554 901 b 557 849 578 889 579 875 l 529 815 b 467 811 518 801 497 800 l 224 900 b 217 956 190 913 190 926 m 49 450 b 379 743 49 635 164 743 b 711 450 596 743 711 635 l 711 271 b 379 -21 711 86 596 -21 b 49 271 164 -21 49 88 m 501 453 b 379 557 501 522 461 557 b 258 453 299 557 258 522 l 258 269 b 379 165 258 200 299 165 b 501 269 461 165 501 200 "},"ó":{"ha":760,"x_min":0,"x_max":0,"o":"m 406 1018 b 497 1015 446 1040 476 1039 l 549 956 b 542 900 572 926 575 911 l 299 811 b 236 815 268 800 247 801 l 208 849 b 211 901 186 875 188 889 m 49 450 b 379 743 49 635 164 743 b 711 450 596 743 711 635 l 711 271 b 379 -21 711 86 596 -21 b 49 271 164 -21 49 88 m 501 453 b 379 557 501 522 461 557 b 258 453 299 557 258 522 l 258 269 b 379 165 258 200 299 165 b 501 269 461 165 501 200 "},"ô":{"ha":760,"x_min":0,"x_max":0,"o":"m 397 1019 b 488 978 440 1019 450 1015 l 618 847 b 596 806 640 826 635 806 l 513 806 b 431 833 467 806 451 810 l 379 892 l 324 833 b 244 806 301 807 290 806 l 169 806 b 146 847 129 806 124 826 l 276 978 b 374 1019 314 1015 324 1019 m 49 450 b 379 743 49 635 164 743 b 711 450 596 743 711 635 l 711 271 b 379 -21 711 86 596 -21 b 49 271 164 -21 49 88 m 501 453 b 379 557 501 522 461 557 b 258 453 299 557 258 522 l 258 269 b 379 165 258 200 299 165 b 501 269 461 165 501 200 "},"õ":{"ha":760,"x_min":0,"x_max":0,"o":"m 563 1015 b 594 985 583 1015 594 1006 b 468 819 594 863 556 819 b 367 854 435 819 401 831 b 294 889 332 878 308 889 b 272 850 279 889 272 876 b 243 819 272 829 263 819 l 181 819 b 150 851 160 819 150 831 b 272 1015 150 972 190 1015 b 381 981 310 1015 346 1004 b 450 946 415 957 438 946 b 474 986 465 946 474 960 b 501 1015 474 1006 483 1015 m 49 450 b 379 743 49 635 164 743 b 711 450 596 743 711 635 l 711 271 b 379 -21 711 86 596 -21 b 49 271 164 -21 49 88 m 501 453 b 379 557 501 522 461 557 b 258 453 299 557 258 522 l 258 269 b 379 165 258 200 299 165 b 501 269 461 165 501 200 "},"ö":{"ha":760,"x_min":0,"x_max":0,"o":"m 240 1004 b 331 915 308 1004 331 982 l 331 900 b 240 813 331 835 308 813 l 231 813 b 143 900 164 813 143 833 l 143 915 b 231 1004 143 982 164 1004 m 528 1004 b 617 915 596 1004 617 982 l 617 900 b 528 813 617 833 594 813 l 518 813 b 428 900 450 813 428 835 l 428 915 b 518 1004 428 982 450 1004 m 49 450 b 379 743 49 635 164 743 b 711 450 596 743 711 635 l 711 271 b 379 -21 711 86 596 -21 b 49 271 164 -21 49 88 m 501 453 b 379 557 501 522 461 557 b 258 453 299 557 258 522 l 258 269 b 379 165 258 200 299 165 b 501 269 461 165 501 200 "},"÷":{"ha":758,"x_min":0,"x_max":0,"o":"m 393 821 b 497 718 472 821 497 796 l 497 703 b 393 600 497 625 472 600 l 365 600 b 261 703 286 600 261 625 l 261 718 b 365 821 261 796 286 821 m 657 551 b 713 494 700 551 713 538 l 713 410 b 657 353 713 367 700 353 l 101 353 b 46 410 58 353 46 367 l 46 494 b 101 551 46 538 58 551 m 393 304 b 497 201 472 304 497 279 l 497 188 b 393 83 497 108 472 83 l 365 83 b 261 188 286 83 261 108 l 261 201 b 365 304 261 279 286 304 "},"ø":{"ha":760,"x_min":0,"x_max":0,"o":"m 678 767 b 686 747 692 767 694 760 l 632 661 b 711 450 685 611 711 540 l 711 271 b 379 -21 711 86 596 -21 b 218 7 317 -21 264 -11 l 193 -32 b 156 -49 183 -47 179 -49 l 82 -49 b 72 -28 68 -49 65 -42 l 129 61 b 49 271 75 113 49 182 l 49 450 b 379 743 49 635 164 743 b 544 715 442 743 497 733 l 567 750 b 601 767 574 761 586 767 m 444 554 b 379 567 428 563 406 567 b 258 463 299 567 258 532 l 258 288 b 261 261 258 281 260 272 m 314 168 b 379 156 332 160 354 156 b 501 260 461 156 501 190 l 501 435 b 500 460 501 440 500 456 "},"ù":{"ha":771,"x_min":0,"x_max":0,"o":"m 272 1015 b 364 1018 293 1039 324 1040 l 558 901 b 561 849 582 889 583 875 l 533 815 b 471 811 522 801 501 800 l 228 900 b 221 956 194 913 194 926 m 653 722 b 703 671 690 722 703 710 l 703 110 b 649 29 703 64 693 47 b 364 -21 567 -4 471 -21 b 64 267 164 -21 64 75 l 64 671 b 115 722 64 710 76 722 l 222 722 b 274 671 261 722 274 710 l 274 274 b 392 169 274 204 313 169 b 483 179 424 169 454 172 b 493 194 490 182 493 188 l 493 671 b 544 722 493 710 506 722 "},"ú":{"ha":771,"x_min":0,"x_max":0,"o":"m 411 1018 b 503 1015 450 1040 481 1039 l 553 956 b 546 900 576 926 581 911 l 303 811 b 240 815 272 800 251 801 l 213 849 b 215 901 190 875 192 889 m 653 722 b 703 671 690 722 703 710 l 703 110 b 649 29 703 64 693 47 b 364 -21 567 -4 471 -21 b 64 267 164 -21 64 75 l 64 671 b 115 722 64 710 76 722 l 222 722 b 274 671 261 722 274 710 l 274 274 b 392 169 274 204 313 169 b 483 179 424 169 454 172 b 493 194 490 182 493 188 l 493 671 b 544 722 493 710 506 722 "},"û":{"ha":771,"x_min":0,"x_max":0,"o":"m 403 1026 b 494 983 446 1026 457 1022 l 628 850 b 606 807 650 828 644 807 l 519 807 b 436 835 474 807 457 811 l 383 896 l 326 836 b 246 807 304 810 292 807 l 169 807 b 146 850 129 807 124 828 l 279 983 b 378 1026 317 1022 328 1026 m 653 722 b 703 671 690 722 703 710 l 703 110 b 649 29 703 64 693 47 b 364 -21 567 -4 471 -21 b 64 267 164 -21 64 75 l 64 671 b 115 722 64 710 76 722 l 222 722 b 274 671 261 722 274 710 l 274 274 b 392 169 274 204 313 169 b 483 179 424 169 454 172 b 493 194 490 182 493 188 l 493 671 b 544 722 493 710 506 722 "},"ü":{"ha":771,"x_min":0,"x_max":0,"o":"m 244 1004 b 335 915 313 1004 335 982 l 335 900 b 244 813 335 835 313 813 l 235 813 b 147 900 168 813 147 833 l 147 915 b 235 1004 147 982 168 1004 m 532 1004 b 621 915 600 1004 621 982 l 621 900 b 532 813 621 833 600 813 l 522 813 b 432 900 454 813 432 835 l 432 915 b 522 1004 432 982 454 1004 m 653 722 b 703 671 690 722 703 710 l 703 110 b 649 29 703 64 693 47 b 364 -21 567 -4 471 -21 b 64 267 164 -21 64 75 l 64 671 b 115 722 64 710 76 722 l 222 722 b 274 671 261 722 274 710 l 274 274 b 392 169 274 204 313 169 b 483 179 424 169 454 172 b 493 194 490 182 493 188 l 493 671 b 544 722 493 710 506 722 "},"ý":{"ha":774,"x_min":0,"x_max":0,"o":"m 421 1018 b 513 1015 460 1040 490 1039 l 563 956 b 556 900 586 926 590 911 l 313 811 b 250 815 282 800 261 801 l 222 849 b 225 901 200 875 201 889 m 663 722 b 713 671 700 722 713 710 l 713 -11 b 396 -319 713 -204 613 -319 b 99 -190 251 -319 153 -276 b 119 -108 75 -156 82 -128 l 199 -68 b 279 -86 238 -47 256 -53 b 392 -139 304 -121 342 -139 b 503 -26 465 -139 503 -101 l 503 31 b 374 21 469 24 426 21 b 74 308 174 21 74 117 l 74 671 b 125 722 74 710 86 722 l 232 722 b 283 671 271 722 283 710 l 283 315 b 401 211 283 246 322 211 b 503 221 433 211 467 214 l 503 671 b 554 722 503 710 515 722 "},"þ":{"ha":760,"x_min":0,"x_max":0,"o":"m 71 975 b 122 1026 71 1014 83 1026 l 231 1026 b 282 975 268 1026 282 1014 l 282 736 b 408 743 321 740 363 743 b 711 456 613 743 711 640 l 711 281 b 390 -21 711 85 603 -21 b 281 -8 358 -21 322 -17 l 281 -254 b 231 -306 281 -293 268 -306 l 122 -306 b 71 -254 83 -306 71 -293 m 500 454 b 383 556 500 522 461 556 b 281 544 356 556 321 551 l 281 175 b 374 167 315 169 347 167 b 500 281 458 167 500 204 "},"ÿ":{"ha":774,"x_min":0,"x_max":0,"o":"m 254 1004 b 344 915 322 1004 344 982 l 344 900 b 254 813 344 835 322 813 l 244 813 b 157 900 178 813 157 833 l 157 915 b 244 1004 157 982 178 1004 m 542 1004 b 631 915 610 1004 631 982 l 631 900 b 542 813 631 833 610 813 l 532 813 b 442 900 464 813 442 835 l 442 915 b 532 1004 442 982 464 1004 m 663 722 b 713 671 700 722 713 710 l 713 -11 b 396 -319 713 -204 613 -319 b 99 -190 251 -319 153 -276 b 119 -108 75 -156 82 -128 l 199 -68 b 279 -86 238 -47 256 -53 b 392 -139 304 -121 342 -139 b 503 -26 465 -139 503 -101 l 503 31 b 374 21 469 24 426 21 b 74 308 174 21 74 117 l 74 671 b 125 722 74 710 86 722 l 232 722 b 283 671 271 722 283 710 l 283 315 b 401 211 283 246 322 211 b 503 221 433 211 467 214 l 503 671 b 554 722 503 710 515 722 "},"Ā":{"ha":933,"x_min":0,"x_max":0,"o":"m 650 1226 b 697 1178 688 1226 697 1217 l 697 1132 b 650 1085 697 1094 688 1085 l 324 1085 b 276 1132 286 1085 276 1094 l 276 1178 b 324 1226 276 1215 289 1226 m 942 56 b 904 0 956 18 943 0 l 800 0 b 697 51 732 0 710 11 l 654 182 l 311 182 l 267 51 b 165 0 251 11 233 0 l 69 0 b 32 56 31 0 18 18 l 364 939 b 433 986 376 976 393 986 l 540 986 b 610 942 581 986 597 976 m 524 581 b 490 753 506 640 492 715 l 489 779 l 475 779 b 443 582 476 714 465 647 l 371 365 l 596 365 "},"ā":{"ha":728,"x_min":0,"x_max":0,"o":"m 522 981 b 569 933 560 981 569 971 l 569 888 b 522 839 569 849 560 839 l 196 839 b 149 888 158 839 149 849 l 149 933 b 196 981 149 971 161 981 m 63 599 b 360 743 114 694 213 743 b 669 450 567 743 669 646 l 669 97 b 618 17 669 49 658 33 b 356 -21 563 -8 475 -21 b 107 35 235 -21 153 -3 b 38 208 61 72 38 129 b 361 436 38 379 128 436 b 460 433 397 436 431 435 l 460 464 b 353 567 460 532 424 567 b 238 515 301 567 264 550 b 167 493 214 483 206 478 l 90 525 b 63 599 56 540 46 564 m 460 274 b 406 275 451 274 433 274 b 343 276 378 276 357 276 b 247 210 269 276 247 253 b 340 142 247 165 268 142 b 450 147 389 142 426 143 b 460 157 457 149 460 153 "},"Ă":{"ha":933,"x_min":0,"x_max":0,"o":"m 714 1193 b 488 1053 681 1104 597 1053 b 263 1193 378 1053 294 1104 b 286 1240 256 1217 263 1232 l 358 1268 b 408 1251 382 1276 399 1271 b 488 1197 424 1215 450 1197 b 567 1251 525 1197 551 1215 b 610 1269 575 1269 589 1276 l 690 1240 b 714 1193 717 1229 721 1219 m 942 56 b 904 0 956 18 943 0 l 800 0 b 697 51 732 0 710 11 l 654 182 l 311 182 l 267 51 b 165 0 251 11 233 0 l 69 0 b 32 56 31 0 18 18 l 364 939 b 433 986 376 976 393 986 l 540 986 b 610 942 581 986 597 976 m 524 581 b 490 753 506 640 492 715 l 489 779 l 475 779 b 443 582 476 714 465 647 l 371 365 l 596 365 "},"ă":{"ha":728,"x_min":0,"x_max":0,"o":"m 586 949 b 360 807 553 860 469 807 b 135 949 250 807 167 860 b 158 994 128 971 135 986 l 231 1022 b 281 1006 258 1032 269 1029 b 360 951 296 969 322 951 b 439 1006 396 951 422 969 b 482 1024 449 1029 458 1033 l 563 994 b 586 949 586 985 593 969 m 63 599 b 360 743 114 694 213 743 b 669 450 567 743 669 646 l 669 97 b 618 17 669 49 658 33 b 356 -21 563 -8 475 -21 b 107 35 235 -21 153 -3 b 38 208 61 72 38 129 b 361 436 38 379 128 436 b 460 433 397 436 431 435 l 460 464 b 353 567 460 532 424 567 b 238 515 301 567 264 550 b 167 493 214 483 206 478 l 90 525 b 63 599 56 540 46 564 m 460 274 b 406 275 451 274 433 274 b 343 276 378 276 357 276 b 247 210 269 276 247 253 b 340 142 247 165 268 142 b 450 147 389 142 426 143 b 460 157 457 149 460 153 "},"Ą":{"ha":933,"x_min":0,"x_max":0,"o":"m 542 986 b 611 942 582 986 599 976 l 944 50 b 939 6 951 31 950 15 b 849 -172 874 -62 842 -140 b 876 -197 851 -189 861 -197 b 900 -190 886 -197 893 -194 b 932 -199 915 -181 926 -183 l 956 -256 b 953 -292 963 -271 963 -282 b 813 -340 915 -324 869 -340 b 676 -250 732 -340 686 -310 b 782 0 661 -176 703 -82 b 699 51 725 1 710 13 l 656 182 l 313 182 l 268 51 b 167 0 253 11 235 0 l 71 0 b 33 56 32 0 19 18 l 365 939 b 435 986 378 976 394 986 m 525 581 b 490 753 504 640 492 715 l 489 779 l 476 779 b 444 582 476 714 465 647 l 372 365 l 597 365 "},"ą":{"ha":732,"x_min":0,"x_max":0,"o":"m 63 599 b 360 743 114 694 213 743 b 669 450 567 743 669 646 l 669 97 b 654 38 669 71 664 50 b 561 -172 583 -58 551 -128 b 589 -197 565 -189 575 -197 b 614 -190 597 -197 606 -194 b 644 -199 628 -181 638 -183 l 668 -256 b 665 -292 675 -271 675 -282 b 525 -340 628 -324 582 -340 b 389 -250 444 -340 399 -310 b 486 -14 376 -178 408 -99 b 356 -21 444 -18 401 -21 b 107 35 235 -21 153 -3 b 38 208 61 72 38 129 b 361 436 38 379 128 436 b 460 433 397 436 431 435 l 460 464 b 353 567 460 532 424 567 b 238 515 301 567 264 550 b 167 493 214 483 206 478 l 90 525 b 63 599 56 540 46 564 m 460 274 b 406 275 451 274 433 274 b 343 276 378 276 357 276 b 247 210 269 276 247 253 b 340 142 247 165 268 142 b 450 147 389 142 426 143 b 460 157 457 149 460 153 "},"Ć":{"ha":894,"x_min":0,"x_max":0,"o":"m 503 1263 b 594 1258 543 1285 574 1283 l 644 1199 b 638 1143 668 1169 672 1154 l 394 1057 b 331 1060 363 1046 340 1047 l 304 1094 b 307 1147 282 1121 283 1135 m 58 633 b 468 1007 58 867 208 1007 b 857 774 671 1007 800 929 b 822 701 871 739 860 714 l 715 664 b 643 699 675 651 658 658 b 468 800 617 767 558 800 b 285 635 346 800 285 744 l 285 351 b 468 186 285 242 346 186 b 643 288 558 186 617 219 b 715 322 658 328 676 338 l 822 285 b 857 213 860 272 871 247 b 468 -21 800 57 671 -21 b 58 353 208 -21 58 119 "},"ć":{"ha":721,"x_min":0,"x_max":0,"o":"m 406 1018 b 497 1015 444 1040 475 1039 l 547 956 b 540 900 571 926 575 911 l 297 811 b 235 815 267 800 246 801 l 207 849 b 210 901 185 875 186 889 m 49 449 b 379 743 49 636 157 743 b 683 558 539 743 644 669 b 647 486 696 518 686 501 l 558 457 b 485 492 518 442 500 451 b 371 563 465 539 428 563 b 258 458 296 563 258 528 l 258 264 b 371 160 258 194 296 160 b 485 231 428 160 465 183 b 558 264 500 269 518 276 l 649 236 b 685 163 688 224 700 200 b 365 -21 633 40 526 -21 b 49 274 154 -21 49 78 "},"Ĉ":{"ha":894,"x_min":0,"x_max":0,"o":"m 494 1269 b 586 1228 539 1269 549 1267 l 719 1093 b 697 1051 742 1072 736 1051 l 611 1051 b 528 1079 565 1051 549 1056 l 475 1140 l 418 1079 b 338 1051 396 1053 383 1051 l 258 1051 b 236 1093 218 1051 213 1072 l 368 1228 b 468 1269 408 1268 414 1269 m 58 633 b 468 1007 58 867 208 1007 b 857 774 671 1007 800 929 b 822 701 871 739 860 714 l 715 664 b 643 699 675 651 658 658 b 468 800 617 767 558 800 b 285 635 346 800 285 744 l 285 351 b 468 186 285 242 346 186 b 643 288 558 186 617 219 b 715 322 658 328 676 338 l 822 285 b 857 213 860 272 871 247 b 468 -21 800 57 671 -21 b 58 353 208 -21 58 119 "},"ĉ":{"ha":721,"x_min":0,"x_max":0,"o":"m 396 1019 b 486 978 439 1019 449 1015 l 617 847 b 594 806 639 826 633 806 l 511 806 b 429 833 465 806 450 810 l 378 892 l 322 833 b 243 806 300 807 289 806 l 168 806 b 146 847 129 806 124 826 l 275 978 b 372 1019 313 1015 322 1019 m 49 449 b 379 743 49 636 157 743 b 683 558 539 743 644 669 b 647 486 696 518 686 501 l 558 457 b 485 492 518 442 500 451 b 371 563 465 539 428 563 b 258 458 296 563 258 528 l 258 264 b 371 160 258 194 296 160 b 485 231 428 160 465 183 b 558 264 500 269 518 276 l 649 236 b 685 163 688 224 700 200 b 365 -21 633 40 526 -21 b 49 274 154 -21 49 78 "},"Ċ":{"ha":894,"x_min":0,"x_max":0,"o":"m 479 1254 b 571 1163 550 1254 571 1233 l 571 1151 b 479 1060 571 1081 550 1060 l 471 1060 b 379 1151 400 1060 379 1081 l 379 1163 b 471 1254 379 1233 400 1254 m 58 633 b 468 1007 58 867 208 1007 b 857 774 671 1007 800 929 b 822 701 871 739 860 714 l 715 664 b 643 699 675 651 658 658 b 468 800 617 767 558 800 b 285 635 346 800 285 744 l 285 351 b 468 186 285 242 346 186 b 643 288 558 186 617 219 b 715 322 658 328 676 338 l 822 285 b 857 213 860 272 871 247 b 468 -21 800 57 671 -21 b 58 353 208 -21 58 119 "},"ċ":{"ha":721,"x_min":0,"x_max":0,"o":"m 382 1008 b 474 917 453 1008 474 988 l 474 906 b 382 814 474 835 453 814 l 374 814 b 282 906 303 814 282 835 l 282 917 b 374 1008 282 988 303 1008 m 49 449 b 379 743 49 636 157 743 b 683 558 539 743 644 669 b 647 486 696 518 686 501 l 558 457 b 485 492 518 442 500 451 b 371 563 465 539 428 563 b 258 458 296 563 258 528 l 258 264 b 371 160 258 194 296 160 b 485 231 428 160 465 183 b 558 264 500 269 518 276 l 649 236 b 685 163 688 224 700 200 b 365 -21 633 40 526 -21 b 49 274 154 -21 49 78 "},"Č":{"ha":894,"x_min":0,"x_max":0,"o":"m 692 1268 b 714 1225 732 1268 736 1247 l 581 1092 b 488 1049 543 1053 532 1049 l 463 1049 b 410 1056 438 1049 419 1051 b 365 1092 400 1060 385 1072 l 233 1225 b 254 1268 210 1247 214 1268 l 336 1268 b 417 1240 382 1268 394 1264 l 474 1179 l 526 1239 b 610 1268 547 1265 564 1268 m 58 633 b 468 1007 58 867 208 1007 b 857 774 671 1007 800 929 b 822 701 871 739 860 714 l 715 664 b 643 699 675 651 658 658 b 468 800 617 767 558 800 b 285 635 346 800 285 744 l 285 351 b 468 186 285 242 346 186 b 643 288 558 186 617 219 b 715 322 658 328 676 338 l 822 285 b 857 213 860 272 871 247 b 468 -21 800 57 671 -21 b 58 353 208 -21 58 119 "},"č":{"ha":721,"x_min":0,"x_max":0,"o":"m 576 1001 b 596 961 614 1001 618 982 l 475 838 b 389 799 440 803 432 799 l 367 799 b 278 838 321 799 311 803 l 156 961 b 175 1001 132 988 139 1001 l 250 1001 b 325 975 293 1001 303 997 l 376 919 l 425 975 b 501 1001 446 997 458 1001 m 49 449 b 379 743 49 636 157 743 b 683 558 539 743 644 669 b 647 486 696 518 686 501 l 558 457 b 485 492 518 442 500 451 b 371 563 465 539 428 563 b 258 458 296 563 258 528 l 258 264 b 371 160 258 194 296 160 b 485 231 428 160 465 183 b 558 264 500 269 518 276 l 649 236 b 685 163 688 224 700 200 b 365 -21 633 40 526 -21 b 49 274 154 -21 49 78 "},"Ď":{"ha":935,"x_min":0,"x_max":0,"o":"m 656 1268 b 676 1225 694 1268 699 1247 l 544 1092 b 451 1049 507 1053 496 1049 l 426 1049 b 329 1092 376 1049 367 1053 l 196 1225 b 218 1268 174 1247 178 1268 l 300 1268 b 381 1240 346 1268 358 1264 l 438 1179 l 490 1239 b 572 1268 511 1265 526 1268 m 467 986 b 876 613 728 986 876 846 l 876 374 b 467 0 876 140 728 0 l 142 0 b 85 57 99 0 85 14 l 85 929 b 142 986 85 972 99 986 m 651 613 b 465 781 651 725 589 781 l 311 781 l 311 207 l 465 207 b 651 374 589 207 651 263 "},"ď":{"ha":869,"x_min":0,"x_max":0,"o":"m 50 442 b 351 743 50 638 153 743 b 479 735 389 743 431 740 l 479 976 b 531 1028 479 1015 492 1028 l 638 1028 b 689 976 676 1028 689 1015 l 689 103 b 633 26 689 57 679 44 b 360 -21 557 -6 467 -21 b 50 267 153 -21 50 75 m 896 753 b 840 707 885 718 874 707 l 783 707 b 751 742 754 707 747 714 l 778 974 b 838 1028 783 1017 794 1028 l 921 1028 b 967 974 965 1028 978 1013 m 479 547 b 386 556 444 553 413 556 b 260 442 301 556 260 518 l 260 268 b 376 167 260 203 303 167 b 475 176 417 167 449 169 b 479 183 478 178 479 179 "},"Đ":{"ha":964,"x_min":0,"x_max":0,"o":"m 496 986 b 906 613 756 986 906 846 l 906 374 b 496 0 906 140 756 0 l 171 0 b 114 57 128 0 114 14 l 114 436 l 43 436 b 11 472 17 436 11 443 l 11 546 b 43 581 11 569 22 581 l 114 581 l 114 929 b 171 986 114 972 128 986 m 681 613 b 494 781 681 725 618 781 l 339 781 l 339 581 l 488 581 b 519 546 511 581 519 572 l 519 472 b 488 436 519 443 514 436 l 339 436 l 339 207 l 494 207 b 681 374 618 207 681 263 "},"đ":{"ha":757,"x_min":0,"x_max":0,"o":"m 754 939 b 786 903 778 939 786 931 l 786 850 b 754 815 786 822 781 815 l 689 815 l 689 103 b 633 26 689 57 679 44 b 360 -21 557 -6 467 -21 b 50 267 153 -21 50 75 l 50 442 b 351 743 50 638 153 743 b 479 735 389 743 431 740 l 479 815 l 338 815 b 306 850 311 815 306 822 l 306 903 b 338 939 306 926 317 939 l 479 939 l 479 976 b 531 1028 479 1015 492 1028 l 638 1028 b 689 976 676 1028 689 1015 l 689 939 m 479 547 b 386 556 444 553 413 556 b 260 442 301 556 260 518 l 260 268 b 376 167 260 203 303 167 b 475 176 417 167 449 169 b 479 183 478 178 479 179 "},"Ē":{"ha":811,"x_min":0,"x_max":0,"o":"m 585 1226 b 632 1178 622 1226 632 1217 l 632 1132 b 585 1085 632 1094 622 1085 l 258 1085 b 211 1132 221 1085 211 1094 l 211 1178 b 258 1226 211 1215 224 1226 m 700 986 b 757 929 743 986 757 972 l 757 836 b 700 781 757 793 743 781 l 311 781 l 311 601 l 631 601 b 688 546 674 601 688 589 l 688 453 b 631 396 688 410 674 396 l 311 396 l 311 207 l 714 207 b 771 150 754 207 771 190 l 771 57 b 714 0 771 14 757 0 l 142 0 b 85 57 99 0 85 14 l 85 929 b 142 986 85 972 99 986 "},"ē":{"ha":754,"x_min":0,"x_max":0,"o":"m 531 971 b 575 925 565 971 575 960 l 575 881 b 531 835 575 846 565 835 l 232 835 b 188 881 197 835 188 846 l 188 925 b 232 971 188 960 200 971 m 47 435 b 381 743 47 635 165 743 b 715 450 601 743 715 621 l 715 365 b 643 296 715 319 692 296 l 257 296 l 257 261 b 382 151 257 188 299 151 b 514 207 442 151 486 169 b 594 225 538 240 554 246 l 663 190 b 685 108 699 172 706 144 b 379 -21 631 22 529 -21 b 47 288 151 -21 47 100 m 504 469 b 381 576 504 540 463 576 b 257 469 299 576 257 540 l 257 447 l 504 447 "},"Ĕ":{"ha":811,"x_min":0,"x_max":0,"o":"m 649 1193 b 422 1053 615 1104 532 1053 b 197 1193 313 1053 229 1104 b 221 1240 190 1217 197 1232 l 293 1268 b 343 1251 317 1276 333 1271 b 422 1197 358 1215 385 1197 b 501 1251 460 1197 486 1215 b 544 1269 510 1269 524 1276 l 625 1240 b 649 1193 651 1229 656 1219 m 700 986 b 757 929 743 986 757 972 l 757 836 b 700 781 757 793 743 781 l 311 781 l 311 601 l 631 601 b 688 546 674 601 688 589 l 688 453 b 631 396 688 410 674 396 l 311 396 l 311 207 l 714 207 b 771 150 754 207 771 190 l 771 57 b 714 0 771 14 757 0 l 142 0 b 85 57 99 0 85 14 l 85 929 b 142 986 85 972 99 986 "},"ĕ":{"ha":754,"x_min":0,"x_max":0,"o":"m 607 949 b 381 807 574 860 490 807 b 157 949 271 807 189 860 b 179 994 150 971 157 986 l 251 1022 b 303 1006 281 1032 292 1029 b 381 951 318 969 343 951 b 460 1006 417 951 443 969 b 504 1024 471 1029 481 1033 l 585 994 b 607 949 608 985 615 969 m 47 435 b 381 743 47 635 165 743 b 715 450 601 743 715 621 l 715 365 b 643 296 715 319 692 296 l 257 296 l 257 261 b 382 151 257 188 299 151 b 514 207 442 151 486 169 b 594 225 538 240 554 246 l 663 190 b 685 108 699 172 706 144 b 379 -21 631 22 529 -21 b 47 288 151 -21 47 100 m 504 469 b 381 576 504 540 463 576 b 257 469 299 576 257 540 l 257 447 l 504 447 "},"Ė":{"ha":811,"x_min":0,"x_max":0,"o":"m 426 1254 b 517 1163 497 1254 517 1233 l 517 1151 b 426 1060 517 1081 497 1060 l 418 1060 b 326 1151 347 1060 326 1081 l 326 1163 b 418 1254 326 1233 347 1254 m 700 986 b 757 929 743 986 757 972 l 757 836 b 700 781 757 793 743 781 l 311 781 l 311 601 l 631 601 b 688 546 674 601 688 589 l 688 453 b 631 396 688 410 674 396 l 311 396 l 311 207 l 714 207 b 771 150 754 207 771 190 l 771 57 b 714 0 771 14 757 0 l 142 0 b 85 57 99 0 85 14 l 85 929 b 142 986 85 972 99 986 "},"ė":{"ha":754,"x_min":0,"x_max":0,"o":"m 385 1008 b 476 917 456 1008 476 988 l 476 906 b 385 814 476 835 456 814 l 376 814 b 285 906 306 814 285 835 l 285 917 b 376 1008 285 988 306 1008 m 47 435 b 381 743 47 635 165 743 b 715 450 601 743 715 621 l 715 365 b 643 296 715 319 692 296 l 257 296 l 257 261 b 382 151 257 188 299 151 b 514 207 442 151 486 169 b 594 225 538 240 554 246 l 663 190 b 685 108 699 172 706 144 b 379 -21 631 22 529 -21 b 47 288 151 -21 47 100 m 504 469 b 381 576 504 540 463 576 b 257 469 299 576 257 540 l 257 447 l 504 447 "},"Ę":{"ha":811,"x_min":0,"x_max":0,"o":"m 700 986 b 757 929 743 986 757 972 l 757 836 b 700 781 757 793 743 781 l 311 781 l 311 601 l 631 601 b 688 546 674 601 688 589 l 688 453 b 631 396 688 410 674 396 l 311 396 l 311 207 l 714 207 b 771 150 754 207 771 190 l 771 57 b 753 8 771 39 765 22 b 663 -169 685 -64 656 -132 b 690 -193 668 -185 678 -193 b 710 -187 697 -193 703 -192 b 742 -196 725 -178 735 -181 l 765 -251 b 763 -287 772 -268 771 -281 b 622 -337 725 -321 679 -337 b 488 -247 551 -337 500 -304 b 601 0 472 -174 518 -74 l 142 0 b 85 57 99 0 85 14 l 85 929 b 142 986 85 972 99 986 "},"ę":{"ha":754,"x_min":0,"x_max":0,"o":"m 47 435 b 381 743 47 635 165 743 b 715 450 601 743 715 621 l 715 365 b 643 296 715 319 692 296 l 257 296 l 257 261 b 382 151 257 188 299 151 b 514 207 442 151 486 169 b 594 225 538 240 554 246 l 663 190 b 685 108 699 172 706 144 b 651 67 675 93 664 79 b 543 -172 567 -37 536 -135 b 571 -197 547 -189 557 -197 b 596 -190 579 -197 588 -194 b 626 -199 610 -181 619 -183 l 650 -256 b 647 -292 657 -271 657 -282 b 507 -340 610 -324 564 -340 b 371 -250 426 -340 381 -310 b 472 -14 357 -179 390 -100 b 379 -21 442 -18 411 -21 b 47 288 151 -21 47 100 m 504 469 b 381 576 504 540 463 576 b 257 469 299 576 257 540 l 257 447 l 504 447 "},"Ě":{"ha":811,"x_min":0,"x_max":0,"o":"m 638 1268 b 660 1225 678 1268 683 1247 l 528 1092 b 435 1049 489 1053 478 1049 l 410 1049 b 356 1056 383 1049 365 1051 b 311 1092 346 1060 331 1072 l 179 1225 b 200 1268 157 1247 161 1268 l 282 1268 b 363 1240 328 1268 340 1264 l 419 1179 l 472 1239 b 556 1268 494 1265 510 1268 m 700 986 b 757 929 743 986 757 972 l 757 836 b 700 781 757 793 743 781 l 311 781 l 311 601 l 631 601 b 688 546 674 601 688 589 l 688 453 b 631 396 688 410 674 396 l 311 396 l 311 207 l 714 207 b 771 150 754 207 771 190 l 771 57 b 714 0 771 14 757 0 l 142 0 b 85 57 99 0 85 14 l 85 929 b 142 986 85 972 99 986 "},"ě":{"ha":754,"x_min":0,"x_max":0,"o":"m 579 1001 b 599 961 617 1001 621 982 l 478 838 b 393 799 443 803 433 799 l 369 799 b 281 838 324 799 314 803 l 158 961 b 179 1001 135 988 142 1001 l 253 1001 b 328 975 296 1001 306 997 l 379 919 l 428 975 b 504 1001 449 997 461 1001 m 47 435 b 381 743 47 635 165 743 b 715 450 601 743 715 621 l 715 365 b 643 296 715 319 692 296 l 257 296 l 257 261 b 382 151 257 188 299 151 b 514 207 442 151 486 169 b 594 225 538 240 554 246 l 663 190 b 685 108 699 172 706 144 b 379 -21 631 22 529 -21 b 47 288 151 -21 47 100 m 504 469 b 381 576 504 540 463 576 b 257 469 299 576 257 540 l 257 447 l 504 447 "},"Ĝ":{"ha":929,"x_min":0,"x_max":0,"o":"m 488 1283 b 579 1242 532 1283 542 1281 l 713 1107 b 690 1065 736 1086 731 1065 l 604 1065 b 521 1093 558 1065 542 1069 l 468 1154 l 413 1093 b 332 1065 389 1067 378 1065 l 251 1065 b 229 1107 213 1065 207 1086 l 363 1242 b 461 1283 401 1282 407 1283 m 822 557 b 879 500 865 557 879 543 l 879 310 b 771 72 879 213 843 133 b 468 -21 697 10 597 -21 b 58 353 208 -21 58 119 l 58 633 b 468 1007 58 867 208 1007 b 857 774 671 1007 800 929 b 822 701 871 739 860 714 l 715 664 b 643 699 675 651 658 658 b 468 800 617 767 558 800 b 285 635 346 800 285 744 l 285 351 b 468 186 285 242 346 186 b 654 307 583 186 654 236 l 654 357 l 486 357 b 429 414 443 357 429 371 l 429 500 b 486 557 429 543 443 557 "},"ĝ":{"ha":756,"x_min":0,"x_max":0,"o":"m 415 1019 b 504 978 458 1019 467 1015 l 635 847 b 613 806 657 826 651 806 l 529 806 b 447 833 483 806 469 810 l 396 892 l 340 833 b 261 806 318 807 307 806 l 186 806 b 164 847 147 806 142 826 l 293 978 b 390 1019 331 1015 340 1019 m 58 442 b 383 743 58 643 167 743 b 646 697 496 743 583 728 b 697 619 690 676 697 665 l 697 -11 b 381 -319 697 -204 597 -319 b 82 -190 238 -319 138 -276 b 104 -108 60 -154 67 -126 l 182 -68 b 263 -86 221 -47 239 -53 b 376 -139 288 -121 325 -139 b 488 -26 450 -139 488 -101 l 488 33 b 358 19 444 24 401 19 b 58 307 158 19 58 115 m 482 546 b 394 556 453 553 424 556 b 268 442 310 556 268 518 l 268 308 b 385 207 268 243 311 207 b 488 217 419 207 453 210 l 488 538 b 482 546 488 542 486 544 "},"Ğ":{"ha":929,"x_min":0,"x_max":0,"o":"m 696 1207 b 468 1067 663 1118 579 1067 b 244 1207 358 1067 276 1118 b 268 1254 238 1231 244 1246 l 339 1282 b 390 1265 364 1290 381 1285 b 468 1211 406 1229 431 1211 b 547 1265 506 1211 532 1229 b 592 1283 557 1283 571 1290 l 672 1254 b 696 1207 699 1243 703 1233 m 822 557 b 879 500 865 557 879 543 l 879 310 b 771 72 879 213 843 133 b 468 -21 697 10 597 -21 b 58 353 208 -21 58 119 l 58 633 b 468 1007 58 867 208 1007 b 857 774 671 1007 800 929 b 822 701 871 739 860 714 l 715 664 b 643 699 675 651 658 658 b 468 800 617 767 558 800 b 285 635 346 800 285 744 l 285 351 b 468 186 285 242 346 186 b 654 307 583 186 654 236 l 654 357 l 486 357 b 429 414 443 357 429 371 l 429 500 b 486 557 429 543 443 557 "},"ğ":{"ha":756,"x_min":0,"x_max":0,"o":"m 622 949 b 396 807 590 860 507 807 b 172 949 286 807 204 860 b 194 994 165 971 172 986 l 267 1022 b 318 1006 296 1032 307 1029 b 396 951 333 969 358 951 b 475 1006 432 951 458 969 b 519 1024 486 1029 496 1033 l 600 994 b 622 949 624 985 631 969 m 58 442 b 383 743 58 643 167 743 b 646 697 496 743 583 728 b 697 619 690 676 697 665 l 697 -11 b 381 -319 697 -204 597 -319 b 82 -190 238 -319 138 -276 b 104 -108 60 -154 67 -126 l 182 -68 b 263 -86 221 -47 239 -53 b 376 -139 288 -121 325 -139 b 488 -26 450 -139 488 -101 l 488 33 b 358 19 444 24 401 19 b 58 307 158 19 58 115 m 482 546 b 394 556 453 553 424 556 b 268 442 310 556 268 518 l 268 308 b 385 207 268 243 311 207 b 488 217 419 207 453 210 l 488 538 b 482 546 488 542 486 544 "},"Ġ":{"ha":929,"x_min":0,"x_max":0,"o":"m 472 1268 b 564 1176 544 1268 564 1247 l 564 1165 b 472 1074 564 1094 544 1074 l 464 1074 b 372 1165 393 1074 372 1094 l 372 1176 b 464 1268 372 1247 393 1268 m 822 557 b 879 500 865 557 879 543 l 879 310 b 771 72 879 213 843 133 b 468 -21 697 10 597 -21 b 58 353 208 -21 58 119 l 58 633 b 468 1007 58 867 208 1007 b 857 774 671 1007 800 929 b 822 701 871 739 860 714 l 715 664 b 643 699 675 651 658 658 b 468 800 617 767 558 800 b 285 635 346 800 285 744 l 285 351 b 468 186 285 242 346 186 b 654 307 583 186 654 236 l 654 357 l 486 357 b 429 414 443 357 429 371 l 429 500 b 486 557 429 543 443 557 "},"ġ":{"ha":756,"x_min":0,"x_max":0,"o":"m 400 1008 b 492 917 471 1008 492 988 l 492 906 b 400 814 492 835 471 814 l 392 814 b 300 906 321 814 300 835 l 300 917 b 392 1008 300 988 321 1008 m 58 442 b 383 743 58 643 167 743 b 646 697 496 743 583 728 b 697 619 690 676 697 665 l 697 -11 b 381 -319 697 -204 597 -319 b 82 -190 238 -319 138 -276 b 104 -108 60 -154 67 -126 l 182 -68 b 263 -86 221 -47 239 -53 b 376 -139 288 -121 325 -139 b 488 -26 450 -139 488 -101 l 488 33 b 358 19 444 24 401 19 b 58 307 158 19 58 115 m 482 546 b 394 556 453 553 424 556 b 268 442 310 556 268 518 l 268 308 b 385 207 268 243 311 207 b 488 217 419 207 453 210 l 488 538 b 482 546 488 542 486 544 "},"Ģ":{"ha":929,"x_min":0,"x_max":0,"o":"m 822 557 b 879 500 865 557 879 543 l 879 310 b 771 72 879 213 843 133 b 468 -21 697 10 597 -21 b 58 353 208 -21 58 119 l 58 633 b 468 1007 58 867 208 1007 b 857 774 671 1007 800 929 b 822 701 871 739 860 714 l 715 664 b 643 699 675 651 658 658 b 468 800 617 767 558 800 b 285 635 346 800 285 744 l 285 351 b 468 186 285 242 346 186 b 654 307 583 186 654 236 l 654 357 l 486 357 b 429 414 443 357 429 371 l 429 500 b 486 557 429 543 443 557 m 526 -315 b 467 -361 515 -349 500 -361 l 397 -361 b 364 -325 369 -361 360 -353 l 386 -129 b 446 -75 390 -89 406 -75 l 543 -74 b 590 -129 589 -74 606 -92 "},"ģ":{"ha":757,"x_min":0,"x_max":0,"o":"m 346 983 b 411 1031 358 1021 372 1031 l 469 1031 b 504 992 501 1031 508 1021 l 489 851 b 422 792 483 806 467 792 l 338 792 b 293 851 289 792 278 811 m 58 442 b 383 743 58 643 167 743 b 646 697 496 743 583 728 b 697 619 690 676 697 665 l 697 -11 b 381 -319 697 -204 597 -319 b 82 -190 238 -319 138 -276 b 104 -108 60 -154 67 -126 l 182 -68 b 263 -86 221 -47 239 -53 b 376 -139 288 -121 325 -139 b 488 -26 450 -139 488 -101 l 488 33 b 358 19 444 24 401 19 b 58 307 158 19 58 115 m 482 546 b 394 556 453 553 424 556 b 268 442 310 556 268 518 l 268 308 b 385 207 268 243 311 207 b 488 217 419 207 453 210 l 488 538 b 482 546 488 542 486 544 "},"Ĥ":{"ha":957,"x_min":0,"x_max":0,"o":"m 497 1269 b 589 1228 542 1269 551 1267 l 722 1093 b 700 1051 746 1072 740 1051 l 614 1051 b 531 1079 568 1051 551 1056 l 478 1140 l 422 1079 b 340 1051 399 1053 386 1051 l 261 1051 b 239 1093 222 1051 217 1072 l 372 1228 b 471 1269 411 1268 417 1269 m 815 986 b 871 929 858 986 871 972 l 871 57 b 815 0 871 14 858 0 l 703 0 b 646 57 660 0 646 14 l 646 396 l 311 396 l 311 57 b 254 0 311 14 297 0 l 142 0 b 85 57 99 0 85 14 l 85 929 b 142 986 85 972 99 986 l 254 986 b 311 929 297 986 311 972 l 311 603 l 646 603 l 646 929 b 703 986 646 972 660 986 "},"ĥ":{"ha":774,"x_min":0,"x_max":0,"o":"m 199 1303 b 288 1261 239 1303 250 1299 l 415 1132 b 393 1092 438 1111 432 1092 l 311 1092 b 231 1119 267 1092 253 1096 l 181 1178 l 126 1119 b 49 1092 104 1093 93 1092 l -25 1092 b -47 1132 -64 1092 -69 1111 l 81 1261 b 175 1303 115 1300 125 1303 m 235 1028 b 285 976 272 1028 285 1015 l 285 733 l 304 736 b 415 743 331 740 376 743 b 715 456 615 743 715 640 l 715 51 b 664 0 715 13 701 0 l 556 0 b 504 51 518 0 504 13 l 504 449 b 386 553 504 518 465 553 b 292 543 346 553 306 546 l 285 542 l 285 51 b 235 0 285 13 272 0 l 126 0 b 75 51 88 0 75 13 l 75 976 b 126 1028 75 1015 88 1028 "},"Ħ":{"ha":983,"x_min":0,"x_max":0,"o":"m 940 860 b 972 825 964 860 972 851 l 972 769 b 940 735 972 742 967 735 l 885 735 l 885 57 b 828 0 885 14 871 0 l 715 0 b 660 57 672 0 660 14 l 660 396 l 324 396 l 324 57 b 267 0 324 14 310 0 l 156 0 b 99 57 113 0 99 14 l 99 735 l 44 735 b 13 769 18 735 13 742 l 13 825 b 44 860 13 849 24 860 l 99 860 l 99 929 b 156 986 99 972 113 986 l 267 986 b 324 929 310 986 324 972 l 324 860 l 660 860 l 660 929 b 715 986 660 972 672 986 l 828 986 b 885 929 871 986 885 972 l 885 860 m 324 735 l 324 603 l 660 603 l 660 735 "},"ħ":{"ha":775,"x_min":0,"x_max":0,"o":"m 281 733 l 300 736 b 411 743 326 740 372 743 b 711 456 611 743 711 640 l 711 51 b 660 0 711 13 697 0 l 551 0 b 500 51 514 0 500 13 l 500 449 b 382 553 500 518 461 553 b 286 543 340 553 303 546 l 281 542 l 281 51 b 231 0 281 13 268 0 l 122 0 b 71 51 83 0 71 13 l 71 817 l 35 817 b 3 851 8 817 3 824 l 3 900 b 35 936 3 924 14 936 l 71 936 l 71 976 b 122 1028 71 1015 83 1028 l 231 1028 b 281 976 268 1028 281 1015 l 281 936 l 442 936 b 474 900 465 936 474 928 l 474 851 b 442 817 474 824 468 817 l 281 817 "},"Ĩ":{"ha":396,"x_min":0,"x_max":0,"o":"m 382 1256 b 413 1224 403 1256 413 1244 b 288 1060 413 1103 375 1060 b 186 1094 254 1060 221 1071 b 114 1129 151 1118 126 1129 b 92 1089 99 1129 92 1115 b 63 1060 92 1069 82 1060 l 0 1060 b -31 1090 -21 1060 -31 1069 b 92 1256 -31 1211 10 1256 b 200 1221 129 1256 165 1244 b 269 1186 235 1197 257 1186 b 293 1225 285 1186 293 1199 b 321 1256 293 1246 303 1256 m 85 931 b 140 986 85 971 97 986 l 256 986 b 311 931 296 986 311 971 l 311 56 b 256 0 311 15 296 0 l 140 0 b 85 56 97 0 85 15 "},"ĩ":{"ha":350,"x_min":0,"x_max":0,"o":"m 326 1025 b 351 993 343 1025 351 1014 b 244 826 351 869 317 826 b 110 890 179 826 140 890 b 86 857 94 890 86 879 b 64 826 86 836 79 826 l 7 826 b -18 858 -10 826 -18 838 b 86 1025 -18 982 18 1025 b 171 992 115 1025 144 1014 b 226 957 197 968 217 957 b 249 996 242 957 249 969 b 272 1025 249 1015 257 1025 m 229 722 b 279 671 267 722 279 710 l 279 51 b 229 0 279 13 267 0 l 121 0 b 69 51 82 0 69 13 l 69 671 b 121 722 69 710 82 722 "},"Ī":{"ha":396,"x_min":0,"x_max":0,"o":"m 361 1226 b 410 1178 399 1226 410 1217 l 410 1132 b 361 1085 410 1094 399 1085 l 36 1085 b -12 1132 -3 1085 -12 1094 l -12 1178 b 36 1226 -12 1215 1 1226 m 85 931 b 140 986 85 971 97 986 l 256 986 b 311 931 296 986 311 971 l 311 56 b 256 0 311 15 296 0 l 140 0 b 85 56 97 0 85 15 "},"ī":{"ha":350,"x_min":0,"x_max":0,"o":"m 281 972 b 311 926 307 972 311 964 l 311 882 b 281 835 311 844 304 835 l 68 835 b 36 882 42 835 36 844 l 36 926 b 68 972 36 961 44 972 m 229 722 b 279 671 267 722 279 710 l 279 51 b 229 0 279 13 267 0 l 121 0 b 69 51 82 0 69 13 l 69 671 b 121 722 69 710 82 722 "},"Ĭ":{"ha":396,"x_min":0,"x_max":0,"o":"m 438 1193 b 211 1053 404 1104 321 1053 b -12 1193 101 1053 19 1104 b 10 1240 -21 1215 -14 1231 l 82 1268 b 133 1251 106 1276 124 1271 b 211 1197 149 1215 174 1197 b 290 1251 249 1197 275 1215 b 333 1269 301 1274 310 1276 l 415 1240 b 438 1193 442 1229 444 1219 m 97 931 b 153 986 97 971 110 986 l 268 986 b 324 931 308 986 324 971 l 324 56 b 268 0 324 15 308 0 l 153 0 b 97 56 110 0 97 15 "},"ĭ":{"ha":350,"x_min":0,"x_max":0,"o":"m 379 994 b 403 949 403 985 410 969 b 188 807 368 854 296 807 b -25 949 81 807 10 854 b -3 994 -33 969 -26 985 l 69 1022 b 121 1006 99 1032 110 1029 b 188 954 133 971 156 954 b 256 1006 218 954 240 971 b 299 1024 264 1026 278 1032 m 242 722 b 292 671 279 722 292 710 l 292 51 b 242 0 292 13 279 0 l 133 0 b 82 51 94 0 82 13 l 82 671 b 133 722 82 710 94 722 "},"Į":{"ha":396,"x_min":0,"x_max":0,"o":"m 338 -256 b 335 -292 344 -271 343 -283 b 194 -340 297 -324 251 -340 b 58 -250 114 -340 68 -310 b 164 0 43 -176 85 -82 b 96 58 110 0 96 15 l 96 931 b 151 986 96 971 108 986 l 267 986 b 322 931 307 986 322 971 l 322 56 b 307 7 322 35 317 19 b 231 -172 244 -65 224 -137 b 258 -197 233 -189 243 -197 b 282 -190 268 -197 275 -194 b 314 -199 297 -181 308 -183 "},"į":{"ha":350,"x_min":0,"x_max":0,"o":"m 182 788 b 83 886 106 788 83 813 l 83 900 b 182 999 83 974 106 999 l 211 999 b 310 900 285 999 310 974 l 310 886 b 211 788 310 813 285 788 m 335 -256 b 331 -292 340 -271 339 -283 b 196 -340 293 -324 249 -340 b 60 -250 115 -340 69 -310 b 144 0 44 -175 74 -92 b 92 53 106 0 92 14 l 92 671 b 143 722 92 710 104 722 l 251 722 b 301 671 289 722 301 710 l 301 51 b 290 11 301 32 297 18 b 232 -172 243 -60 224 -121 b 261 -197 236 -189 246 -197 b 282 -192 269 -197 276 -196 b 314 -200 297 -182 308 -185 "},"İ":{"ha":396,"x_min":0,"x_max":0,"o":"m 203 1254 b 294 1163 274 1254 294 1233 l 294 1151 b 203 1060 294 1081 274 1060 l 194 1060 b 103 1151 124 1060 103 1081 l 103 1163 b 194 1254 103 1233 124 1254 m 85 931 b 140 986 85 971 97 986 l 256 986 b 311 931 296 986 311 971 l 311 56 b 256 0 311 15 296 0 l 140 0 b 85 56 97 0 85 15 "},"ı":{"ha":350,"x_min":0,"x_max":0,"o":"m 229 722 b 279 671 267 722 279 710 l 279 51 b 229 0 279 13 267 0 l 121 0 b 69 51 82 0 69 13 l 69 671 b 121 722 69 710 82 722 "},"Ĳ":{"ha":1206,"x_min":0,"x_max":0,"o":"m 85 931 b 140 986 85 971 97 986 l 256 986 b 311 931 296 986 311 971 l 311 56 b 256 0 311 15 296 0 l 140 0 b 85 56 97 0 85 15 m 1072 986 b 1128 931 1113 986 1128 971 l 1128 335 b 760 -21 1128 111 999 -21 b 414 204 583 -21 468 54 b 449 276 400 239 411 264 l 554 314 b 628 279 594 329 610 319 b 761 185 656 214 693 185 b 901 333 854 185 901 235 l 901 931 b 957 986 901 971 914 986 "},"ĳ":{"ha":696,"x_min":0,"x_max":0,"o":"m 189 999 b 288 900 263 999 288 974 l 288 886 b 189 788 288 813 263 788 l 160 788 b 61 886 83 788 61 813 l 61 900 b 160 999 61 974 83 999 m 535 999 b 633 900 611 999 633 974 l 633 886 b 535 788 633 813 611 788 l 506 788 b 407 886 432 788 407 813 l 407 900 b 506 999 407 974 432 999 m 229 722 b 279 671 267 722 279 710 l 279 51 b 229 0 279 13 267 0 l 121 0 b 69 51 82 0 69 13 l 69 671 b 121 722 69 710 82 722 m 572 722 b 625 671 613 722 625 710 l 625 -11 b 289 -319 625 -217 513 -319 b 236 -267 249 -319 236 -307 l 236 -181 b 289 -129 236 -142 249 -129 b 415 -1 374 -129 415 -86 l 415 671 b 468 722 415 710 428 722 "},"Ĵ":{"ha":808,"x_min":0,"x_max":0,"o":"m 644 1269 b 736 1228 688 1269 699 1267 l 869 1093 b 846 1051 892 1072 886 1051 l 761 1051 b 678 1079 715 1051 699 1056 l 625 1140 l 568 1079 b 488 1051 544 1053 533 1051 l 408 1051 b 385 1093 368 1051 363 1072 l 518 1228 b 563 1264 538 1247 553 1260 b 617 1269 572 1268 590 1269 m 682 986 b 738 931 722 986 738 971 l 738 335 b 369 -21 738 111 608 -21 b 22 204 193 -21 78 54 b 58 276 10 243 18 264 l 164 314 b 238 279 204 329 219 319 b 371 185 265 214 303 185 b 511 333 464 185 511 235 l 511 931 b 567 986 511 971 524 986 "},"ĵ":{"ha":351,"x_min":0,"x_max":0,"o":"m 193 1019 b 285 978 236 1019 247 1015 l 414 847 b 392 806 438 825 432 806 l 310 806 b 228 832 261 806 246 810 l 175 892 l 121 833 b 42 806 97 807 86 806 l -35 806 b -57 847 -74 806 -81 819 l 72 978 b 171 1019 111 1015 121 1019 m 228 722 b 281 671 268 722 281 710 l 281 -11 b -56 -319 281 -217 168 -319 b -108 -267 -96 -319 -108 -307 l -108 -181 b -56 -129 -108 -142 -96 -129 b 71 -1 29 -129 71 -86 l 71 671 b 124 722 71 710 83 722 "},"Ķ":{"ha":890,"x_min":0,"x_max":0,"o":"m 868 60 b 838 0 889 26 878 0 l 726 0 b 613 51 654 0 633 8 l 482 315 b 347 399 450 381 425 399 l 311 399 l 311 57 b 254 0 311 14 297 0 l 142 0 b 85 57 99 0 85 14 l 85 929 b 142 986 85 972 99 986 l 254 986 b 311 929 297 986 311 972 l 311 601 l 333 601 l 346 601 l 592 939 b 703 986 621 979 636 986 l 824 986 b 851 931 863 986 874 960 l 564 544 b 690 399 611 518 653 469 m 497 -315 b 439 -361 486 -349 472 -361 l 369 -361 b 336 -325 340 -361 332 -353 l 357 -129 b 417 -75 361 -89 376 -75 l 515 -74 b 563 -129 560 -74 575 -92 "},"ķ":{"ha":744,"x_min":0,"x_max":0,"o":"m 714 63 b 679 0 738 18 729 0 l 583 0 b 492 47 524 0 510 7 l 418 218 b 329 274 403 256 372 274 l 281 274 l 281 53 b 228 0 281 13 268 0 l 124 0 b 71 53 83 0 71 13 l 71 975 b 124 1028 71 1015 83 1028 l 228 1028 b 281 975 268 1028 281 1015 l 281 460 l 310 460 l 318 460 l 475 681 b 574 722 499 718 514 722 l 667 722 b 701 661 718 722 731 701 l 515 407 b 593 307 543 388 569 354 m 447 -272 b 381 -319 435 -310 419 -319 l 324 -319 b 288 -281 290 -319 283 -312 l 303 -125 b 369 -65 308 -79 325 -65 l 454 -65 b 499 -125 503 -65 514 -85 "},"ĸ":{"ha":731,"x_min":0,"x_max":0,"o":"m 700 63 b 665 0 726 21 715 0 l 569 0 b 463 43 507 0 485 8 l 335 238 l 279 169 l 279 54 b 226 0 279 14 267 0 l 124 0 b 69 54 81 0 69 11 l 69 669 b 124 722 69 710 83 722 l 226 722 b 279 669 267 722 279 710 l 279 460 l 457 682 b 556 722 486 717 499 722 l 658 722 b 692 663 713 722 724 703 l 475 401 "},"Ĺ":{"ha":742,"x_min":0,"x_max":0,"o":"m 226 1263 b 318 1258 267 1285 297 1283 l 368 1199 b 361 1143 392 1169 393 1156 l 117 1057 b 54 1060 85 1046 64 1047 l 28 1094 b 31 1147 6 1121 7 1135 m 254 986 b 311 929 297 986 311 972 l 311 207 l 669 207 b 726 150 710 207 726 190 l 726 57 b 669 0 726 14 713 0 l 142 0 b 85 57 99 0 85 14 l 85 929 b 142 986 85 972 99 986 "},"ĺ":{"ha":356,"x_min":0,"x_max":0,"o":"m 193 1271 b 278 1265 228 1293 257 1292 l 332 1199 b 325 1143 356 1169 353 1151 l 106 1071 b 42 1074 74 1060 53 1061 l 11 1114 b 14 1167 -10 1142 -10 1154 m 282 51 b 231 0 282 13 269 0 l 124 0 b 72 51 85 0 72 13 l 72 976 b 124 1028 72 1015 85 1028 l 231 1028 b 282 976 269 1028 282 1015 "},"Ļ":{"ha":742,"x_min":0,"x_max":0,"o":"m 254 986 b 311 929 297 986 311 972 l 311 207 l 669 207 b 726 150 710 207 726 190 l 726 57 b 669 0 726 14 713 0 l 142 0 b 85 57 99 0 85 14 l 85 929 b 142 986 85 972 99 986 m 436 -315 b 376 -361 425 -349 410 -361 l 308 -361 b 274 -325 279 -361 269 -353 l 296 -129 b 356 -75 300 -89 315 -75 l 453 -74 b 500 -129 499 -74 515 -92 "},"ļ":{"ha":356,"x_min":0,"x_max":0,"o":"m 286 51 b 235 0 286 13 274 0 l 126 0 b 76 51 89 0 76 13 l 76 976 b 126 1028 76 1015 89 1028 l 235 1028 b 286 976 274 1028 286 1015 m 218 -260 b 153 -307 206 -297 192 -307 l 93 -307 b 58 -268 61 -307 54 -297 l 74 -112 b 140 -53 79 -67 94 -53 l 226 -53 b 271 -112 269 -53 285 -72 "},"Ľ":{"ha":744,"x_min":0,"x_max":0,"o":"m 254 986 b 310 929 297 986 310 972 l 310 207 l 669 207 b 725 150 710 207 725 193 l 725 57 b 669 0 725 14 713 0 l 142 0 b 85 57 99 0 85 14 l 85 929 b 142 986 85 972 99 986 m 578 711 b 519 665 565 676 553 665 l 464 665 b 433 700 436 665 429 672 l 460 933 b 518 986 464 974 478 986 l 610 986 b 656 933 653 986 668 968 "},"ľ":{"ha":392,"x_min":0,"x_max":0,"o":"m 283 51 b 232 0 283 13 271 0 l 124 0 b 74 51 86 0 74 13 l 74 976 b 124 1028 74 1015 86 1028 l 232 1028 b 283 976 271 1028 283 1015 m 493 783 b 435 739 481 749 469 739 l 379 739 b 349 772 351 739 344 746 l 371 975 b 431 1028 376 1018 390 1028 l 522 1028 b 567 975 565 1028 581 1010 "},"Ŀ":{"ha":744,"x_min":0,"x_max":0,"o":"m 254 986 b 311 929 297 986 311 972 l 311 207 l 669 207 b 726 150 710 207 726 190 l 726 57 b 669 0 726 14 713 0 l 142 0 b 85 57 99 0 85 14 l 85 929 b 142 986 85 972 99 986 m 546 665 b 649 563 624 665 649 640 l 649 536 b 546 433 649 458 624 433 l 522 433 b 419 536 444 433 419 458 l 419 563 b 522 665 419 640 444 665 "},"ŀ":{"ha":597,"x_min":0,"x_max":0,"o":"m 283 51 b 232 0 283 13 271 0 l 124 0 b 74 51 86 0 74 13 l 74 976 b 124 1028 74 1015 86 1028 l 232 1028 b 283 976 271 1028 283 1015 m 492 642 b 596 538 571 642 596 617 l 596 511 b 492 406 596 432 571 406 l 468 406 b 363 511 389 406 363 432 l 363 538 b 468 642 363 617 389 642 "},"Ł":{"ha":797,"x_min":0,"x_max":0,"o":"m 739 207 b 796 150 779 207 796 190 l 796 57 b 739 0 796 14 782 0 l 211 0 b 154 57 168 0 154 14 l 154 346 l 94 319 b 40 336 69 307 51 313 l 10 397 b 25 446 -1 421 4 436 l 154 504 l 154 929 b 211 986 154 972 168 986 l 324 986 b 381 929 367 986 381 972 l 381 604 l 554 683 b 610 665 579 693 597 688 l 640 603 b 622 556 650 579 644 564 l 381 447 l 381 207 "},"ł":{"ha":500,"x_min":0,"x_max":0,"o":"m 507 610 b 494 561 519 588 515 571 l 368 493 l 368 51 b 318 0 368 13 356 0 l 210 0 b 158 51 171 0 158 13 l 158 381 l 115 357 b 58 371 89 344 71 349 l 25 428 b 39 476 15 449 19 465 l 158 540 l 158 976 b 210 1028 158 1015 171 1028 l 318 1028 b 368 976 356 1028 368 1015 l 368 653 l 418 679 b 475 665 443 692 463 688 "},"Ń":{"ha":971,"x_min":0,"x_max":0,"o":"m 515 1263 b 607 1258 556 1285 586 1283 l 657 1199 b 650 1143 681 1169 682 1156 l 406 1057 b 343 1060 374 1046 353 1047 l 317 1094 b 319 1147 294 1121 296 1135 m 829 986 b 885 929 872 986 885 972 l 885 57 b 829 0 885 14 872 0 l 717 0 b 661 26 690 0 672 8 l 389 440 b 272 700 340 513 301 599 l 263 700 b 301 389 289 575 301 471 l 301 57 b 244 0 301 14 288 0 l 142 0 b 85 57 99 0 85 14 l 85 929 b 142 986 85 972 99 986 l 257 986 b 311 960 281 986 299 978 l 589 539 b 668 388 622 489 653 424 b 703 290 683 351 701 294 l 714 290 b 669 597 685 382 669 485 l 669 929 b 726 986 669 972 683 986 "},"ń":{"ha":771,"x_min":0,"x_max":0,"o":"m 415 1018 b 507 1015 454 1040 485 1039 l 557 956 b 550 900 581 926 585 911 l 307 811 b 244 815 276 800 256 801 l 217 849 b 219 901 194 875 196 889 m 124 693 b 407 743 204 726 299 743 b 707 456 607 743 707 647 l 707 51 b 657 0 707 13 694 0 l 549 0 b 497 51 510 0 497 13 l 497 449 b 379 553 497 518 458 553 b 282 540 343 553 311 549 b 278 535 279 540 278 539 l 278 51 b 226 0 278 13 265 0 l 119 0 b 68 51 81 0 68 13 l 68 613 b 124 693 68 658 79 675 "},"Ņ":{"ha":971,"x_min":0,"x_max":0,"o":"m 829 986 b 885 929 872 986 885 972 l 885 57 b 829 0 885 14 872 0 l 717 0 b 661 26 690 0 672 8 l 389 440 b 272 700 340 513 301 599 l 263 700 b 301 389 289 575 301 471 l 301 57 b 244 0 301 14 288 0 l 142 0 b 85 57 99 0 85 14 l 85 929 b 142 986 85 972 99 986 l 257 986 b 311 960 281 986 299 978 l 589 539 b 668 388 622 489 653 424 b 703 290 683 351 701 294 l 714 290 b 669 597 685 382 669 485 l 669 929 b 726 986 669 972 683 986 m 536 -315 b 476 -361 525 -349 510 -361 l 408 -361 b 374 -325 379 -361 369 -353 l 396 -129 b 456 -75 400 -89 415 -75 l 553 -74 b 600 -129 599 -74 615 -92 "},"ņ":{"ha":771,"x_min":0,"x_max":0,"o":"m 124 693 b 407 743 204 726 299 743 b 707 456 607 743 707 647 l 707 51 b 657 0 707 13 694 0 l 549 0 b 497 51 510 0 497 13 l 497 449 b 379 553 497 518 458 553 b 282 540 343 553 311 549 b 278 535 279 540 278 539 l 278 51 b 226 0 278 13 265 0 l 119 0 b 68 51 81 0 68 13 l 68 613 b 124 693 68 658 79 675 m 439 -258 b 374 -306 426 -296 413 -306 l 315 -306 b 281 -267 283 -306 276 -299 l 296 -111 b 363 -51 301 -65 317 -51 l 447 -51 b 490 -111 493 -51 506 -71 "},"Ň":{"ha":971,"x_min":0,"x_max":0,"o":"m 704 1268 b 725 1225 743 1268 747 1247 l 593 1092 b 500 1049 556 1053 544 1049 l 475 1049 b 378 1092 425 1049 415 1053 l 244 1225 b 267 1268 222 1247 226 1268 l 349 1268 b 429 1240 394 1268 406 1264 l 485 1179 l 539 1239 b 621 1268 560 1265 575 1268 m 829 986 b 885 929 872 986 885 972 l 885 57 b 829 0 885 14 872 0 l 717 0 b 661 26 690 0 672 8 l 389 440 b 272 700 340 513 301 599 l 263 700 b 301 389 289 575 301 471 l 301 57 b 244 0 301 14 288 0 l 142 0 b 85 57 99 0 85 14 l 85 929 b 142 986 85 972 99 986 l 257 986 b 311 960 281 986 299 978 l 589 539 b 668 388 622 489 653 424 b 703 290 683 351 701 294 l 714 290 b 669 597 685 382 669 485 l 669 929 b 726 986 669 972 683 986 "},"ň":{"ha":771,"x_min":0,"x_max":0,"o":"m 586 1001 b 606 961 624 1001 628 982 l 485 838 b 400 799 450 803 440 799 l 376 799 b 288 838 331 799 321 803 l 165 961 b 186 1001 142 988 149 1001 l 260 1001 b 335 975 303 1001 313 997 l 386 919 l 435 975 b 511 1001 456 997 468 1001 m 124 693 b 407 743 204 726 299 743 b 707 456 607 743 707 647 l 707 51 b 657 0 707 13 694 0 l 549 0 b 497 51 510 0 497 13 l 497 449 b 379 553 497 518 458 553 b 282 540 343 553 311 549 b 278 535 279 540 278 539 l 278 51 b 226 0 278 13 265 0 l 119 0 b 68 51 81 0 68 13 l 68 613 b 124 693 68 658 79 675 "},"ŉ":{"ha":771,"x_min":0,"x_max":0,"o":"m 194 782 b 132 749 174 754 167 749 l 72 749 b 47 782 44 749 38 758 l 117 982 b 176 1028 128 1019 138 1028 l 285 1028 b 318 975 328 1028 339 1010 m 129 693 b 413 743 210 726 304 743 b 713 456 613 743 713 647 l 713 51 b 663 0 713 13 700 0 l 554 0 b 503 51 515 0 503 13 l 503 449 b 385 553 503 518 464 553 b 288 540 349 553 317 549 b 283 535 285 540 283 539 l 283 51 b 232 0 283 13 271 0 l 125 0 b 74 51 86 0 74 13 l 74 613 b 129 693 74 658 85 675 "},"Ŋ":{"ha":971,"x_min":0,"x_max":0,"o":"m 829 986 b 885 929 872 986 885 972 l 885 -11 b 549 -319 885 -217 772 -319 b 496 -267 510 -319 496 -307 l 496 -181 b 549 -129 496 -142 510 -129 b 668 -3 638 -129 668 -86 l 668 17 l 389 440 b 272 700 340 513 301 599 l 263 700 b 301 389 289 575 301 471 l 301 57 b 244 0 301 14 288 0 l 142 0 b 85 57 99 0 85 14 l 85 929 b 142 986 85 972 99 986 l 257 986 b 311 960 281 986 299 978 l 589 539 b 668 388 622 489 653 424 b 703 290 683 351 701 294 l 714 290 b 669 597 685 382 669 485 l 669 929 b 726 986 669 972 683 986 "},"ŋ":{"ha":772,"x_min":0,"x_max":0,"o":"m 124 693 b 407 743 204 726 299 743 b 707 456 607 743 707 647 l 707 -22 b 382 -319 707 -221 599 -319 b 332 -269 344 -319 332 -308 l 332 -186 b 382 -136 332 -147 344 -136 b 497 -14 467 -136 497 -93 l 497 449 b 379 553 497 518 458 553 b 282 540 343 553 311 549 b 278 535 279 540 278 539 l 278 51 b 226 0 278 13 265 0 l 119 0 b 68 51 81 0 68 13 l 68 613 b 124 693 68 658 79 675 "},"Ō":{"ha":938,"x_min":0,"x_max":0,"o":"m 631 1240 b 679 1192 669 1240 679 1231 l 679 1146 b 631 1099 679 1108 669 1099 l 306 1099 b 258 1146 268 1099 258 1108 l 258 1192 b 306 1240 258 1229 271 1240 m 58 633 b 468 1007 58 867 208 1007 b 879 633 729 1007 879 867 l 879 353 b 468 -21 879 119 729 -21 b 58 353 208 -21 58 119 m 653 638 b 468 800 653 746 592 800 b 285 638 350 800 285 744 l 285 349 b 468 186 285 242 350 186 b 653 349 592 186 653 240 "},"ō":{"ha":760,"x_min":0,"x_max":0,"o":"m 529 971 b 572 925 564 971 572 963 l 572 881 b 529 835 572 843 564 835 l 231 835 b 186 881 196 835 186 846 l 186 925 b 231 971 186 960 199 971 m 49 450 b 379 743 49 635 164 743 b 711 450 596 743 711 635 l 711 271 b 379 -21 711 86 596 -21 b 49 271 164 -21 49 88 m 501 453 b 379 557 501 522 461 557 b 258 453 299 557 258 522 l 258 269 b 379 165 258 200 299 165 b 501 269 461 165 501 200 "},"Ŏ":{"ha":938,"x_min":0,"x_max":0,"o":"m 696 1207 b 468 1067 663 1118 579 1067 b 244 1207 358 1067 276 1118 b 268 1254 238 1231 244 1246 l 339 1282 b 390 1265 364 1290 381 1285 b 468 1211 406 1229 431 1211 b 547 1265 506 1211 532 1229 b 592 1283 557 1283 571 1290 l 672 1254 b 696 1207 699 1243 703 1233 m 58 633 b 468 1007 58 867 208 1007 b 879 633 729 1007 879 867 l 879 353 b 468 -21 879 119 729 -21 b 58 353 208 -21 58 119 m 653 638 b 468 800 653 746 592 800 b 285 638 350 800 285 744 l 285 349 b 468 186 285 242 350 186 b 653 349 592 186 653 240 "},"ŏ":{"ha":760,"x_min":0,"x_max":0,"o":"m 606 949 b 379 807 572 860 489 807 b 156 949 269 807 188 860 b 178 994 147 969 154 985 l 250 1022 b 301 1006 279 1032 290 1029 b 379 951 317 969 342 951 b 458 1006 415 951 442 969 b 503 1024 469 1029 479 1033 l 583 994 b 606 949 607 985 614 969 m 49 450 b 379 743 49 635 164 743 b 711 450 596 743 711 635 l 711 271 b 379 -21 711 86 596 -21 b 49 271 164 -21 49 88 m 501 453 b 379 557 501 522 461 557 b 258 453 299 557 258 522 l 258 269 b 379 165 258 200 299 165 b 501 269 461 165 501 200 "},"Ő":{"ha":938,"x_min":0,"x_max":0,"o":"m 335 1256 b 421 1290 357 1288 386 1299 l 488 1271 b 503 1214 524 1258 529 1240 l 360 1090 b 300 1069 332 1068 322 1063 l 264 1079 b 247 1129 235 1086 229 1103 m 581 1256 b 667 1289 604 1288 632 1299 l 738 1268 b 753 1211 775 1256 781 1233 l 596 1085 b 536 1064 568 1061 563 1058 l 499 1074 b 483 1125 467 1082 463 1099 m 58 633 b 468 1007 58 867 208 1007 b 879 633 729 1007 879 867 l 879 353 b 468 -21 879 119 729 -21 b 58 353 208 -21 58 119 m 653 638 b 468 800 653 746 592 800 b 285 638 350 800 285 744 l 285 349 b 468 186 285 242 350 186 b 653 349 592 186 653 240 "},"ő":{"ha":760,"x_min":0,"x_max":0,"o":"m 256 967 b 336 999 276 996 304 1007 l 397 981 b 411 928 429 969 433 951 l 279 815 b 225 796 253 793 249 790 l 190 804 b 175 851 164 811 158 828 m 482 967 b 563 997 506 996 532 1007 l 628 978 b 642 926 663 965 668 949 l 496 810 b 442 790 475 792 457 785 l 407 800 b 393 847 378 807 374 824 m 49 450 b 379 743 49 635 164 743 b 711 450 596 743 711 635 l 711 271 b 379 -21 711 86 596 -21 b 49 271 164 -21 49 88 m 501 453 b 379 557 501 522 461 557 b 258 453 299 557 258 522 l 258 269 b 379 165 258 200 299 165 b 501 269 461 165 501 200 "},"Œ":{"ha":1210,"x_min":0,"x_max":0,"o":"m 1113 207 b 1169 150 1156 207 1169 190 l 1169 57 b 1113 0 1169 14 1156 0 l 631 0 b 468 -21 585 -14 531 -21 b 58 353 208 -21 58 119 l 58 633 b 468 1007 58 867 208 1007 b 628 986 528 1007 581 1000 l 1099 986 b 1156 929 1142 986 1156 972 l 1156 836 b 1099 781 1156 793 1142 781 l 790 781 l 790 601 l 1029 601 b 1086 546 1072 601 1086 589 l 1086 453 b 1029 396 1086 410 1072 396 l 790 396 l 790 207 m 285 349 b 468 186 285 242 350 186 b 564 201 506 186 538 192 l 564 785 b 468 800 538 794 506 800 b 285 638 350 800 285 744 "},"œ":{"ha":1146,"x_min":0,"x_max":0,"o":"m 576 681 b 786 743 628 722 699 743 b 1107 450 999 743 1107 622 l 1107 365 b 1033 296 1107 319 1082 296 l 675 296 l 675 261 b 788 151 675 188 713 151 b 904 206 839 151 878 169 b 986 225 928 240 943 246 l 1054 190 b 1076 108 1090 172 1097 144 b 785 -21 1024 22 926 -21 b 575 42 699 -21 629 0 b 364 -21 524 0 453 -21 b 49 271 157 -21 49 86 l 49 450 b 364 743 49 635 158 743 b 576 681 453 743 524 722 m 896 469 b 786 576 896 540 860 576 b 676 469 713 576 676 540 l 676 447 l 896 447 m 472 454 b 364 557 472 522 436 557 b 258 454 293 557 258 522 l 258 268 b 364 165 258 200 293 165 b 472 268 436 165 472 200 "},"Ŕ":{"ha":911,"x_min":0,"x_max":0,"o":"m 479 1263 b 571 1258 519 1285 550 1283 l 621 1199 b 614 1143 644 1169 646 1156 l 371 1057 b 307 1060 339 1046 317 1047 l 281 1094 b 283 1147 258 1121 260 1135 m 526 986 b 854 667 728 986 854 867 b 693 382 854 526 800 431 b 722 333 696 378 706 363 l 865 60 b 836 0 886 26 876 0 l 725 0 b 608 54 654 0 629 11 l 506 268 b 368 350 474 333 447 350 l 311 350 l 311 57 b 254 0 311 14 297 0 l 142 0 b 85 57 99 0 85 14 l 85 929 b 142 986 85 972 99 986 m 590 583 b 619 667 610 603 619 631 b 590 751 619 703 610 731 b 504 781 569 771 542 781 l 311 781 l 311 553 l 504 553 b 590 583 542 553 569 563 "},"ŕ":{"ha":497,"x_min":0,"x_max":0,"o":"m 314 1018 b 406 1015 353 1040 383 1039 l 457 956 b 450 900 481 926 482 913 l 206 811 b 143 815 175 800 154 801 l 115 849 b 118 901 93 875 94 889 m 390 743 l 436 743 b 488 692 474 743 488 731 l 488 606 b 436 556 488 568 474 556 l 385 556 b 286 546 347 556 315 553 b 278 536 281 544 278 542 l 278 51 b 228 0 278 13 265 0 l 119 0 b 68 51 81 0 68 13 l 68 619 b 124 700 68 665 79 682 b 390 743 186 725 275 739 "},"Ŗ":{"ha":911,"x_min":0,"x_max":0,"o":"m 526 986 b 854 667 728 986 854 867 b 693 382 854 526 800 431 b 722 333 696 378 706 363 l 865 60 b 836 0 886 26 876 0 l 725 0 b 608 54 654 0 629 11 l 506 268 b 368 350 474 333 447 350 l 311 350 l 311 57 b 254 0 311 14 297 0 l 142 0 b 85 57 99 0 85 14 l 85 929 b 142 986 85 972 99 986 m 590 583 b 619 667 610 603 619 631 b 590 751 619 703 610 731 b 504 781 569 771 542 781 l 311 781 l 311 553 l 504 553 b 590 583 542 553 569 563 m 513 -315 b 454 -361 501 -350 488 -361 l 385 -361 b 351 -325 357 -361 347 -353 l 372 -129 b 433 -75 378 -86 393 -75 l 531 -74 b 578 -129 575 -74 590 -92 "},"ŗ":{"ha":497,"x_min":0,"x_max":0,"o":"m 393 743 l 439 743 b 490 692 476 743 490 731 l 490 606 b 439 556 490 568 476 556 l 388 556 b 289 546 350 556 318 553 b 281 536 283 544 281 542 l 281 51 b 231 0 281 13 268 0 l 122 0 b 71 51 83 0 71 13 l 71 619 b 126 700 71 665 82 682 b 393 743 189 725 278 739 m 215 -268 b 150 -314 204 -303 189 -314 l 92 -314 b 57 -276 60 -314 53 -306 l 72 -114 b 139 -54 76 -68 93 -54 l 224 -54 b 268 -114 269 -54 283 -74 "},"Ř":{"ha":911,"x_min":0,"x_max":0,"o":"m 668 1268 b 690 1225 707 1268 713 1247 l 557 1092 b 464 1049 519 1053 508 1049 l 439 1049 b 386 1056 414 1049 396 1051 b 342 1092 376 1060 361 1072 l 210 1225 b 231 1268 186 1247 190 1268 l 313 1268 b 393 1240 358 1268 371 1264 l 450 1179 l 503 1239 b 586 1268 524 1265 540 1268 m 526 986 b 854 667 728 986 854 867 b 693 382 854 526 800 431 b 722 333 696 378 706 363 l 865 60 b 836 0 886 26 876 0 l 725 0 b 608 54 654 0 629 11 l 506 268 b 368 350 474 333 447 350 l 311 350 l 311 57 b 254 0 311 14 297 0 l 142 0 b 85 57 99 0 85 14 l 85 929 b 142 986 85 972 99 986 m 590 583 b 619 667 610 603 619 631 b 590 751 619 703 610 731 b 504 781 569 771 542 781 l 311 781 l 311 553 l 504 553 b 590 583 542 553 569 563 "},"ř":{"ha":497,"x_min":0,"x_max":0,"o":"m 489 1001 b 508 961 526 1001 531 982 l 388 838 b 303 799 353 803 343 799 l 279 799 b 190 838 233 799 224 803 l 69 961 b 89 1001 47 982 51 1001 l 164 1001 b 238 975 204 1001 215 997 l 289 919 l 338 975 b 414 1001 358 997 371 1001 m 394 743 l 440 743 b 492 692 478 743 492 731 l 492 606 b 440 556 492 568 478 556 l 389 556 b 290 546 351 556 319 553 b 282 536 285 544 282 542 l 282 51 b 232 0 282 13 269 0 l 124 0 b 72 51 85 0 72 13 l 72 619 b 128 700 72 665 83 682 b 394 743 190 725 279 739 "},"Ś":{"ha":888,"x_min":0,"x_max":0,"o":"m 482 1276 b 574 1272 522 1299 553 1297 l 624 1213 b 617 1157 647 1183 649 1169 l 374 1071 b 310 1074 342 1060 319 1061 l 283 1108 b 286 1161 261 1135 263 1149 m 58 696 b 454 1007 58 881 203 1007 b 826 803 653 1007 761 942 b 796 728 844 764 836 744 l 690 682 b 618 710 653 665 639 672 b 454 801 588 771 533 801 b 290 706 339 801 290 772 b 354 631 290 671 310 646 b 499 603 397 615 431 610 b 694 558 576 593 624 586 b 781 506 729 543 758 526 b 858 297 824 464 858 392 b 747 67 858 201 821 124 b 446 -21 674 8 572 -21 b 56 204 242 -21 111 54 b 92 276 43 244 53 261 l 193 313 b 267 279 233 328 249 322 b 446 183 296 215 356 183 b 631 293 569 183 631 219 b 443 393 631 356 564 381 b 338 408 399 399 364 404 b 239 435 311 413 279 421 b 144 485 199 449 167 465 b 58 696 99 524 58 597 "},"ś":{"ha":708,"x_min":0,"x_max":0,"o":"m 399 1018 b 490 1015 439 1040 469 1039 l 542 956 b 535 900 565 926 567 913 l 292 811 b 228 815 260 800 239 801 l 201 849 b 204 901 179 875 181 889 m 63 511 b 361 743 63 651 168 743 b 669 594 514 743 617 693 b 642 521 688 561 678 536 l 560 486 b 489 508 519 471 513 475 b 368 561 464 543 424 561 b 265 511 300 561 265 544 b 400 449 265 471 299 458 b 694 221 601 428 694 376 b 382 -21 694 75 581 -21 b 63 144 214 -21 107 35 b 96 214 50 179 61 201 l 181 242 b 249 213 215 254 232 247 b 375 160 265 178 307 160 b 494 217 454 160 494 179 b 347 283 494 261 463 272 b 151 336 264 290 208 304 b 63 511 94 368 63 426 "},"Ŝ":{"ha":888,"x_min":0,"x_max":0,"o":"m 474 1283 b 565 1242 517 1283 528 1281 l 699 1107 b 676 1065 721 1086 715 1065 l 590 1065 b 507 1093 544 1065 528 1069 l 454 1154 l 397 1093 b 317 1065 375 1067 363 1065 l 238 1065 b 215 1107 197 1065 192 1086 l 347 1242 b 447 1283 388 1282 393 1283 m 58 696 b 454 1007 58 881 203 1007 b 826 803 653 1007 761 942 b 796 728 844 764 836 744 l 690 682 b 618 710 653 665 639 672 b 454 801 588 771 533 801 b 290 706 339 801 290 772 b 354 631 290 671 310 646 b 499 603 397 615 431 610 b 694 558 576 593 624 586 b 781 506 729 543 758 526 b 858 297 824 464 858 392 b 747 67 858 201 821 124 b 446 -21 674 8 572 -21 b 56 204 242 -21 111 54 b 92 276 43 244 53 261 l 193 313 b 267 279 233 328 249 322 b 446 183 296 215 356 183 b 631 293 569 183 631 219 b 443 393 631 356 564 381 b 338 408 399 399 364 404 b 239 435 311 413 279 421 b 144 485 199 449 167 465 b 58 696 99 524 58 597 "},"ŝ":{"ha":708,"x_min":0,"x_max":0,"o":"m 390 1019 b 481 978 433 1019 443 1015 l 611 847 b 588 806 633 826 628 806 l 504 806 b 424 833 458 806 444 810 l 372 892 l 317 833 b 238 806 293 807 282 806 l 161 806 b 139 847 122 806 117 826 l 269 978 b 367 1019 307 1015 317 1019 m 63 511 b 361 743 63 651 168 743 b 669 594 514 743 617 693 b 642 521 688 561 678 536 l 560 486 b 489 508 519 471 513 475 b 368 561 464 543 424 561 b 265 511 300 561 265 544 b 400 449 265 471 299 458 b 694 221 601 428 694 376 b 382 -21 694 75 581 -21 b 63 144 214 -21 107 35 b 96 214 50 179 61 201 l 181 242 b 249 213 215 254 232 247 b 375 160 265 178 307 160 b 494 217 454 160 494 179 b 347 283 494 261 463 272 b 151 336 264 290 208 304 b 63 511 94 368 63 426 "},"Ş":{"ha":886,"x_min":0,"x_max":0,"o":"m 499 603 b 693 558 576 593 622 586 b 779 506 728 543 757 526 b 857 297 822 464 857 392 b 528 -17 857 126 733 7 l 507 -69 l 519 -69 b 635 -203 593 -69 644 -126 b 435 -340 625 -294 558 -340 b 336 -325 392 -340 358 -335 b 307 -282 317 -317 307 -303 l 306 -231 b 336 -210 306 -207 315 -200 b 413 -229 360 -222 386 -229 b 465 -192 447 -229 465 -217 b 414 -161 465 -172 449 -162 l 385 -161 b 364 -122 360 -161 353 -149 l 410 -21 b 56 204 225 -14 107 61 b 90 276 40 244 51 261 l 192 313 b 267 279 232 328 249 319 b 446 183 294 215 354 183 b 629 293 568 183 629 219 b 442 393 629 356 563 381 b 293 418 379 400 354 404 b 158 476 232 432 203 446 b 58 696 96 517 58 589 b 454 1007 58 881 200 1007 b 825 803 653 1007 760 943 b 794 728 843 764 835 744 l 690 682 b 618 710 653 665 639 672 b 454 801 586 771 531 801 b 289 706 339 801 289 772 b 353 631 289 671 308 646 b 499 603 396 615 431 610 "},"ş":{"ha":708,"x_min":0,"x_max":0,"o":"m 63 511 b 361 743 63 651 168 743 b 669 594 514 743 617 693 b 642 521 688 561 678 536 l 560 486 b 489 508 519 471 513 475 b 368 561 464 543 424 561 b 265 511 300 561 265 544 b 400 449 265 471 299 458 b 694 221 601 428 694 376 b 449 -18 694 93 606 3 l 422 -79 l 435 -79 b 546 -207 507 -79 556 -135 b 353 -339 536 -294 472 -339 b 256 -325 310 -339 278 -335 b 228 -283 238 -317 228 -303 l 226 -233 b 256 -214 226 -211 236 -204 b 329 -232 279 -226 303 -232 b 382 -196 364 -232 382 -219 b 331 -167 382 -178 365 -168 l 303 -167 b 283 -129 279 -167 274 -154 l 333 -19 b 63 144 192 -8 101 46 b 96 214 50 179 61 201 l 181 242 b 249 213 215 254 232 247 b 375 160 265 178 307 160 b 494 217 454 160 494 179 b 347 283 494 261 463 272 b 151 336 264 290 208 304 b 63 511 94 368 63 426 "},"Š":{"ha":888,"x_min":0,"x_max":0,"o":"m 671 1282 b 692 1239 710 1282 714 1261 l 560 1106 b 467 1063 522 1067 511 1063 l 442 1063 b 344 1106 392 1063 382 1067 l 213 1239 b 233 1282 189 1261 193 1282 l 315 1282 b 396 1254 361 1282 374 1278 l 453 1193 l 506 1253 b 589 1282 526 1279 543 1282 m 58 696 b 454 1007 58 881 203 1007 b 826 803 653 1007 761 942 b 796 728 844 764 836 744 l 690 682 b 618 710 653 665 639 672 b 454 801 588 771 533 801 b 290 706 339 801 290 772 b 354 631 290 671 310 646 b 499 603 397 615 431 610 b 694 558 576 593 624 586 b 781 506 729 543 758 526 b 858 297 824 464 858 392 b 747 67 858 201 821 124 b 446 -21 674 8 572 -21 b 56 204 242 -21 111 54 b 92 276 43 244 53 261 l 193 313 b 267 279 233 328 249 322 b 446 183 296 215 356 183 b 631 293 569 183 631 219 b 443 393 631 356 564 381 b 338 408 399 399 364 404 b 239 435 311 413 279 421 b 144 485 199 449 167 465 b 58 696 99 524 58 597 "},"š":{"ha":708,"x_min":0,"x_max":0,"o":"m 568 996 b 588 957 603 996 608 978 l 468 836 b 383 797 433 801 424 797 l 361 797 b 272 836 315 797 306 801 l 153 957 b 172 996 132 978 135 996 l 246 996 b 319 969 286 996 297 992 l 371 915 l 418 969 b 493 996 439 992 453 996 m 63 511 b 361 743 63 651 168 743 b 669 594 514 743 617 693 b 642 521 688 561 678 536 l 560 486 b 489 508 519 471 513 475 b 368 561 464 543 424 561 b 265 511 300 561 265 544 b 400 449 265 471 299 458 b 694 221 601 428 694 376 b 382 -21 694 75 581 -21 b 63 144 214 -21 107 35 b 96 214 50 179 61 201 l 181 242 b 249 213 215 254 232 247 b 375 160 265 178 307 160 b 494 217 454 160 494 179 b 347 283 494 261 463 272 b 151 336 264 290 208 304 b 63 511 94 368 63 426 "},"Ť":{"ha":810,"x_min":0,"x_max":0,"o":"m 622 1268 b 644 1225 663 1268 667 1247 l 511 1092 b 418 1049 474 1053 463 1049 l 393 1049 b 340 1056 368 1049 350 1051 b 296 1092 331 1060 315 1072 l 164 1225 b 185 1268 140 1247 144 1268 l 267 1268 b 347 1240 313 1268 325 1264 l 404 1179 l 457 1239 b 540 1268 478 1265 494 1268 m 735 986 b 792 929 778 986 792 972 l 792 836 b 735 781 792 793 778 781 l 518 781 l 518 57 b 461 0 518 14 504 0 l 349 0 b 293 57 306 0 293 14 l 293 781 l 75 781 b 18 836 32 781 18 793 l 18 929 b 75 986 18 972 32 986 "},"ť":{"ha":557,"x_min":0,"x_max":0,"o":"m 550 817 b 490 771 538 782 524 771 l 436 771 b 404 806 408 771 403 778 l 415 974 b 476 1028 417 1017 432 1028 l 567 1028 b 611 974 610 1028 625 1010 m 297 889 b 347 838 335 889 347 876 l 347 722 l 476 722 b 526 671 514 722 526 710 l 526 588 b 476 536 526 549 514 536 l 347 536 l 347 303 b 475 174 347 199 379 174 b 526 121 514 174 526 161 l 526 33 b 475 -19 526 -7 514 -18 b 215 44 354 -24 267 -1 b 138 294 164 90 138 174 l 138 536 l 64 536 b 13 588 25 536 13 549 l 13 671 b 64 722 13 710 25 722 l 138 722 l 138 838 b 189 889 138 876 151 889 "},"Ŧ":{"ha":831,"x_min":0,"x_max":0,"o":"m 746 986 b 801 929 789 986 801 972 l 801 836 b 746 781 801 796 789 781 l 528 781 l 528 522 l 675 522 b 707 488 699 522 707 514 l 707 407 b 675 372 707 379 701 372 l 528 372 l 528 57 b 471 0 528 14 514 0 l 360 0 b 303 57 317 0 303 14 l 303 372 l 156 372 b 124 407 129 372 124 379 l 124 488 b 156 522 124 511 135 522 l 303 522 l 303 781 l 85 781 b 29 836 42 781 29 796 l 29 929 b 85 986 29 972 42 986 "},"ŧ":{"ha":558,"x_min":0,"x_max":0,"o":"m 299 890 b 349 839 336 890 349 878 l 349 724 l 478 724 b 528 672 515 724 528 711 l 528 589 b 478 538 528 550 515 538 l 349 538 l 349 438 l 453 438 b 486 403 479 438 486 429 l 486 340 b 453 306 486 313 479 306 l 349 306 l 349 297 b 475 175 349 196 379 175 b 528 122 515 175 528 163 l 528 35 b 475 -18 528 -6 515 -17 b 217 46 354 -22 268 0 b 139 294 165 92 139 175 l 139 306 l 71 306 b 38 340 44 306 38 313 l 38 403 b 71 438 38 429 47 438 l 139 438 l 139 538 l 64 538 b 14 589 26 538 14 550 l 14 672 b 64 724 14 711 26 724 l 139 724 l 139 839 b 190 890 139 878 151 890 "},"Ũ":{"ha":960,"x_min":0,"x_max":0,"o":"m 663 1256 b 694 1224 683 1256 694 1244 b 569 1060 694 1103 657 1060 b 467 1094 535 1060 501 1071 b 394 1129 432 1118 408 1129 b 372 1089 379 1129 372 1115 b 344 1060 372 1069 363 1060 l 282 1060 b 250 1090 261 1060 250 1069 b 372 1256 250 1211 290 1256 b 481 1221 410 1256 446 1244 b 551 1186 515 1197 539 1186 b 574 1225 567 1186 574 1199 b 601 1256 574 1246 583 1256 m 303 342 b 479 185 303 240 364 185 b 656 342 597 185 656 238 l 656 929 b 713 986 656 972 669 986 l 825 986 b 882 929 868 986 882 972 l 882 347 b 479 -21 882 119 739 -21 b 78 347 222 -21 78 119 l 78 929 b 135 986 78 972 92 986 l 247 986 b 303 929 290 986 303 972 "},"ũ":{"ha":771,"x_min":0,"x_max":0,"o":"m 567 1015 b 599 985 588 1015 599 1006 b 472 819 599 863 561 819 b 371 854 439 819 406 831 b 299 889 336 878 313 889 b 276 850 283 889 276 876 b 247 819 276 829 267 819 l 185 819 b 154 851 164 819 154 831 b 276 1015 154 972 194 1015 b 385 981 314 1015 350 1004 b 456 946 419 957 443 946 b 478 986 471 946 478 960 b 506 1015 478 1006 488 1015 m 653 722 b 703 671 690 722 703 710 l 703 110 b 649 29 703 64 693 47 b 364 -21 567 -4 471 -21 b 64 267 164 -21 64 75 l 64 671 b 115 722 64 710 76 722 l 222 722 b 274 671 261 722 274 710 l 274 274 b 392 169 274 204 313 169 b 483 179 424 169 454 172 b 493 194 490 182 493 188 l 493 671 b 544 722 493 710 506 722 "},"Ū":{"ha":960,"x_min":0,"x_max":0,"o":"m 642 1226 b 690 1178 681 1226 690 1217 l 690 1132 b 642 1085 690 1094 681 1085 l 317 1085 b 269 1132 279 1085 269 1094 l 269 1178 b 317 1226 269 1215 282 1226 m 303 342 b 479 185 303 240 364 185 b 656 342 597 185 656 238 l 656 929 b 713 986 656 972 669 986 l 825 986 b 882 929 868 986 882 972 l 882 347 b 479 -21 882 119 739 -21 b 78 347 222 -21 78 119 l 78 929 b 135 986 78 972 92 986 l 247 986 b 303 929 290 986 303 972 "},"ū":{"ha":771,"x_min":0,"x_max":0,"o":"m 546 981 b 594 933 585 981 594 971 l 594 888 b 546 839 594 849 585 839 l 221 839 b 172 888 183 839 172 849 l 172 933 b 221 981 172 971 186 981 m 653 722 b 703 671 690 722 703 710 l 703 110 b 649 29 703 64 693 47 b 364 -21 567 -4 471 -21 b 64 267 164 -21 64 75 l 64 671 b 115 722 64 710 76 722 l 222 722 b 274 671 261 722 274 710 l 274 274 b 392 169 274 204 313 169 b 483 179 424 169 454 172 b 493 194 490 182 493 188 l 493 671 b 544 722 493 710 506 722 "},"Ŭ":{"ha":960,"x_min":0,"x_max":0,"o":"m 706 1193 b 479 1053 674 1104 590 1053 b 256 1193 369 1053 288 1104 b 278 1240 249 1217 256 1232 l 350 1268 b 401 1251 375 1276 392 1271 b 479 1197 417 1215 442 1197 b 558 1251 517 1197 543 1215 b 603 1269 568 1269 582 1276 l 683 1240 b 706 1193 707 1231 714 1214 m 303 342 b 479 185 303 240 364 185 b 656 342 597 185 656 238 l 656 929 b 713 986 656 972 669 986 l 825 986 b 882 929 868 986 882 972 l 882 347 b 479 -21 882 119 739 -21 b 78 347 222 -21 78 119 l 78 929 b 135 986 78 972 92 986 l 247 986 b 303 929 290 986 303 972 "},"ŭ":{"ha":771,"x_min":0,"x_max":0,"o":"m 610 949 b 383 807 576 860 493 807 b 160 949 274 807 192 860 b 182 994 153 971 160 986 l 254 1022 b 306 1006 283 1032 294 1029 b 383 951 321 969 346 951 b 463 1006 419 951 446 969 b 507 1024 474 1029 483 1033 l 588 994 b 610 949 611 985 618 969 m 653 722 b 703 671 690 722 703 710 l 703 110 b 649 29 703 64 693 47 b 364 -21 567 -4 471 -21 b 64 267 164 -21 64 75 l 64 671 b 115 722 64 710 76 722 l 222 722 b 274 671 261 722 274 710 l 274 274 b 392 169 274 204 313 169 b 483 179 424 169 454 172 b 493 194 490 182 493 188 l 493 671 b 544 722 493 710 506 722 "},"Ů":{"ha":960,"x_min":0,"x_max":0,"o":"m 324 1183 b 488 1339 324 1276 392 1339 b 647 1183 582 1339 647 1276 b 488 1031 647 1093 581 1031 b 324 1183 392 1031 324 1093 m 543 1183 b 488 1242 543 1218 519 1242 b 426 1183 450 1242 426 1218 b 488 1128 426 1151 453 1128 b 543 1183 519 1128 543 1150 m 303 342 b 479 185 303 240 364 185 b 656 342 597 185 656 238 l 656 929 b 713 986 656 972 669 986 l 825 986 b 882 929 868 986 882 972 l 882 347 b 479 -21 882 119 739 -21 b 78 347 222 -21 78 119 l 78 929 b 135 986 78 972 92 986 l 247 986 b 303 929 290 986 303 972 "},"ů":{"ha":771,"x_min":0,"x_max":0,"o":"m 265 792 b 219 903 235 819 219 857 b 265 1015 219 949 235 986 b 383 1058 296 1044 335 1058 b 543 903 476 1058 543 993 b 383 749 543 813 476 749 b 265 792 335 749 296 763 m 424 863 b 383 960 458 897 431 960 b 383 846 304 967 304 839 b 424 863 399 846 413 851 m 653 722 b 703 671 690 722 703 710 l 703 110 b 649 29 703 64 693 47 b 364 -21 567 -4 471 -21 b 64 267 164 -21 64 75 l 64 671 b 115 722 64 710 76 722 l 222 722 b 274 671 261 722 274 710 l 274 274 b 392 169 274 204 313 169 b 483 179 424 169 454 172 b 493 194 490 182 493 188 l 493 671 b 544 722 493 710 506 722 "},"Ű":{"ha":960,"x_min":0,"x_max":0,"o":"m 346 1242 b 432 1276 367 1274 396 1286 l 499 1257 b 514 1200 535 1244 540 1226 l 371 1076 b 311 1056 343 1054 333 1049 l 275 1065 b 257 1115 246 1072 240 1089 m 592 1242 b 678 1275 615 1274 643 1285 l 749 1254 b 764 1197 786 1242 792 1219 l 607 1071 b 547 1050 578 1047 574 1044 l 510 1060 b 494 1111 478 1068 474 1085 m 303 342 b 479 185 303 240 364 185 b 656 342 597 185 656 238 l 656 929 b 713 986 656 972 669 986 l 825 986 b 882 929 868 986 882 972 l 882 347 b 479 -21 882 119 739 -21 b 78 347 222 -21 78 119 l 78 929 b 135 986 78 972 92 986 l 247 986 b 303 929 290 986 303 972 "},"ű":{"ha":771,"x_min":0,"x_max":0,"o":"m 250 989 b 336 1022 272 1021 301 1032 l 403 1003 b 418 946 439 990 444 972 l 275 824 b 215 803 247 800 242 797 l 178 811 b 161 863 150 819 144 836 m 496 989 b 582 1022 519 1021 547 1032 l 653 1000 b 668 944 689 989 693 967 l 510 817 b 451 796 482 794 472 789 l 414 806 b 397 857 383 815 378 832 m 653 722 b 703 671 690 722 703 710 l 703 110 b 649 29 703 64 693 47 b 364 -21 567 -4 471 -21 b 64 267 164 -21 64 75 l 64 671 b 115 722 64 710 76 722 l 222 722 b 274 671 261 722 274 710 l 274 274 b 392 169 274 204 313 169 b 483 179 424 169 454 172 b 493 194 490 182 493 188 l 493 671 b 544 722 493 710 506 722 "},"Ų":{"ha":960,"x_min":0,"x_max":0,"o":"m 825 986 b 882 929 868 986 882 972 l 882 347 b 767 68 882 226 843 133 b 619 -172 657 -43 614 -137 b 649 -197 624 -189 633 -197 b 672 -190 657 -197 665 -194 b 703 -199 686 -181 696 -183 l 728 -256 b 724 -292 735 -271 733 -283 b 583 -340 686 -324 640 -340 b 450 -251 506 -340 461 -311 b 547 -17 438 -181 469 -101 b 479 -21 526 -19 504 -21 b 78 347 222 -21 78 119 l 78 929 b 135 986 78 972 92 986 l 247 986 b 303 929 290 986 303 972 l 303 342 b 479 185 303 240 364 185 b 656 342 597 185 656 238 l 656 929 b 713 986 656 972 669 986 "},"ų":{"ha":772,"x_min":0,"x_max":0,"o":"m 653 722 b 703 671 690 722 703 710 l 703 110 b 690 56 703 85 699 67 b 593 -172 617 -44 588 -137 b 622 -197 597 -189 607 -197 b 646 -189 629 -197 638 -194 b 676 -197 660 -179 669 -182 l 701 -256 b 697 -292 708 -271 707 -283 b 557 -340 663 -324 615 -340 b 421 -250 476 -340 431 -310 b 518 -7 408 -176 440 -96 b 364 -21 469 -17 418 -21 b 64 267 164 -21 64 75 l 64 671 b 115 722 64 710 76 722 l 222 722 b 274 671 261 722 274 710 l 274 274 b 392 169 274 204 313 169 b 483 179 424 169 454 172 b 493 194 490 182 493 188 l 493 671 b 544 722 493 710 506 722 "},"Ŵ":{"ha":1276,"x_min":0,"x_max":0,"o":"m 674 1269 b 765 1228 718 1269 728 1267 l 899 1093 b 876 1051 921 1072 915 1051 l 790 1051 b 707 1079 744 1051 728 1056 l 654 1140 l 597 1079 b 517 1051 575 1053 563 1051 l 438 1051 b 415 1093 397 1051 392 1072 l 547 1228 b 647 1269 588 1268 593 1269 m 1221 986 b 1257 931 1260 986 1268 969 l 1036 47 b 967 0 1026 8 1010 0 l 856 0 b 786 44 815 0 793 15 l 674 493 b 651 683 661 556 653 618 l 640 683 b 617 493 640 626 632 563 l 503 47 b 433 0 492 8 474 0 l 322 0 b 253 44 282 0 263 10 l 33 931 b 69 986 22 969 31 986 l 200 986 b 276 936 250 986 267 976 l 357 508 b 371 394 361 482 367 444 b 378 294 375 344 378 311 l 388 294 b 396 396 388 315 390 349 b 415 508 401 443 408 481 l 526 936 b 600 986 536 975 556 986 l 707 986 b 782 936 753 986 772 975 l 890 508 b 918 294 908 432 918 361 l 929 294 b 951 508 929 351 936 424 l 1031 936 b 1106 986 1038 976 1056 986 "},"ŵ":{"ha":1039,"x_min":0,"x_max":0,"o":"m 550 1019 b 640 978 593 1019 603 1015 l 771 847 b 747 806 793 826 786 806 l 664 806 b 583 833 618 806 604 810 l 531 892 l 476 833 b 397 806 453 807 442 806 l 321 806 b 299 847 282 806 276 826 l 429 978 b 525 1019 467 1015 476 1019 m 978 722 b 1021 663 1028 722 1036 708 l 847 46 b 778 0 838 11 818 0 l 699 0 b 628 46 660 0 636 15 l 554 322 b 533 464 543 368 535 432 l 531 489 l 522 489 b 496 322 518 429 508 374 l 422 46 b 353 0 413 11 393 0 l 278 0 b 208 46 240 0 217 15 l 35 663 b 76 722 19 708 28 722 l 160 722 b 250 671 222 722 243 714 l 301 432 b 319 274 308 393 315 318 l 321 240 l 329 240 b 356 432 335 321 343 385 l 421 669 b 506 722 432 714 444 722 l 557 722 b 642 671 618 722 631 714 l 708 432 b 733 271 721 386 729 311 l 735 240 l 744 240 b 764 432 746 311 751 375 l 813 669 b 903 722 822 714 840 722 "},"Ŷ":{"ha":914,"x_min":0,"x_max":0,"o":"m 488 1269 b 579 1228 531 1269 540 1267 l 713 1093 b 689 1051 735 1072 729 1051 l 604 1051 b 521 1079 556 1051 542 1056 l 468 1140 l 411 1079 b 331 1051 388 1053 376 1051 l 251 1051 b 228 1093 211 1051 206 1072 l 361 1228 b 406 1264 381 1247 396 1260 b 460 1269 415 1268 433 1269 m 874 986 b 903 929 914 986 924 961 l 576 383 l 576 57 b 519 0 576 14 563 0 l 407 0 b 350 57 364 0 350 14 l 350 386 l 24 929 b 53 986 3 961 13 986 l 182 986 b 256 979 218 986 243 983 b 292 936 268 974 279 960 l 465 613 l 642 936 b 681 979 654 960 668 974 b 753 986 693 983 717 986 "},"ŷ":{"ha":774,"x_min":0,"x_max":0,"o":"m 411 1019 b 501 978 454 1019 464 1015 l 632 847 b 610 806 654 826 649 806 l 526 806 b 444 833 481 806 465 810 l 393 892 l 338 833 b 258 806 315 807 304 806 l 183 806 b 161 847 144 806 139 826 l 290 978 b 388 1019 328 1015 338 1019 m 663 722 b 713 671 700 722 713 710 l 713 -11 b 396 -319 713 -204 613 -319 b 99 -190 251 -319 153 -276 b 119 -108 75 -156 82 -128 l 199 -68 b 279 -86 238 -47 256 -53 b 392 -139 304 -121 342 -139 b 503 -26 465 -139 503 -101 l 503 31 b 374 21 469 24 426 21 b 74 308 174 21 74 117 l 74 671 b 125 722 74 710 86 722 l 232 722 b 283 671 271 722 283 710 l 283 315 b 401 211 283 246 322 211 b 503 221 433 211 467 214 l 503 671 b 554 722 503 710 515 722 "},"Ÿ":{"ha":914,"x_min":0,"x_max":0,"o":"m 329 1253 b 419 1165 397 1253 419 1232 l 419 1150 b 329 1061 419 1083 396 1061 l 319 1061 b 231 1150 253 1061 231 1083 l 231 1165 b 319 1253 231 1232 251 1253 m 617 1253 b 704 1165 683 1253 704 1232 l 704 1150 b 617 1061 704 1083 683 1061 l 607 1061 b 517 1150 540 1061 517 1083 l 517 1165 b 607 1253 517 1232 539 1253 m 874 986 b 903 929 914 986 924 961 l 576 383 l 576 57 b 519 0 576 14 563 0 l 407 0 b 350 57 364 0 350 14 l 350 386 l 24 929 b 53 986 3 961 13 986 l 182 986 b 256 979 218 986 243 983 b 292 936 268 974 279 960 l 465 613 l 642 936 b 681 979 654 960 668 974 b 753 986 693 983 717 986 "},"Ź":{"ha":835,"x_min":0,"x_max":0,"o":"m 454 1263 b 546 1258 494 1285 525 1283 l 596 1199 b 589 1143 619 1169 621 1156 l 344 1057 b 282 1060 313 1046 292 1047 l 254 1094 b 258 1147 233 1121 235 1135 m 726 986 b 783 929 769 986 783 972 l 783 849 b 764 792 783 828 776 810 l 333 207 l 733 207 b 790 150 774 207 790 190 l 790 57 b 733 0 790 14 776 0 l 101 0 b 44 57 58 0 44 14 l 44 138 b 63 194 44 158 50 176 l 494 781 l 108 781 b 51 836 65 781 51 793 l 51 929 b 108 986 51 972 65 986 "},"ź":{"ha":671,"x_min":0,"x_max":0,"o":"m 363 1018 b 454 1015 401 1040 432 1039 l 506 956 b 499 900 529 926 531 913 l 254 811 b 192 815 224 800 203 801 l 164 849 b 167 901 142 875 143 889 m 579 186 b 631 135 618 186 631 172 l 631 51 b 579 0 631 13 618 0 l 90 0 b 40 51 53 0 40 13 l 40 133 b 57 185 40 154 46 172 l 353 536 l 97 536 b 47 588 60 536 47 550 l 47 671 b 97 722 47 710 60 722 l 572 722 b 624 671 611 722 624 710 l 624 589 b 603 533 624 569 617 551 l 303 186 "},"Ż":{"ha":835,"x_min":0,"x_max":0,"o":"m 431 1254 b 522 1163 501 1254 522 1233 l 522 1151 b 431 1060 522 1081 501 1060 l 422 1060 b 331 1151 351 1060 331 1081 l 331 1163 b 422 1254 331 1233 351 1254 m 726 986 b 783 929 769 986 783 972 l 783 849 b 764 792 783 828 776 810 l 333 207 l 733 207 b 790 150 774 207 790 190 l 790 57 b 733 0 790 14 776 0 l 101 0 b 44 57 58 0 44 14 l 44 138 b 63 194 44 158 50 176 l 494 781 l 108 781 b 51 836 65 781 51 793 l 51 929 b 108 986 51 972 65 986 "},"ż":{"ha":671,"x_min":0,"x_max":0,"o":"m 339 1008 b 431 917 410 1008 431 988 l 431 906 b 339 814 431 835 410 814 l 331 814 b 239 906 260 814 239 835 l 239 917 b 331 1008 239 988 260 1008 m 579 186 b 631 135 618 186 631 172 l 631 51 b 579 0 631 13 618 0 l 90 0 b 40 51 53 0 40 13 l 40 133 b 57 185 40 154 46 172 l 353 536 l 97 536 b 47 588 60 536 47 550 l 47 671 b 97 722 47 710 60 722 l 572 722 b 624 671 611 722 624 710 l 624 589 b 603 533 624 569 617 551 l 303 186 "},"Ž":{"ha":835,"x_min":0,"x_max":0,"o":"m 642 1268 b 664 1225 682 1268 688 1247 l 532 1092 b 439 1049 494 1053 483 1049 l 414 1049 b 317 1092 364 1049 354 1053 l 183 1225 b 206 1268 161 1247 165 1268 l 286 1268 b 368 1240 332 1268 344 1264 l 424 1179 l 478 1239 b 560 1268 499 1265 514 1268 m 726 986 b 783 929 769 986 783 972 l 783 849 b 764 792 783 828 776 810 l 333 207 l 733 207 b 790 150 774 207 790 190 l 790 57 b 733 0 790 14 776 0 l 101 0 b 44 57 58 0 44 14 l 44 138 b 63 194 44 158 50 176 l 494 781 l 108 781 b 51 836 65 781 51 793 l 51 929 b 108 986 51 972 65 986 "},"ž":{"ha":671,"x_min":0,"x_max":0,"o":"m 529 994 b 549 957 565 994 572 982 l 431 835 b 346 796 396 800 386 796 l 324 796 b 236 835 278 796 269 800 l 117 957 b 135 994 96 978 100 994 l 208 994 b 282 969 251 994 260 992 l 333 915 l 381 969 b 456 994 401 992 413 994 m 579 186 b 631 135 618 186 631 172 l 631 51 b 579 0 631 13 618 0 l 90 0 b 40 51 53 0 40 13 l 40 133 b 57 185 40 154 46 172 l 353 536 l 97 536 b 47 588 60 536 47 550 l 47 671 b 97 722 47 710 60 722 l 572 722 b 624 671 611 722 624 710 l 624 589 b 603 533 624 569 617 551 l 303 186 "},"ſ":{"ha":439,"x_min":0,"x_max":0,"o":"m 129 728 b 467 1028 129 924 244 1028 b 518 975 506 1028 518 1015 l 518 894 b 467 842 518 854 506 842 b 340 715 382 842 340 800 l 340 51 b 288 0 340 13 326 0 l 182 0 b 129 51 143 0 129 13 l 129 536 l 69 536 b 18 588 32 536 18 549 l 18 671 b 69 722 18 710 32 722 l 129 722 "},"ƒ":{"ha":656,"x_min":0,"x_max":0,"o":"m 236 713 b 581 1028 257 918 360 1028 b 632 975 619 1028 632 1015 l 632 889 b 581 838 632 850 619 838 b 446 707 488 838 456 796 l 432 585 l 551 585 b 603 533 589 585 603 572 l 603 444 b 551 394 603 407 589 394 l 413 394 l 374 10 b 29 -306 351 -196 250 -306 b -22 -253 -10 -306 -22 -293 l -22 -167 b 29 -115 -22 -128 -10 -115 b 164 15 122 -115 154 -74 l 203 394 l 93 394 b 42 444 56 394 42 407 l 42 533 b 93 585 42 572 56 585 l 222 585 "},"Ǻ":{"ha":932,"x_min":0,"x_max":0,"o":"m 524 1347 b 610 1346 561 1365 590 1364 l 656 1300 b 649 1260 676 1281 675 1267 l 421 1194 b 363 1199 390 1188 371 1189 l 336 1224 b 350 1268 318 1242 322 1257 m 313 1010 b 489 1175 313 1110 385 1175 b 661 1010 589 1175 661 1108 b 615 906 661 967 646 932 l 940 56 b 903 0 954 18 942 0 l 799 0 b 696 51 731 0 708 11 l 653 182 l 310 182 l 265 51 b 164 0 250 11 232 0 l 68 0 b 31 56 29 0 17 18 l 360 906 b 313 1010 328 932 313 967 m 531 972 b 489 1075 568 1010 539 1075 b 489 956 407 1082 407 949 b 531 972 506 956 519 961 m 522 581 b 489 753 504 640 490 715 l 488 779 l 474 779 b 442 582 475 714 464 647 l 369 365 l 594 365 "},"ǻ":{"ha":728,"x_min":0,"x_max":0,"o":"m 388 1261 b 472 1258 424 1279 451 1278 l 521 1215 b 514 1174 543 1193 543 1185 l 286 1108 b 228 1111 257 1100 238 1101 l 201 1136 b 204 1175 182 1156 181 1164 m 199 932 b 361 1086 199 1022 267 1086 b 519 932 454 1086 519 1022 b 361 781 519 842 454 781 b 199 932 267 781 199 843 m 417 932 b 361 989 417 967 394 989 b 301 932 326 989 301 967 b 361 876 301 900 326 876 b 417 932 394 876 417 899 m 63 599 b 360 743 114 694 213 743 b 669 450 567 743 669 646 l 669 97 b 618 17 669 49 658 33 b 356 -21 563 -8 475 -21 b 107 35 235 -21 153 -3 b 38 208 61 72 38 129 b 361 436 38 379 128 436 b 460 433 397 436 431 435 l 460 464 b 353 567 460 532 424 567 b 238 515 301 567 264 550 b 167 493 214 483 206 478 l 90 525 b 63 599 56 540 46 564 m 460 274 b 406 275 451 274 433 274 b 343 276 378 276 357 276 b 247 210 269 276 247 253 b 340 142 247 165 268 142 b 450 147 389 142 426 143 b 460 157 457 149 460 153 "},"Ǽ":{"ha":1222,"x_min":0,"x_max":0,"o":"m 924 1263 b 1015 1258 964 1285 994 1283 l 1065 1199 b 1058 1143 1089 1169 1090 1156 l 814 1057 b 751 1060 782 1046 761 1047 l 725 1094 b 728 1147 703 1121 704 1135 m 1150 207 b 1206 150 1190 207 1206 193 l 1206 57 b 1150 0 1206 14 1193 0 l 675 0 b 618 57 632 0 618 14 l 618 179 l 346 179 l 268 50 b 164 0 246 11 231 0 l 60 0 b 24 56 19 0 8 18 l 589 939 b 658 986 613 978 624 986 l 1136 986 b 1193 929 1179 986 1193 972 l 1193 836 b 1136 781 1193 793 1179 781 l 833 781 l 833 601 l 1067 601 b 1124 546 1110 601 1124 589 l 1124 453 b 1067 396 1124 410 1110 396 l 833 396 l 833 207 m 618 624 l 457 358 l 618 358 "},"ǽ":{"ha":1107,"x_min":0,"x_max":0,"o":"m 565 1018 b 657 1015 606 1040 636 1039 l 708 956 b 701 900 732 926 733 913 l 458 811 b 396 815 426 800 406 801 l 368 849 b 371 901 346 875 347 889 m 63 599 b 344 743 114 694 207 743 b 543 686 429 743 494 724 b 747 743 594 724 663 743 b 1068 450 960 743 1068 622 l 1068 365 b 996 296 1068 319 1044 296 l 638 296 l 638 258 b 749 151 638 188 675 151 b 867 207 800 151 840 169 b 947 225 890 240 907 246 l 1015 190 b 1038 108 1051 172 1058 144 b 746 -21 985 22 888 -21 b 569 18 678 -21 619 -8 b 340 -21 504 -8 428 -21 b 101 35 224 -21 144 -3 b 38 208 58 71 38 129 b 107 386 38 293 61 353 b 346 436 153 419 233 436 b 432 433 378 436 406 435 l 432 482 b 339 567 432 538 407 567 b 238 514 296 567 261 549 b 168 493 215 482 207 478 l 92 525 b 63 599 53 540 44 560 m 858 469 b 747 576 858 540 821 576 b 638 469 674 576 638 540 l 638 447 l 858 447 m 433 274 b 329 276 424 274 344 276 b 247 210 264 276 247 254 b 326 142 247 164 261 142 b 424 147 371 142 411 146 l 433 150 l 433 206 "},"Ǿ":{"ha":938,"x_min":0,"x_max":0,"o":"m 511 1276 b 603 1272 551 1299 582 1297 l 654 1213 b 647 1157 678 1183 679 1169 l 403 1071 b 340 1074 371 1060 350 1061 l 313 1108 b 315 1161 292 1135 292 1149 m 903 1047 b 913 1028 918 1047 921 1040 l 815 878 b 894 633 868 814 894 732 l 894 353 b 483 -21 894 121 746 -19 b 265 21 399 -22 326 -8 l 228 -37 b 189 -54 217 -53 213 -54 l 75 -54 b 67 -33 60 -54 57 -47 l 154 104 b 74 353 100 168 74 251 l 74 633 b 483 1007 74 867 224 1007 b 707 961 571 1007 646 992 l 750 1029 b 786 1047 761 1046 765 1047 m 592 778 b 483 800 563 793 526 800 b 300 638 365 800 300 744 l 300 369 b 303 328 300 351 301 338 m 381 206 b 483 186 407 193 440 186 b 668 349 607 186 668 240 l 668 615 b 667 650 668 631 668 643 "},"ǿ":{"ha":760,"x_min":0,"x_max":0,"o":"m 406 1018 b 497 1015 446 1040 476 1039 l 549 956 b 542 900 572 926 575 911 l 299 811 b 236 815 268 800 247 801 l 208 849 b 211 901 186 875 188 889 m 678 767 b 686 747 692 767 694 760 l 632 661 b 711 450 685 611 711 540 l 711 271 b 379 -21 711 86 596 -21 b 218 7 317 -21 264 -11 l 193 -32 b 156 -49 183 -47 179 -49 l 82 -49 b 72 -28 68 -49 65 -42 l 129 61 b 49 271 75 113 49 182 l 49 450 b 379 743 49 635 164 743 b 544 715 442 743 497 733 l 567 750 b 601 767 574 761 586 767 m 444 554 b 379 567 428 563 406 567 b 258 463 299 567 258 532 l 258 288 b 261 261 258 281 260 272 m 314 168 b 379 156 332 160 354 156 b 501 260 461 156 501 190 l 501 435 b 500 460 501 440 500 456 "},"Ș":{"ha":888,"x_min":0,"x_max":0,"o":"m 58 696 b 454 1007 58 881 203 1007 b 826 803 653 1007 761 942 b 796 728 844 764 836 744 l 690 682 b 618 710 653 665 639 672 b 454 801 588 771 533 801 b 290 706 339 801 290 772 b 354 631 290 671 310 646 b 499 603 397 615 431 610 b 694 558 576 593 624 586 b 781 506 729 543 758 526 b 858 297 824 464 858 392 b 747 67 858 201 821 124 b 446 -21 674 8 572 -21 b 56 204 242 -21 111 54 b 92 276 43 244 53 261 l 193 313 b 267 279 233 328 249 322 b 446 183 296 215 356 183 b 631 293 569 183 631 219 b 443 393 631 356 564 381 b 338 408 399 399 364 404 b 239 435 311 413 279 421 b 144 485 199 449 167 465 b 58 696 99 524 58 597 m 501 -315 b 443 -361 490 -350 476 -361 l 374 -361 b 340 -325 346 -361 336 -353 l 363 -129 b 422 -75 367 -89 382 -75 l 519 -74 b 567 -129 564 -74 579 -92 "},"ș":{"ha":708,"x_min":0,"x_max":0,"o":"m 63 511 b 361 743 63 651 168 743 b 669 594 514 743 617 693 b 642 521 688 561 678 536 l 560 486 b 489 508 519 471 513 475 b 368 561 464 543 424 561 b 265 511 300 561 265 544 b 400 449 265 471 299 458 b 694 221 601 428 694 376 b 382 -21 694 75 581 -21 b 63 144 214 -21 107 35 b 96 214 50 179 61 201 l 181 242 b 249 213 215 254 232 247 b 375 160 265 178 307 160 b 494 217 454 160 494 179 b 347 283 494 261 463 272 b 151 336 264 290 208 304 b 63 511 94 368 63 426 m 428 -262 b 363 -308 415 -300 401 -308 l 304 -308 b 268 -271 271 -308 264 -300 l 285 -117 b 350 -57 290 -71 306 -57 l 435 -57 b 479 -117 478 -57 493 -76 "},"Ț":{"ha":810,"x_min":0,"x_max":0,"o":"m 735 986 b 792 929 778 986 792 972 l 792 836 b 735 781 792 793 778 781 l 518 781 l 518 57 b 461 0 518 14 504 0 l 349 0 b 293 57 306 0 293 14 l 293 781 l 75 781 b 18 836 32 781 18 793 l 18 929 b 75 986 18 972 32 986 m 442 -315 b 382 -361 431 -349 415 -361 l 311 -361 b 278 -325 282 -361 274 -351 l 299 -129 b 360 -75 304 -89 319 -75 l 460 -74 b 508 -129 506 -74 521 -92 "},"ț":{"ha":557,"x_min":0,"x_max":0,"o":"m 297 889 b 347 838 335 889 347 876 l 347 722 l 476 722 b 526 671 514 722 526 710 l 526 588 b 476 536 526 549 514 536 l 347 536 l 347 303 b 475 174 347 199 379 174 b 526 121 514 174 526 161 l 526 33 b 475 -19 526 -7 514 -18 b 215 44 354 -24 267 -1 b 138 294 164 90 138 174 l 138 536 l 64 536 b 13 588 25 536 13 549 l 13 671 b 64 722 13 710 25 722 l 138 722 l 138 838 b 189 889 138 876 151 889 m 357 -315 b 299 -361 346 -350 332 -361 l 229 -361 b 196 -325 201 -361 192 -353 l 218 -129 b 278 -75 222 -89 238 -75 l 375 -74 b 422 -129 419 -74 435 -92 "},"ȷ":{"ha":351,"x_min":0,"x_max":0,"o":"m 229 722 b 281 671 268 722 281 710 l 281 -11 b -56 -319 281 -217 168 -319 b -108 -267 -94 -319 -108 -307 l -108 -181 b -56 -129 -108 -142 -94 -129 b 71 -1 29 -129 71 -86 l 71 671 b 124 722 71 710 83 722 "},"ˆ":{"ha":557,"x_min":0,"x_max":0,"o":"m 294 1026 b 386 983 338 1026 349 1022 l 519 850 b 497 807 542 828 536 807 l 411 807 b 328 835 365 807 349 811 l 275 896 l 218 835 b 138 807 196 808 183 807 l 60 807 b 38 850 21 807 15 828 l 171 983 b 269 1026 208 1022 219 1026 "},"ˇ":{"ha":497,"x_min":0,"x_max":0,"o":"m 467 1024 b 489 981 507 1024 513 1003 l 357 847 b 264 804 318 808 307 804 l 239 804 b 185 811 213 804 194 807 b 140 847 175 815 160 828 l 8 981 b 29 1024 -14 1003 -10 1024 l 111 1024 b 192 996 157 1024 169 1019 l 249 935 l 301 994 b 385 1024 324 1021 339 1024 "},"˘":{"ha":399,"x_min":0,"x_max":0,"o":"m 431 949 b 204 807 397 860 314 807 b -19 949 94 807 13 860 b 3 994 -28 969 -21 985 l 75 1022 b 126 1006 104 1032 115 1029 b 204 951 142 969 167 951 b 283 1006 240 951 267 969 b 328 1024 294 1029 304 1033 l 408 994 b 431 949 431 985 438 969 "},"˙":{"ha":301,"x_min":0,"x_max":0,"o":"m 156 1008 b 247 917 226 1008 247 988 l 247 906 b 156 814 247 835 226 814 l 147 814 b 56 906 76 814 56 835 l 56 917 b 147 1008 56 988 76 1008 "},"˚":{"ha":333,"x_min":0,"x_max":0,"o":"m 6 924 b 169 1079 6 1017 74 1079 b 329 924 263 1079 329 1014 b 169 771 329 833 264 771 b 6 924 74 771 6 833 m 225 924 b 169 982 225 958 201 982 b 108 924 132 982 108 958 b 169 868 108 892 135 868 b 225 924 201 868 225 890 "},"˛":{"ha":350,"x_min":0,"x_max":0,"o":"m 301 1 b 224 -172 242 -76 215 -135 b 251 -197 228 -189 238 -197 b 276 -190 260 -197 268 -194 b 307 -199 290 -181 300 -183 l 331 -256 b 328 -292 338 -271 338 -282 b 188 -340 290 -324 244 -340 b 51 -250 107 -340 61 -310 b 167 0 38 -174 76 -90 "},"˜":{"ha":424,"x_min":0,"x_max":0,"o":"m 403 1015 b 433 985 424 1015 433 1006 b 308 819 433 863 396 819 b 206 854 274 819 240 831 b 133 889 171 878 147 889 b 111 850 118 889 111 876 b 83 819 111 829 101 819 l 21 819 b -11 851 0 819 -11 831 b 113 1015 -11 972 31 1015 b 219 981 149 1015 185 1004 b 290 946 254 957 278 946 b 313 986 306 946 313 960 b 342 1015 313 1006 322 1015 "},"˝":{"ha":549,"x_min":0,"x_max":0,"o":"m 169 989 b 257 1022 193 1021 222 1032 l 324 1003 b 339 946 360 990 365 972 l 196 824 b 136 803 172 803 151 796 l 99 811 b 82 863 71 819 65 836 m 417 989 b 503 1022 440 1021 468 1032 l 574 1000 b 589 944 610 989 614 967 l 431 817 b 372 796 403 794 393 789 l 335 806 b 318 857 304 815 299 832 "},"̦":{"ha":0,"x_min":0,"x_max":0,"o":"m 240 -315 b 182 -361 229 -350 215 -361 l 113 -361 b 79 -325 85 -361 75 -353 l 100 -129 b 160 -75 104 -89 119 -75 l 258 -74 b 306 -129 303 -74 318 -92 "},"π":{"ha":918,"x_min":0,"x_max":0,"o":"m 835 722 b 886 671 874 722 886 710 l 886 586 b 835 533 886 547 874 533 l 807 533 l 807 221 b 828 113 807 182 814 146 b 800 38 844 78 835 53 l 707 1 b 635 28 669 -15 653 -11 b 597 222 610 85 597 149 l 597 533 l 388 533 l 388 51 b 336 0 388 13 375 0 l 229 0 b 178 51 190 0 178 13 l 178 533 b 113 515 164 532 142 526 b 46 538 79 499 58 504 l 11 619 b 36 686 -4 653 1 671 b 239 722 93 710 161 722 "},"Ё":{"ha":811,"x_min":0,"x_max":0,"o":"m 283 1244 b 374 1156 351 1244 374 1222 l 374 1140 b 283 1053 374 1075 351 1053 l 274 1053 b 185 1140 206 1053 185 1075 l 185 1156 b 274 1244 185 1222 206 1244 m 571 1244 b 658 1156 638 1244 658 1222 l 658 1140 b 571 1053 658 1074 638 1053 l 561 1053 b 471 1140 493 1053 471 1075 l 471 1156 b 561 1244 471 1222 493 1244 m 700 986 b 757 929 743 986 757 972 l 757 836 b 700 781 757 793 743 781 l 311 781 l 311 601 l 631 601 b 688 546 674 601 688 589 l 688 453 b 631 396 688 410 674 396 l 311 396 l 311 207 l 714 207 b 771 150 754 207 771 190 l 771 57 b 714 0 771 14 757 0 l 142 0 b 85 57 99 0 85 14 l 85 929 b 142 986 85 972 99 986 "},"А":{"ha":933,"x_min":0,"x_max":0,"o":"m 942 56 b 904 0 956 18 943 0 l 800 0 b 697 51 732 0 710 11 l 654 182 l 311 182 l 267 51 b 165 0 251 11 233 0 l 69 0 b 32 56 31 0 18 18 l 364 939 b 433 986 376 976 393 986 l 540 986 b 610 942 581 986 597 976 m 524 581 b 490 753 506 640 492 715 l 489 779 l 475 779 b 443 582 476 714 465 647 l 371 365 l 596 365 "},"Б":{"ha":886,"x_min":0,"x_max":0,"o":"m 729 986 b 786 929 772 986 786 972 l 786 842 b 729 785 786 801 772 785 l 311 785 l 311 624 l 536 624 b 853 311 729 624 853 504 b 536 0 853 121 729 0 l 140 0 b 85 54 100 0 85 14 l 85 929 b 142 986 85 972 99 986 m 619 311 b 504 422 619 379 576 422 l 311 422 l 311 201 l 504 201 b 619 311 576 201 619 244 "},"В":{"ha":910,"x_min":0,"x_max":0,"o":"m 532 986 b 828 724 717 986 828 890 b 732 518 828 631 796 563 l 732 513 b 865 274 821 475 865 394 b 775 72 865 188 835 121 b 538 0 714 24 635 0 l 142 0 b 85 57 99 0 85 14 l 85 929 b 142 986 85 972 99 986 m 497 597 b 599 692 565 597 599 629 b 497 786 599 754 565 786 l 311 786 l 311 597 m 628 300 b 524 401 628 368 593 401 l 311 401 l 311 200 l 524 200 b 628 300 593 200 628 233 "},"Г":{"ha":729,"x_min":0,"x_max":0,"o":"m 656 986 b 711 929 699 986 711 972 l 711 836 b 656 781 711 796 696 781 l 311 781 l 311 57 b 254 0 311 14 297 0 l 142 0 b 85 57 99 0 85 14 l 85 929 b 142 986 85 972 99 986 "},"Д":{"ha":1058,"x_min":0,"x_max":0,"o":"m 856 986 b 911 929 899 986 911 972 l 911 207 l 978 207 b 1035 150 1021 207 1035 193 l 1035 -156 b 978 -212 1035 -199 1021 -212 l 869 -212 b 814 -156 826 -212 814 -199 l 814 0 l 247 0 l 247 -156 b 192 -212 247 -199 235 -212 l 83 -212 b 26 -156 40 -212 26 -199 l 26 150 b 83 207 26 193 40 207 l 110 207 b 197 340 147 233 176 278 b 228 632 218 403 228 500 l 228 929 b 285 986 228 972 242 986 m 446 779 l 446 633 b 371 207 446 442 421 300 l 686 207 l 686 779 "},"Е":{"ha":811,"x_min":0,"x_max":0,"o":"m 700 986 b 757 929 743 986 757 972 l 757 836 b 700 781 757 793 743 781 l 311 781 l 311 601 l 631 601 b 688 546 674 601 688 589 l 688 453 b 631 396 688 410 674 396 l 311 396 l 311 207 l 714 207 b 771 150 754 207 771 190 l 771 57 b 714 0 771 14 757 0 l 142 0 b 85 57 99 0 85 14 l 85 929 b 142 986 85 972 99 986 "},"Ж":{"ha":1332,"x_min":0,"x_max":0,"o":"m 1272 986 b 1300 931 1311 986 1322 960 l 1046 525 b 1140 399 1081 497 1111 456 l 1317 60 b 1286 0 1336 19 1326 0 l 1175 0 b 1061 51 1103 0 1079 8 l 933 318 b 799 399 901 381 876 399 l 786 399 l 786 57 b 729 0 786 14 772 0 l 617 0 b 560 57 574 0 560 14 l 560 399 l 547 399 b 413 318 469 399 444 381 l 286 51 b 171 0 265 8 243 0 l 60 0 b 29 60 19 0 11 26 l 206 399 b 300 525 235 456 265 497 l 46 931 b 74 986 28 960 36 986 l 196 986 b 307 939 264 986 281 982 l 508 600 b 547 601 518 601 532 601 l 560 601 l 560 929 b 617 986 560 972 574 986 l 729 986 b 786 929 772 986 786 972 l 786 601 l 799 601 b 838 600 817 601 829 601 l 1040 939 b 1151 986 1064 982 1081 986 "},"З":{"ha":894,"x_min":0,"x_max":0,"o":"m 835 719 b 728 515 835 626 799 558 b 867 279 821 472 867 394 b 489 -21 867 89 743 -21 b 60 213 260 -21 117 57 b 94 285 47 247 58 272 l 199 322 b 269 286 238 338 254 326 b 482 183 297 215 358 183 b 628 292 579 183 628 219 b 521 400 628 364 592 400 l 357 400 b 301 456 314 400 301 415 l 301 542 b 357 599 301 585 314 599 l 497 599 b 604 700 568 599 604 632 b 471 803 604 768 560 803 b 276 700 360 803 306 771 b 204 664 261 660 244 653 l 101 701 b 67 774 65 714 54 739 b 488 1007 124 929 264 1007 b 835 719 714 1007 835 904 "},"И":{"ha":976,"x_min":0,"x_max":0,"o":"m 835 986 b 892 929 878 986 892 972 l 892 57 b 835 0 892 14 878 0 l 722 0 b 665 57 679 0 665 14 l 665 372 b 669 492 665 422 665 456 b 676 550 672 517 671 524 b 686 607 681 576 679 576 b 693 636 690 622 692 632 b 710 708 694 639 708 703 l 701 708 b 644 565 679 646 660 599 b 568 432 628 531 603 486 l 314 26 b 260 0 304 8 286 0 l 142 0 b 85 57 99 0 85 14 l 85 929 b 142 986 85 972 99 986 l 254 986 b 311 929 297 986 311 972 l 311 614 b 303 444 311 539 308 482 b 267 278 297 406 285 350 l 275 278 b 333 424 296 339 315 388 b 411 561 351 460 376 506 l 663 960 b 717 986 674 978 692 986 "},"Й":{"ha":976,"x_min":0,"x_max":0,"o":"m 750 1196 b 493 1047 713 1103 617 1047 b 239 1196 369 1047 276 1103 b 264 1246 228 1224 235 1235 l 346 1275 b 404 1257 379 1286 390 1282 b 493 1200 419 1219 450 1200 b 583 1257 535 1200 565 1219 b 632 1276 594 1281 606 1286 l 725 1246 b 750 1196 753 1235 760 1224 m 835 986 b 892 929 878 986 892 972 l 892 57 b 835 0 892 14 878 0 l 722 0 b 665 57 679 0 665 14 l 665 372 b 669 492 665 422 665 456 b 676 550 672 517 671 524 b 686 607 681 576 679 576 b 693 636 690 622 692 632 b 710 708 694 639 708 703 l 701 708 b 644 565 679 646 660 599 b 568 432 628 531 603 486 l 314 26 b 260 0 304 8 286 0 l 142 0 b 85 57 99 0 85 14 l 85 929 b 142 986 85 972 99 986 l 254 986 b 311 929 297 986 311 972 l 311 614 b 303 444 311 539 308 482 b 267 278 297 406 285 350 l 275 278 b 333 424 296 339 315 388 b 411 561 351 460 376 506 l 663 960 b 717 986 674 978 692 986 "},"К":{"ha":890,"x_min":0,"x_max":0,"o":"m 868 60 b 838 0 889 26 878 0 l 726 0 b 613 51 654 0 633 8 l 482 315 b 347 399 450 381 425 399 l 311 399 l 311 57 b 254 0 311 14 297 0 l 142 0 b 85 57 99 0 85 14 l 85 929 b 142 986 85 972 99 986 l 254 986 b 311 929 297 986 311 972 l 311 601 l 333 601 l 346 601 l 592 939 b 703 986 621 979 636 986 l 824 986 b 851 931 863 986 874 960 l 564 544 b 690 399 611 518 653 469 "},"Л":{"ha":956,"x_min":0,"x_max":0,"o":"m 818 986 b 875 929 861 986 875 972 l 875 57 b 818 0 875 14 861 0 l 707 0 b 650 57 664 0 650 14 l 650 779 l 424 779 l 424 633 b 339 165 424 415 394 258 b 146 -11 282 71 229 29 b 71 17 107 -29 88 -22 l 17 115 b 44 192 -1 153 6 174 b 149 296 89 214 114 235 b 203 632 183 357 203 471 l 203 929 b 260 986 203 972 217 986 "},"М":{"ha":1136,"x_min":0,"x_max":0,"o":"m 994 986 b 1051 931 1038 986 1051 974 l 1051 56 b 994 0 1051 13 1038 0 l 890 0 b 835 56 847 0 835 15 l 835 371 b 881 683 835 460 850 564 l 868 683 b 758 425 840 592 804 506 l 660 249 b 597 208 643 219 631 208 l 533 208 b 469 249 499 208 486 217 l 369 425 b 267 683 329 492 296 578 l 254 683 b 296 369 282 565 296 460 l 296 56 b 240 0 296 15 283 0 l 142 0 b 85 56 99 0 85 15 l 85 931 b 142 986 85 971 99 986 l 232 986 b 311 944 276 986 290 978 l 565 475 l 821 943 b 896 986 842 981 853 986 "},"Н":{"ha":957,"x_min":0,"x_max":0,"o":"m 815 986 b 871 929 858 986 871 972 l 871 57 b 815 0 871 14 858 0 l 703 0 b 646 57 660 0 646 14 l 646 396 l 311 396 l 311 57 b 254 0 311 14 297 0 l 142 0 b 85 57 99 0 85 14 l 85 929 b 142 986 85 972 99 986 l 254 986 b 311 929 297 986 311 972 l 311 603 l 646 603 l 646 929 b 703 986 646 972 660 986 "},"О":{"ha":938,"x_min":0,"x_max":0,"o":"m 58 633 b 468 1007 58 867 208 1007 b 879 633 729 1007 879 867 l 879 353 b 468 -21 879 119 729 -21 b 58 353 208 -21 58 119 m 653 638 b 468 800 653 746 592 800 b 285 638 350 800 285 744 l 285 349 b 468 186 285 242 350 186 b 653 349 592 186 653 240 "},"П":{"ha":950,"x_min":0,"x_max":0,"o":"m 808 986 b 864 929 851 986 864 972 l 864 57 b 808 0 864 14 851 0 l 696 0 b 639 57 653 0 639 14 l 639 781 l 311 781 l 311 57 b 254 0 311 14 297 0 l 142 0 b 85 57 99 0 85 14 l 85 929 b 142 986 85 972 99 986 "},"Р":{"ha":888,"x_min":0,"x_max":0,"o":"m 514 986 b 854 653 724 986 854 860 b 514 321 854 446 725 321 l 311 321 l 311 57 b 254 0 311 14 297 0 l 142 0 b 85 57 99 0 85 14 l 85 929 b 142 986 85 972 99 986 m 490 528 b 619 653 572 528 619 574 b 490 781 619 732 572 781 l 311 781 l 311 528 "},"С":{"ha":894,"x_min":0,"x_max":0,"o":"m 58 633 b 468 1007 58 867 208 1007 b 857 774 671 1007 800 929 b 822 701 871 739 860 714 l 715 664 b 643 699 675 651 658 658 b 468 800 617 767 558 800 b 285 635 346 800 285 744 l 285 351 b 468 186 285 242 346 186 b 643 288 558 186 617 219 b 715 322 658 328 676 338 l 822 285 b 857 213 860 272 871 247 b 468 -21 800 57 671 -21 b 58 353 208 -21 58 119 "},"Т":{"ha":810,"x_min":0,"x_max":0,"o":"m 735 986 b 792 929 778 986 792 972 l 792 836 b 735 781 792 793 778 781 l 518 781 l 518 57 b 461 0 518 14 504 0 l 349 0 b 293 57 306 0 293 14 l 293 781 l 75 781 b 18 836 32 781 18 793 l 18 929 b 75 986 18 972 32 986 "},"У":{"ha":867,"x_min":0,"x_max":0,"o":"m 851 986 b 879 929 886 986 896 967 l 492 50 b 400 0 474 7 460 0 l 269 0 b 242 57 233 0 224 19 l 354 292 l 36 929 b 65 986 18 967 28 986 l 182 986 b 290 936 253 986 269 982 l 472 551 l 638 936 b 736 986 656 982 668 986 "},"Ф":{"ha":1175,"x_min":0,"x_max":0,"o":"m 643 1021 b 700 964 686 1021 700 1007 l 700 903 l 760 903 b 1140 544 1006 903 1140 771 l 1140 447 b 760 90 1140 224 1006 90 l 700 90 l 700 29 b 643 -28 700 -14 686 -28 l 532 -28 b 475 29 489 -28 475 -14 l 475 90 l 415 90 b 33 447 169 90 33 224 l 33 544 b 415 903 33 771 169 903 l 475 903 l 475 964 b 532 1021 475 1007 489 1021 m 419 704 b 263 554 315 704 263 654 l 263 439 b 419 289 263 339 315 289 l 475 289 l 475 704 m 913 554 b 756 704 913 654 860 704 l 700 704 l 700 289 l 756 289 b 913 439 860 289 913 339 "},"Х":{"ha":906,"x_min":0,"x_max":0,"o":"m 892 57 b 864 0 914 28 903 0 l 731 0 b 658 8 696 0 671 3 b 619 50 646 13 632 26 l 451 325 l 293 50 b 253 8 278 28 265 14 b 182 0 240 3 217 0 l 57 0 b 29 57 18 0 7 25 l 319 503 l 42 932 b 68 986 19 960 31 986 l 196 986 b 306 939 263 986 276 979 l 461 682 l 615 939 b 718 986 643 982 657 986 l 851 986 b 878 932 889 986 900 960 l 597 504 "},"Ц":{"ha":1001,"x_min":0,"x_max":0,"o":"m 919 207 b 976 150 960 207 976 190 l 976 -156 b 919 -212 976 -199 963 -212 l 817 -212 b 761 -156 774 -212 761 -199 l 761 0 l 142 0 b 85 57 99 0 85 14 l 85 929 b 142 986 85 972 99 986 l 254 986 b 311 929 297 986 311 972 l 311 207 l 633 207 l 633 929 b 690 986 633 972 647 986 l 801 986 b 858 929 844 986 858 972 l 858 207 "},"Ч":{"ha":903,"x_min":0,"x_max":0,"o":"m 761 986 b 818 929 804 986 818 972 l 818 57 b 761 0 818 14 804 0 l 649 0 b 593 57 606 0 593 14 l 593 357 b 418 344 538 349 479 344 b 46 699 158 344 46 465 l 46 929 b 103 986 46 972 60 986 l 214 986 b 271 929 257 986 271 972 l 271 699 b 438 554 271 603 326 554 b 593 571 497 554 549 560 l 593 929 b 649 986 593 972 606 986 "},"Ш":{"ha":1303,"x_min":0,"x_max":0,"o":"m 1161 986 b 1218 929 1204 986 1218 972 l 1218 57 b 1161 0 1218 14 1204 0 l 142 0 b 85 57 99 0 85 14 l 85 929 b 142 986 85 972 99 986 l 254 986 b 311 929 297 986 311 972 l 311 207 l 539 207 l 539 929 b 596 986 539 972 553 986 l 708 986 b 764 929 751 986 764 972 l 764 207 l 993 207 l 993 929 b 1049 986 993 972 1006 986 "},"Щ":{"ha":1361,"x_min":0,"x_max":0,"o":"m 1279 207 b 1335 150 1319 207 1335 193 l 1335 -157 b 1279 -212 1335 -200 1322 -212 l 1176 -212 b 1119 -157 1133 -212 1119 -197 l 1119 0 l 142 0 b 85 57 99 0 85 14 l 85 929 b 142 986 85 972 99 986 l 254 986 b 311 929 297 986 311 972 l 311 207 l 539 207 l 539 929 b 596 986 539 972 553 986 l 708 986 b 764 929 751 986 764 972 l 764 207 l 993 207 l 993 929 b 1049 986 993 972 1006 986 l 1161 986 b 1218 929 1204 986 1218 972 l 1218 207 "},"Ъ":{"ha":1054,"x_min":0,"x_max":0,"o":"m 681 665 b 1021 333 892 665 1021 540 b 681 0 1021 126 888 0 l 308 0 b 251 57 265 0 251 14 l 251 779 l 76 779 b 19 836 33 779 19 793 l 19 929 b 76 986 19 972 33 986 l 421 986 b 478 929 464 986 478 972 l 478 665 m 657 206 b 786 333 739 206 786 254 b 657 458 786 413 739 458 l 478 458 l 478 206 "},"Ы":{"ha":1289,"x_min":0,"x_max":0,"o":"m 142 0 b 85 57 99 0 85 14 l 85 929 b 142 986 85 972 99 986 l 254 986 b 311 929 297 986 311 972 l 311 665 l 514 665 b 854 333 725 665 854 540 b 514 0 854 126 724 0 m 978 931 b 1033 986 978 971 993 986 l 1147 986 b 1203 931 1188 986 1203 971 l 1203 56 b 1147 0 1203 15 1188 0 l 1033 0 b 978 56 993 0 978 15 m 311 458 l 311 206 l 490 206 b 619 333 572 206 619 254 b 490 458 619 413 572 458 "},"Ь":{"ha":888,"x_min":0,"x_max":0,"o":"m 142 0 b 85 57 99 0 85 14 l 85 929 b 142 986 85 972 99 986 l 254 986 b 311 929 297 986 311 972 l 311 665 l 514 665 b 854 333 725 665 854 540 b 514 0 854 126 724 0 m 311 458 l 311 206 l 490 206 b 619 333 572 206 619 254 b 490 458 619 413 572 458 "},"Э":{"ha":901,"x_min":0,"x_max":0,"o":"m 50 774 b 439 1007 107 929 238 1007 b 849 633 700 1007 849 867 l 849 353 b 439 -21 849 119 700 -21 b 50 213 238 -21 107 57 b 86 285 38 251 46 272 l 189 322 b 261 286 229 335 246 329 b 439 183 288 218 347 183 b 624 346 560 183 624 240 l 624 397 l 340 397 b 283 454 297 397 283 411 l 283 544 b 340 601 283 588 297 601 l 624 601 l 624 642 b 439 803 624 747 557 803 b 261 700 347 803 288 768 b 189 664 246 660 229 653 l 86 701 b 50 774 46 714 38 735 "},"Ю":{"ha":1324,"x_min":0,"x_max":0,"o":"m 468 643 b 865 1007 468 871 614 1007 b 1264 633 1121 1007 1264 867 l 1264 353 b 865 -21 1264 119 1121 -21 b 467 346 614 -21 467 118 l 467 396 l 311 396 l 311 57 b 254 0 311 14 297 0 l 142 0 b 85 57 99 0 85 14 l 85 929 b 142 986 85 972 99 986 l 254 986 b 311 929 297 986 311 972 l 311 603 l 468 603 m 1039 639 b 865 800 1039 746 981 800 b 692 639 750 800 692 746 l 692 347 b 865 186 692 240 750 186 b 1039 347 981 186 1039 240 "},"Я":{"ha":910,"x_min":0,"x_max":0,"o":"m 83 667 b 411 986 83 867 210 986 l 796 986 b 853 929 839 986 853 972 l 853 57 b 796 0 853 14 839 0 l 685 0 b 628 57 642 0 628 14 l 628 350 l 565 350 b 426 268 482 350 456 335 l 335 51 b 219 0 317 8 293 0 l 108 0 b 78 60 68 0 58 19 l 210 333 b 239 385 217 346 226 363 b 83 667 135 436 83 529 m 435 781 b 319 667 361 781 319 739 b 435 554 319 592 358 554 l 628 554 l 628 781 "},"а":{"ha":728,"x_min":0,"x_max":0,"o":"m 63 599 b 360 743 114 694 213 743 b 669 450 567 743 669 646 l 669 97 b 618 17 669 49 658 33 b 356 -21 563 -8 475 -21 b 107 35 235 -21 153 -3 b 38 208 61 72 38 129 b 361 436 38 379 128 436 b 460 433 397 436 431 435 l 460 464 b 353 567 460 532 424 567 b 238 515 301 567 264 550 b 167 493 214 483 206 478 l 90 525 b 63 599 56 540 46 564 m 460 274 b 406 275 451 274 433 274 b 343 276 378 276 357 276 b 247 210 269 276 247 253 b 340 142 247 165 268 142 b 450 147 389 142 426 143 b 460 157 457 149 460 153 "},"б":{"ha":774,"x_min":0,"x_max":0,"o":"m 496 1013 b 593 1028 539 1013 571 1018 b 665 994 632 1046 649 1035 l 692 919 b 660 846 703 879 697 867 b 504 824 631 831 578 824 l 456 824 b 263 653 310 824 263 781 l 263 638 b 435 701 296 681 353 701 b 726 408 614 701 726 590 l 726 271 b 394 -21 726 86 611 -21 b 64 271 179 -21 64 88 l 64 579 b 153 910 64 731 93 842 b 454 1013 213 978 313 1013 m 515 411 b 394 515 515 481 475 515 b 275 411 315 515 275 481 l 275 269 b 394 165 275 200 315 165 b 515 269 475 165 515 200 "},"в":{"ha":747,"x_min":0,"x_max":0,"o":"m 679 518 b 621 376 679 458 660 411 b 708 207 679 339 708 282 b 476 0 708 81 617 0 l 121 0 b 69 51 82 0 69 13 l 69 671 b 121 722 69 710 82 722 l 457 722 b 679 518 597 722 679 642 m 413 446 b 471 501 450 446 471 468 b 413 558 471 539 451 558 l 278 558 l 278 446 m 426 164 b 492 228 467 164 492 189 b 426 289 492 265 467 289 l 278 289 l 278 164 "},"г":{"ha":600,"x_min":0,"x_max":0,"o":"m 533 722 b 585 671 572 722 585 710 l 585 582 b 533 532 585 544 572 532 l 279 532 l 279 51 b 229 0 279 13 267 0 l 121 0 b 69 51 82 0 69 13 l 69 671 b 121 722 69 710 82 722 "},"д":{"ha":882,"x_min":0,"x_max":0,"o":"m 810 186 b 861 133 849 186 861 174 l 861 -142 b 810 -193 861 -181 849 -193 l 710 -193 b 657 -142 671 -193 657 -181 l 657 -4 l 236 -4 l 236 -142 b 183 -193 236 -181 222 -193 l 82 -193 b 32 -142 44 -193 32 -181 l 32 133 b 82 186 32 174 44 186 l 107 186 b 182 464 157 229 182 321 l 182 671 b 232 722 182 710 194 722 l 704 722 b 754 671 742 722 754 710 l 754 186 m 383 454 b 339 186 383 342 368 251 l 544 186 l 544 532 l 383 532 "},"е":{"ha":754,"x_min":0,"x_max":0,"o":"m 47 435 b 381 743 47 635 165 743 b 715 450 601 743 715 621 l 715 365 b 643 296 715 319 692 296 l 257 296 l 257 261 b 382 151 257 188 299 151 b 514 207 442 151 486 169 b 594 225 538 240 554 246 l 663 190 b 685 108 699 172 706 144 b 379 -21 631 22 529 -21 b 47 288 151 -21 47 100 m 504 469 b 381 576 504 540 463 576 b 257 469 299 576 257 540 l 257 447 l 504 447 "},"ж":{"ha":1063,"x_min":0,"x_max":0,"o":"m 600 722 b 653 669 640 722 653 710 l 653 460 l 671 460 l 682 460 l 808 681 b 907 722 829 715 846 722 l 1000 722 b 1035 661 1049 722 1060 701 l 868 394 b 929 307 890 374 911 344 l 1047 63 b 1013 0 1071 18 1063 0 l 917 0 b 825 47 856 0 842 7 l 754 218 b 668 274 739 254 710 272 l 653 274 l 653 53 b 600 0 653 13 640 0 l 496 0 b 443 53 456 0 443 13 l 443 274 l 428 274 b 343 218 386 274 358 256 l 272 47 b 181 0 254 7 240 0 l 85 0 b 49 63 35 0 26 18 l 167 307 b 229 394 189 347 210 376 l 61 661 b 96 722 35 701 47 722 l 190 722 b 288 681 250 722 267 715 l 415 460 l 426 460 l 443 460 l 443 669 b 496 722 443 710 456 722 "},"з":{"ha":721,"x_min":0,"x_max":0,"o":"m 65 560 b 386 743 104 669 218 743 b 685 519 585 743 685 668 b 610 376 685 446 660 399 l 610 368 b 701 201 671 339 701 283 b 392 -21 701 53 599 -21 b 54 163 218 -21 106 40 b 89 236 39 200 51 225 l 171 261 b 243 229 214 274 228 267 b 388 156 264 181 311 156 b 490 224 467 156 490 179 b 426 282 490 263 469 282 l 311 282 b 263 332 274 282 263 294 l 263 394 b 311 444 263 432 274 444 l 415 444 b 481 499 458 444 481 463 b 388 568 481 544 458 568 b 253 493 319 568 274 543 b 182 460 238 456 225 449 l 101 486 b 65 560 63 499 53 517 "},"и":{"ha":782,"x_min":0,"x_max":0,"o":"m 229 722 b 279 671 267 722 279 710 l 279 492 b 244 267 279 425 268 350 l 250 267 b 328 424 267 313 293 365 l 501 694 b 553 722 514 713 531 722 l 661 722 b 713 671 699 722 713 710 l 713 51 b 661 0 713 13 699 0 l 553 0 b 501 51 515 0 501 13 l 501 229 b 539 454 501 292 514 367 l 532 454 b 451 294 514 406 486 353 l 281 28 b 229 0 268 10 251 0 l 121 0 b 69 51 82 0 69 13 l 69 671 b 121 722 69 710 82 722 "},"й":{"ha":782,"x_min":0,"x_max":0,"o":"m 626 949 b 400 807 594 860 511 807 b 176 949 290 807 208 860 b 199 994 169 971 176 986 l 271 1024 b 322 1007 300 1033 311 1029 b 400 951 338 969 363 951 b 479 1007 436 951 463 969 b 524 1024 489 1025 503 1031 l 604 994 b 626 949 628 985 635 969 m 229 722 b 279 671 267 722 279 710 l 279 492 b 244 267 279 425 268 350 l 250 267 b 328 424 267 313 293 365 l 501 694 b 553 722 514 713 531 722 l 661 722 b 713 671 699 722 713 710 l 713 51 b 661 0 713 13 699 0 l 553 0 b 501 51 515 0 501 13 l 501 229 b 539 454 501 292 514 367 l 532 454 b 451 294 514 406 486 353 l 281 28 b 229 0 268 10 251 0 l 121 0 b 69 51 82 0 69 13 l 69 671 b 121 722 69 710 82 722 "},"к":{"ha":743,"x_min":0,"x_max":0,"o":"m 713 63 b 678 0 736 18 728 0 l 582 0 b 490 47 522 0 508 7 l 417 218 b 329 274 401 256 372 274 l 279 274 l 279 53 b 226 0 279 13 267 0 l 122 0 b 69 53 82 0 69 13 l 69 669 b 122 722 69 710 82 722 l 226 722 b 279 669 267 722 279 710 l 279 460 l 307 460 l 318 460 l 474 681 b 572 722 497 718 513 722 l 665 722 b 701 661 718 722 731 701 l 515 407 b 593 307 543 388 569 354 "},"л":{"ha":764,"x_min":0,"x_max":0,"o":"m 663 722 b 714 671 701 722 714 710 l 714 51 b 663 0 714 13 701 0 l 556 0 b 504 51 517 0 504 13 l 504 532 l 356 532 l 356 457 b 260 72 353 250 318 139 b 140 -15 218 24 189 8 b 78 11 114 -26 93 -18 l 25 110 b 46 168 13 136 19 156 b 118 239 79 186 92 196 b 156 479 144 282 156 361 l 156 671 b 207 722 156 710 168 722 "},"м":{"ha":903,"x_min":0,"x_max":0,"o":"m 778 722 b 833 667 822 722 833 710 l 833 51 b 782 0 833 13 821 0 l 690 0 b 639 51 650 0 639 11 l 639 222 b 676 453 639 279 651 357 l 669 453 b 603 299 651 396 629 344 l 536 183 b 475 146 519 151 510 146 l 424 146 b 361 183 390 146 378 151 l 296 299 b 231 453 272 336 251 388 l 224 453 b 261 221 249 347 261 269 l 261 51 b 208 0 261 13 247 0 l 121 0 b 69 51 78 0 69 8 l 69 667 b 126 722 69 710 82 722 l 208 722 b 282 681 249 722 264 714 l 450 372 l 618 679 b 689 722 635 713 650 722 "},"н":{"ha":774,"x_min":0,"x_max":0,"o":"m 654 722 b 704 671 692 722 704 710 l 704 51 b 654 0 704 13 692 0 l 546 0 b 494 51 507 0 494 13 l 494 271 l 279 271 l 279 51 b 229 0 279 13 267 0 l 121 0 b 69 51 82 0 69 13 l 69 671 b 121 722 69 710 82 722 l 229 722 b 279 671 267 722 279 710 l 279 463 l 494 463 l 494 671 b 546 722 494 710 507 722 "},"о":{"ha":760,"x_min":0,"x_max":0,"o":"m 49 450 b 379 743 49 635 164 743 b 711 450 596 743 711 635 l 711 271 b 379 -21 711 86 596 -21 b 49 271 164 -21 49 88 m 501 453 b 379 557 501 522 461 557 b 258 453 299 557 258 522 l 258 269 b 379 165 258 200 299 165 b 501 269 461 165 501 200 "},"п":{"ha":768,"x_min":0,"x_max":0,"o":"m 649 722 b 699 671 686 722 699 710 l 699 51 b 649 0 699 13 686 0 l 540 0 b 489 51 501 0 489 13 l 489 532 l 279 532 l 279 51 b 229 0 279 13 267 0 l 121 0 b 69 51 82 0 69 13 l 69 671 b 121 722 69 710 82 722 "},"р":{"ha":757,"x_min":0,"x_max":0,"o":"m 124 700 b 406 743 199 729 293 743 b 708 456 610 743 708 640 l 708 281 b 388 -21 708 85 600 -21 b 278 -8 356 -21 319 -17 l 278 -254 b 228 -306 278 -293 265 -306 l 119 -306 b 68 -254 81 -306 68 -293 l 68 619 b 124 700 68 665 79 682 m 497 454 b 381 556 497 522 458 556 b 285 546 349 556 317 553 b 278 536 281 544 278 542 l 278 175 b 371 167 313 169 344 167 b 497 281 456 167 497 204 "},"с":{"ha":721,"x_min":0,"x_max":0,"o":"m 49 449 b 379 743 49 636 157 743 b 683 558 539 743 644 669 b 647 486 696 518 686 501 l 558 457 b 485 492 518 442 500 451 b 371 563 465 539 428 563 b 258 458 296 563 258 528 l 258 264 b 371 160 258 194 296 160 b 485 231 428 160 465 183 b 558 264 500 269 518 276 l 649 236 b 685 163 688 224 700 200 b 365 -21 633 40 526 -21 b 49 274 154 -21 49 78 "},"т":{"ha":665,"x_min":0,"x_max":0,"o":"m 597 722 b 649 671 635 722 649 710 l 649 582 b 597 532 649 544 635 532 l 438 532 l 438 51 b 386 0 438 13 425 0 l 279 0 b 228 51 240 0 228 13 l 228 532 l 68 532 b 18 582 31 532 18 544 l 18 671 b 68 722 18 710 31 722 "},"у":{"ha":774,"x_min":0,"x_max":0,"o":"m 663 722 b 713 671 700 722 713 710 l 713 -11 b 396 -319 713 -204 613 -319 b 99 -190 251 -319 153 -276 b 119 -108 75 -156 82 -128 l 199 -68 b 279 -86 238 -47 256 -53 b 392 -139 304 -121 342 -139 b 503 -26 465 -139 503 -101 l 503 31 b 374 21 469 24 426 21 b 74 308 174 21 74 117 l 74 671 b 125 722 74 710 86 722 l 232 722 b 283 671 271 722 283 710 l 283 315 b 401 211 283 246 322 211 b 503 221 433 211 467 214 l 503 671 b 554 722 503 710 515 722 "},"ф":{"ha":1039,"x_min":0,"x_max":0,"o":"m 624 740 b 678 743 647 742 665 743 b 992 425 888 743 992 638 l 992 297 b 678 -21 992 85 888 -21 b 624 -18 665 -21 647 -19 l 624 -254 b 574 -306 624 -293 611 -306 l 465 -306 b 414 -254 428 -306 414 -293 l 414 -18 b 361 -21 392 -19 374 -21 b 47 297 151 -21 47 85 l 47 425 b 361 743 47 638 151 743 b 414 740 374 743 392 742 l 414 975 b 465 1026 414 1014 428 1026 l 574 1026 b 624 975 611 1026 624 1014 m 257 297 b 374 167 257 210 296 167 b 421 169 385 167 400 168 l 421 553 b 374 556 400 554 385 556 b 257 425 296 556 257 513 m 782 425 b 664 556 782 513 743 556 b 618 553 654 556 639 554 l 618 169 b 664 167 639 168 654 167 b 782 297 746 167 782 208 "},"х":{"ha":732,"x_min":0,"x_max":0,"o":"m 671 722 b 707 661 722 722 733 701 l 511 372 l 719 61 b 682 0 749 21 739 0 l 586 0 b 493 44 529 0 517 6 l 379 226 l 271 44 b 178 0 249 6 233 0 l 83 0 b 46 61 22 0 14 21 l 253 369 l 54 661 b 93 722 28 701 40 722 l 186 722 b 281 678 243 722 258 715 l 383 518 l 483 678 b 572 722 510 717 518 722 "},"ц":{"ha":819,"x_min":0,"x_max":0,"o":"m 747 190 b 799 139 786 190 799 178 l 799 -142 b 747 -193 799 -181 786 -193 l 647 -193 b 594 -142 608 -193 594 -181 l 594 0 l 121 0 b 69 51 82 0 69 13 l 69 671 b 121 722 69 710 82 722 l 229 722 b 279 671 267 722 279 710 l 279 190 l 483 190 l 483 671 b 535 722 483 710 496 722 l 643 722 b 693 671 681 722 693 710 l 693 190 "},"ч":{"ha":728,"x_min":0,"x_max":0,"o":"m 36 671 b 88 722 36 710 49 722 l 194 722 b 246 671 233 722 246 710 l 246 514 b 354 413 246 446 282 413 b 439 422 389 413 424 418 l 449 425 l 449 671 b 499 722 449 710 461 722 l 607 722 b 658 671 646 722 658 710 l 658 51 b 607 0 658 13 646 0 l 499 0 b 449 51 461 0 449 13 l 449 233 b 319 224 422 226 379 224 b 36 503 131 224 36 317 "},"ш":{"ha":1081,"x_min":0,"x_max":0,"o":"m 961 722 b 1011 671 999 722 1011 710 l 1011 51 b 961 0 1011 13 999 0 l 121 0 b 69 51 82 0 69 13 l 69 671 b 121 722 69 710 82 722 l 229 722 b 279 671 267 722 279 710 l 279 190 l 436 190 l 436 671 b 486 722 436 710 449 722 l 594 722 b 646 671 633 722 646 710 l 646 190 l 801 190 l 801 671 b 853 722 801 710 814 722 "},"щ":{"ha":1138,"x_min":0,"x_max":0,"o":"m 1065 190 b 1117 139 1104 190 1117 178 l 1117 -142 b 1065 -193 1117 -181 1104 -193 l 965 -193 b 913 -142 926 -193 913 -181 l 913 0 l 121 0 b 69 51 82 0 69 13 l 69 671 b 121 722 69 710 82 722 l 229 722 b 279 671 267 722 279 710 l 279 190 l 436 190 l 436 671 b 486 722 436 710 449 722 l 594 722 b 646 671 633 722 646 710 l 646 190 l 801 190 l 801 671 b 853 722 801 710 814 722 l 961 722 b 1011 671 999 722 1011 710 l 1011 190 "},"ъ":{"ha":857,"x_min":0,"x_max":0,"o":"m 557 528 b 828 265 724 528 828 428 b 557 0 828 99 724 0 l 250 0 b 199 51 211 0 199 13 l 199 533 l 69 533 b 18 585 31 533 18 547 l 18 671 b 69 722 18 710 31 722 l 358 722 b 408 671 396 722 408 710 l 408 528 m 526 181 b 613 265 578 181 613 215 b 526 346 613 314 578 346 l 408 346 l 408 181 "},"ы":{"ha":1021,"x_min":0,"x_max":0,"o":"m 428 528 b 699 265 594 528 699 428 b 428 0 699 99 594 0 l 121 0 b 69 51 82 0 69 13 l 69 671 b 121 722 69 710 82 722 l 229 722 b 279 671 267 722 279 710 l 279 528 m 900 722 b 951 671 938 722 951 710 l 951 51 b 900 0 951 13 938 0 l 792 0 b 742 51 754 0 742 13 l 742 671 b 792 722 742 710 754 722 m 397 181 b 483 265 449 181 483 215 b 397 346 483 314 449 346 l 279 346 l 279 181 "},"ь":{"ha":728,"x_min":0,"x_max":0,"o":"m 428 528 b 699 265 594 528 699 428 b 428 0 699 99 594 0 l 121 0 b 69 51 82 0 69 13 l 69 671 b 121 722 69 710 82 722 l 229 722 b 279 671 267 722 279 710 l 279 528 m 397 181 b 483 265 449 181 483 215 b 397 346 483 314 449 346 l 279 346 l 279 181 "},"э":{"ha":717,"x_min":0,"x_max":0,"o":"m 44 560 b 347 743 83 669 190 743 b 676 449 569 743 676 636 l 676 275 b 363 -21 676 78 572 -21 b 44 164 203 -21 96 40 b 81 238 29 207 40 222 l 161 263 b 233 232 204 275 218 267 b 353 156 257 181 296 156 b 468 261 429 156 468 190 l 468 278 l 304 279 b 254 328 267 279 254 290 l 254 401 b 304 450 254 439 267 450 l 468 450 l 468 464 b 353 568 468 533 429 568 b 233 493 296 568 257 543 b 161 460 217 456 201 447 l 81 486 b 44 560 42 501 32 517 "},"ю":{"ha":1068,"x_min":0,"x_max":0,"o":"m 372 467 b 693 743 378 643 489 743 b 1019 450 906 743 1019 635 l 1019 271 b 693 -21 1019 86 906 -21 b 371 258 489 -21 376 81 l 371 271 l 279 271 l 279 51 b 229 0 279 13 267 0 l 121 0 b 69 51 82 0 69 13 l 69 671 b 121 722 69 710 82 722 l 229 722 b 279 671 267 722 279 710 l 279 463 l 371 463 m 808 453 b 693 557 808 522 769 557 b 581 453 618 557 581 522 l 581 269 b 693 165 581 200 618 165 b 808 269 769 165 808 200 "},"я":{"ha":744,"x_min":0,"x_max":0,"o":"m 632 722 b 683 671 669 722 683 710 l 683 51 b 632 0 683 13 669 0 l 524 0 b 474 51 486 0 474 13 l 474 219 l 379 219 l 288 46 b 193 0 267 6 253 0 l 99 0 b 60 63 39 0 31 19 l 175 251 b 56 471 96 294 56 367 b 313 722 56 626 156 722 m 344 544 b 272 471 301 544 272 511 b 344 400 272 428 300 400 l 474 400 l 474 544 "},"ё":{"ha":754,"x_min":0,"x_max":0,"o":"m 242 1004 b 332 915 310 1004 332 982 l 332 900 b 242 813 332 835 310 813 l 232 813 b 144 900 165 813 144 833 l 144 915 b 232 1004 144 982 165 1004 m 529 1004 b 618 915 597 1004 618 982 l 618 900 b 529 813 618 833 597 813 l 519 813 b 429 900 451 813 429 835 l 429 915 b 519 1004 429 982 451 1004 m 47 435 b 381 743 47 635 165 743 b 715 450 601 743 715 621 l 715 365 b 643 296 715 319 692 296 l 257 296 l 257 261 b 382 151 257 188 299 151 b 514 207 442 151 486 169 b 594 225 538 240 554 246 l 663 190 b 685 108 699 172 706 144 b 379 -21 631 22 529 -21 b 47 288 151 -21 47 100 m 504 469 b 381 576 504 540 463 576 b 257 469 299 576 257 540 l 257 447 l 504 447 "},"Ẁ":{"ha":1276,"x_min":0,"x_max":0,"o":"m 542 1260 b 633 1263 563 1285 593 1286 l 829 1147 b 832 1094 853 1135 854 1121 l 806 1060 b 742 1057 794 1047 774 1046 l 499 1143 b 490 1199 465 1154 467 1169 m 1221 986 b 1257 931 1260 986 1268 969 l 1036 47 b 967 0 1026 8 1010 0 l 856 0 b 786 44 815 0 793 15 l 674 493 b 651 683 661 556 653 618 l 640 683 b 617 493 640 626 632 563 l 503 47 b 433 0 492 8 474 0 l 322 0 b 253 44 282 0 263 10 l 33 931 b 69 986 22 969 31 986 l 200 986 b 276 936 250 986 267 976 l 357 508 b 371 394 361 482 367 444 b 378 294 375 344 378 311 l 388 294 b 396 396 388 315 390 349 b 415 508 401 443 408 481 l 526 936 b 600 986 536 975 556 986 l 707 986 b 782 936 753 986 772 975 l 890 508 b 918 294 908 432 918 361 l 929 294 b 951 508 929 351 936 424 l 1031 936 b 1106 986 1038 976 1056 986 "},"ẁ":{"ha":1039,"x_min":0,"x_max":0,"o":"m 419 1015 b 511 1018 440 1039 471 1040 l 707 901 b 710 849 731 889 731 875 l 682 815 b 618 811 671 801 650 800 l 375 900 b 368 956 343 913 344 926 m 978 722 b 1021 663 1028 722 1036 708 l 847 46 b 778 0 838 11 818 0 l 699 0 b 628 46 660 0 636 15 l 554 322 b 533 464 543 368 535 432 l 531 489 l 522 489 b 496 322 518 429 508 374 l 422 46 b 353 0 413 11 393 0 l 278 0 b 208 46 240 0 217 15 l 35 663 b 76 722 19 708 28 722 l 160 722 b 250 671 222 722 243 714 l 301 432 b 319 274 308 393 315 318 l 321 240 l 329 240 b 356 432 335 321 343 385 l 421 669 b 506 722 432 714 444 722 l 557 722 b 642 671 618 722 631 714 l 708 432 b 733 271 721 386 729 311 l 735 240 l 744 240 b 764 432 746 311 751 375 l 813 669 b 903 722 822 714 840 722 "}}}
